<svg width="40" height="40" viewBox="0 0 40 40" fill="none" xmlns="http://www.w3.org/2000/svg">
<g clip-path="url(#clip0_1_96)">
<path d="M10.143 39.8585C7.76414 39.7503 6.4719 39.3545 5.61239 39.0192C4.4735 38.5758 3.66154 38.048 2.80679 37.1944C1.95203 36.3408 1.42301 35.5289 0.98196 34.39C0.646714 33.5305 0.25084 32.2382 0.142658 29.8594C0.0237763 27.288 0 26.5165 0 20.0018C0 13.4871 0.0261539 12.7167 0.141469 10.143C0.249651 7.76414 0.647903 6.47428 0.980771 5.61239C1.4242 4.4735 1.95322 3.66154 2.8056 2.8056C3.65917 1.95203 4.47113 1.42182 5.6112 0.980771C6.47071 0.645526 7.76295 0.249651 10.1418 0.141469C12.7144 0.0237763 13.4871 0 19.9994 0C26.5141 0 27.2845 0.0261539 29.8582 0.141469C32.237 0.249651 33.5269 0.647903 34.3888 0.980771C35.5277 1.42182 36.3396 1.95203 37.1944 2.8056C38.0492 3.65917 38.5758 4.47232 39.0192 5.6112C39.3545 6.47071 39.7503 7.76295 39.8585 10.1418C39.9762 12.7155 40 13.4859 40 20.0006C40 26.5129 39.9762 27.2856 39.8585 29.8594C39.7503 32.2382 39.3521 33.5305 39.0192 34.39C38.5758 35.5289 38.048 36.3408 37.1944 37.1944C36.3408 38.048 35.5277 38.5758 34.3888 39.0192C33.5293 39.3545 32.237 39.7503 29.8582 39.8585C27.2868 39.9762 26.5141 40 19.9994 40C13.4871 40 12.7144 39.9774 10.143 39.8585Z" fill="url(#paint0_radial_1_96)"/>
<path d="M10.143 39.8585C7.76414 39.7503 6.4719 39.3545 5.61239 39.0192C4.4735 38.5758 3.66154 38.048 2.80679 37.1944C1.95203 36.3408 1.42301 35.5289 0.98196 34.39C0.646714 33.5305 0.25084 32.2382 0.142658 29.8594C0.0237763 27.288 0 26.5165 0 20.0018C0 13.4871 0.0261539 12.7167 0.141469 10.143C0.249651 7.76414 0.647903 6.47428 0.980771 5.61239C1.4242 4.4735 1.95322 3.66154 2.8056 2.8056C3.65917 1.95203 4.47113 1.42182 5.6112 0.980771C6.47071 0.645526 7.76295 0.249651 10.1418 0.141469C12.7144 0.0237763 13.4871 0 19.9994 0C26.5141 0 27.2845 0.0261539 29.8582 0.141469C32.237 0.249651 33.5269 0.647903 34.3888 0.980771C35.5277 1.42182 36.3396 1.95203 37.1944 2.8056C38.0492 3.65917 38.5758 4.47232 39.0192 5.6112C39.3545 6.47071 39.7503 7.76295 39.8585 10.1418C39.9762 12.7155 40 13.4859 40 20.0006C40 26.5129 39.9762 27.2856 39.8585 29.8594C39.7503 32.2382 39.3521 33.5305 39.0192 34.39C38.5758 35.5289 38.048 36.3408 37.1944 37.1944C36.3408 38.048 35.5277 38.5758 34.3888 39.0192C33.5293 39.3545 32.237 39.7503 29.8582 39.8585C27.2868 39.9762 26.5141 40 19.9994 40C13.4871 40 12.7144 39.9774 10.143 39.8585Z" fill="url(#paint1_radial_1_96)"/>
<path d="M15.089 20.0853C15.089 17.3497 17.306 15.1315 20.0416 15.1315C22.7772 15.1315 24.9954 17.3497 24.9954 20.0853C24.9954 22.8208 22.7772 25.039 20.0416 25.039C17.306 25.039 15.089 22.8208 15.089 20.0853ZM12.4111 20.0853C12.4111 24.2996 15.8273 27.7158 20.0416 27.7158C24.256 27.7158 27.6721 24.2996 27.6721 20.0853C27.6721 15.8709 24.256 12.4547 20.0416 12.4547C15.8273 12.4547 12.4112 15.8707 12.4112 20.0853M26.1911 12.1522C26.191 12.5049 26.2954 12.8497 26.4912 13.143C26.6871 13.4363 26.9655 13.665 27.2913 13.8001C27.6171 13.9352 27.9756 13.9707 28.3215 13.902C28.6675 13.8333 28.9853 13.6636 29.2348 13.4143C29.4842 13.165 29.6542 12.8474 29.7232 12.5015C29.7921 12.1556 29.7569 11.7971 29.6221 11.4712C29.4873 11.1453 29.2588 10.8667 28.9656 10.6706C28.6725 10.4746 28.3277 10.3698 27.975 10.3697H27.9743C27.5016 10.3699 27.0483 10.5578 26.7139 10.892C26.3796 11.2262 26.1915 11.6794 26.1911 12.1522ZM14.0381 32.1812C12.5893 32.1152 11.8018 31.8739 11.2785 31.67C10.5847 31.3999 10.0897 31.0782 9.56925 30.5585C9.04879 30.0387 8.72662 29.5442 8.45771 28.8504C8.25371 28.3273 8.01238 27.5396 7.94652 26.0908C7.87448 24.5244 7.86009 24.0539 7.86009 20.0855C7.86009 16.1171 7.87566 15.6479 7.94652 14.0802C8.0125 12.6314 8.25561 11.8452 8.45771 11.3206C8.72781 10.6268 9.0495 10.1318 9.56925 9.61134C10.089 9.09088 10.5835 8.76871 11.2785 8.4998C11.8016 8.2958 12.5893 8.05447 14.0381 7.98861C15.6045 7.91657 16.075 7.90219 20.0416 7.90219C24.0082 7.90219 24.4792 7.91752 26.0469 7.98885C27.4957 8.05483 28.2819 8.29794 28.8065 8.50004C29.5003 8.76895 29.9953 9.09183 30.5158 9.61158C31.0362 10.1313 31.3572 10.6271 31.6273 11.3209C31.8313 11.8439 32.0726 12.6316 32.1385 14.0804C32.2106 15.6481 32.2249 16.1174 32.2249 20.0857C32.2249 24.0541 32.2106 24.5233 32.1385 26.091C32.0725 27.5398 31.83 28.3273 31.6273 28.8506C31.3572 29.5444 31.0355 30.0394 30.5158 30.5587C29.996 31.078 29.5003 31.4002 28.8065 31.6702C28.2834 31.8742 27.4957 32.1156 26.0469 32.1814C24.4805 32.2535 24.01 32.2679 20.0416 32.2679C16.0732 32.2679 15.604 32.2535 14.0381 32.1814M13.9151 5.31509C12.3331 5.38713 11.2521 5.63797 10.3081 6.00532C9.33101 6.38467 8.50276 6.8936 7.67571 7.71935C6.84865 8.5451 6.34103 9.37346 5.96168 10.3517C5.59433 11.2964 5.34349 12.3768 5.27145 13.9587C5.19822 15.5432 5.18146 16.0497 5.18146 20.0853C5.18146 24.1208 5.19822 24.6274 5.27145 26.2118C5.34349 27.7939 5.59433 28.8742 5.96168 29.8188C6.34103 30.7959 6.84877 31.6258 7.67571 32.4512C8.50264 33.2766 9.32982 33.7848 10.3081 34.1652C11.2539 34.5326 12.3331 34.7834 13.9151 34.8554C15.5004 34.9275 16.0061 34.9454 20.0416 34.9454C24.0772 34.9454 24.5837 34.9287 26.1682 34.8554C27.7502 34.7834 28.8305 34.5326 29.7752 34.1652C30.7522 33.7848 31.5805 33.2769 32.4075 32.4512C33.2346 31.6254 33.7411 30.7959 34.1216 29.8188C34.4889 28.8742 34.7409 27.7938 34.8118 26.2118C34.8838 24.6262 34.9006 24.1208 34.9006 20.0853C34.9006 16.0497 34.8838 15.5432 34.8118 13.9587C34.7398 12.3766 34.4889 11.2958 34.1216 10.3517C33.7411 9.37465 33.2333 8.5464 32.4075 7.71935C31.5818 6.89229 30.7522 6.38467 29.7763 6.00532C28.8305 5.63797 27.7501 5.38594 26.1694 5.31509C24.5847 5.24269 24.0784 5.2251 20.0434 5.2251C16.0085 5.2251 15.501 5.24186 13.9157 5.31509" fill="white"/>
</g>
<defs>
<radialGradient id="paint0_radial_1_96" cx="0" cy="0" r="1" gradientUnits="userSpaceOnUse" gradientTransform="translate(2.58876 39.1237) scale(50.7852)">
<stop offset="0.09" stop-color="#FA8F21"/>
<stop offset="0.78" stop-color="#D82D7E"/>
</radialGradient>
<radialGradient id="paint1_radial_1_96" cx="0" cy="0" r="1" gradientUnits="userSpaceOnUse" gradientTransform="translate(27.7066 37.8393) scale(44.6914)">
<stop offset="0.64" stop-color="#8C3AAA" stop-opacity="0"/>
<stop offset="1" stop-color="#8C3AAA"/>
</radialGradient>
<clipPath id="clip0_1_96">
<rect width="40" height="40" fill="white"/>
</clipPath>
</defs>
</svg>
