<svg width="25" height="25" viewBox="0 0 25 25" fill="none" xmlns="http://www.w3.org/2000/svg">
<path d="M2.34247 2.38795C1.93541 2.24483 1.48942 2.4588 1.34632 2.86584C1.2032 3.27289 1.41717 3.71888 1.82422 3.86199L2.34247 2.38795ZM21.5185 10.2945L22.2837 10.4523L22.2847 10.4475L21.5185 10.2945ZM5.94592 10.1666V7.33159H4.38342V10.1666H5.94592ZM2.61456 2.4836L2.34247 2.38795L1.82422 3.86199L2.09631 3.95765L2.61456 2.4836ZM11.3932 16.927H16.9171V15.3645H11.3932V16.927ZM5.94592 7.33159C5.94592 6.59497 5.94699 5.98028 5.89291 5.48077C5.83694 4.96371 5.71568 4.49212 5.42195 4.06229L4.13189 4.94385C4.22591 5.08144 4.29852 5.27042 4.33949 5.64891C4.38236 6.04497 4.38342 6.56081 4.38342 7.33159H5.94592ZM2.09631 3.95765C2.79174 4.20215 3.24877 4.36418 3.58507 4.5292C3.90092 4.68417 4.04016 4.80962 4.13189 4.94385L5.42195 4.06229C5.12593 3.6291 4.73234 3.35166 4.27335 3.12646C3.83479 2.91127 3.27495 2.71579 2.61456 2.4836L2.09631 3.95765ZM4.38342 10.1666C4.38342 11.6797 4.39762 12.7707 4.54038 13.6042C4.6928 14.4941 4.99711 15.1313 5.5661 15.7314L6.69999 14.6564C6.36649 14.3047 6.1866 13.9602 6.08045 13.3405C5.96466 12.6643 5.94592 11.7177 5.94592 10.1666H4.38342ZM11.3932 15.3645C9.91739 15.3645 8.89337 15.3627 8.12184 15.2533C7.37725 15.1477 6.98388 14.9558 6.69999 14.6564L5.5661 15.7314C6.1847 16.3839 6.96888 16.668 7.90246 16.8003C8.80911 16.9289 9.96391 16.927 11.3932 16.927V15.3645ZM5.16467 7.15622H17.8008V5.59372H5.16467V7.15622ZM20.7533 10.1368L20.2328 12.6626L21.7631 12.978L22.2837 10.4523L20.7533 10.1368ZM17.8008 7.15622C18.6929 7.15622 19.478 7.15726 20.0976 7.22652C20.4055 7.26093 20.6359 7.30875 20.7978 7.36564C20.9659 7.42472 20.9927 7.47004 20.9793 7.45246L22.2177 6.49974C21.9729 6.18159 21.6288 6.00148 21.3158 5.8915C20.9966 5.77932 20.6355 5.71441 20.2713 5.6737C19.5465 5.59267 18.664 5.59372 17.8008 5.59372V7.15622ZM22.2847 10.4475C22.4609 9.56421 22.6106 8.82313 22.6473 8.22953C22.6849 7.6189 22.6154 7.01681 22.2177 6.49974L20.9793 7.45246C21.0439 7.53651 21.1152 7.68785 21.0877 8.13327C21.0592 8.59571 20.9377 9.21328 20.7524 10.1416L22.2847 10.4475ZM16.9171 16.927C17.7105 16.927 18.3764 16.9284 18.9131 16.8627C19.4712 16.7944 19.9801 16.6452 20.4244 16.2831L19.4373 15.0718C19.3069 15.1781 19.122 15.263 18.7233 15.3118C18.3033 15.3632 17.7497 15.3645 16.9171 15.3645V16.927ZM20.2328 12.6626C20.0647 13.478 19.9516 14.0201 19.8165 14.421C19.6882 14.8015 19.5677 14.9656 19.4373 15.0718L20.4244 16.2831C20.8687 15.921 21.1176 15.4527 21.2972 14.92C21.4699 14.4075 21.6029 13.7551 21.7631 12.978L20.2328 12.6626Z" fill="#F3F3E6"/>
<path fill-rule="evenodd" clip-rule="evenodd" d="M5.46896 20.3125C5.46896 21.6069 6.5183 22.6562 7.81271 22.6562C9.10714 22.6562 10.1565 21.6069 10.1565 20.3125C10.1565 19.018 9.10714 17.9688 7.81271 17.9688C6.5183 17.9688 5.46896 19.018 5.46896 20.3125ZM7.81271 21.0938C7.38124 21.0938 7.03146 20.744 7.03146 20.3125C7.03146 19.881 7.38124 19.5312 7.81271 19.5312C8.24419 19.5312 8.59396 19.881 8.59396 20.3125C8.59396 20.744 8.24419 21.0938 7.81271 21.0938Z" fill="#F3F3E6"/>
<path fill-rule="evenodd" clip-rule="evenodd" d="M14.844 20.3126C14.844 21.607 15.8933 22.6564 17.1877 22.6564C18.4821 22.6564 19.5315 21.607 19.5315 20.3126C19.5315 19.0181 18.4821 17.9689 17.1877 17.9689C15.8933 17.9689 14.844 19.0181 14.844 20.3126ZM17.1877 21.0939C16.7563 21.0939 16.4065 20.7441 16.4065 20.3126C16.4065 19.8812 16.7563 19.5314 17.1877 19.5314C17.6192 19.5314 17.969 19.8812 17.969 20.3126C17.969 20.7441 17.6192 21.0939 17.1877 21.0939Z" fill="#F3F3E6"/>
</svg>
