<svg width="50" height="50" viewBox="0 0 50 50" fill="none" xmlns="http://www.w3.org/2000/svg">
<path fill-rule="evenodd" clip-rule="evenodd" d="M0.813172 16.6408C0.813173 12.7806 3.93809 9.64901 7.79825 9.64078L40.9622 9.57007C44.834 9.56182 47.9771 12.6982 47.9771 16.5701V32.2057C47.9771 36.0835 44.8247 39.2223 40.9469 39.2056L7.78294 39.0624C3.92878 39.0457 0.813172 35.9166 0.813172 32.0624L0.813172 16.6408Z" fill="white"/>
<path fill-rule="evenodd" clip-rule="evenodd" d="M48.073 12.8608C48.073 10.5862 46.8909 9.45782 44.5979 9.45782H4.19217C3.04605 9.45782 2.20417 9.76233 1.64883 10.3891C1.0221 11.016 0.717346 11.822 0.717346 12.8608V35.9296C0.717346 36.9684 1.0221 37.7563 1.64883 38.401C2.29378 39.028 3.11768 39.3325 4.19217 39.3325H44.5979C46.8909 39.3325 48.073 38.1866 48.073 35.9298V12.8608ZM44.5979 9.9952C46.4963 9.9952 47.4637 10.9624 47.4637 12.8608V35.9296C47.4637 37.8457 46.4963 38.7949 44.5979 38.7949H4.19217C3.27866 38.7949 2.58031 38.5263 2.06091 37.989C1.52353 37.4693 1.25497 36.753 1.25497 35.9293V12.8608C1.25497 10.9624 2.20417 9.9952 4.19217 9.9952H44.5979Z" fill="#315881"/>
<path fill-rule="evenodd" clip-rule="evenodd" d="M4.5144 11.3205C3.74441 11.3205 3.2607 11.4458 2.99214 11.7146C2.75927 12.0191 2.65195 12.5205 2.65195 13.2548V18.2517H46.1384V13.2548C46.1384 11.9475 45.4932 11.3205 44.2038 11.3205H4.5144Z" fill="#315881"/>
<path fill-rule="evenodd" clip-rule="evenodd" d="M2.65195 35.4638C2.65195 36.7887 3.27867 37.4695 4.5144 37.4695H44.2038C45.4932 37.4695 46.1384 36.7889 46.1384 35.4638V30.4667H2.65195V35.4638Z" fill="#DFA43B"/>
<path fill-rule="evenodd" clip-rule="evenodd" d="M17.0519 20.3832C17.0519 20.6161 17.016 20.7951 16.9266 20.9206L13.7922 26.3834L13.5951 19.7206H8.58026L10.2638 20.5265C10.7472 20.831 10.9981 21.2249 10.9981 21.7265L11.4635 28.8015H13.9173L19.7922 19.7206H16.7834C16.9623 19.8818 17.0519 20.1324 17.0519 20.3832ZM37.3268 19.9891L37.5235 19.7203H34.4607C34.5681 19.8276 34.604 19.8815 34.604 19.9172C34.5678 20.0602 34.4962 20.1501 34.4607 20.2574L30.001 28.3886C29.8937 28.5319 29.7859 28.6575 29.6608 28.801H32.1862L32.0606 28.5322C32.0606 28.2993 32.1862 27.8697 32.4548 27.2607L32.9921 26.2576H35.5891C35.697 27.0995 35.7686 27.7981 35.8043 28.3178L35.5891 28.8012H38.7235L38.2578 28.1206L37.3268 19.9891ZM35.4638 24.9862H33.6011L35.195 21.9235L35.4638 24.9862ZM27.7265 19.2548C26.7596 19.2548 25.9354 19.5236 25.2011 20.0608C24.3949 20.5265 24.0011 21.1175 24.0011 21.8521C24.0011 22.694 24.2876 23.4283 24.8607 23.9833L26.5983 25.1831C27.2253 25.6312 27.5298 26.025 27.5298 26.3834C27.5298 26.7236 27.3681 27.0281 27.0641 27.261C26.7596 27.4939 26.4189 27.6012 25.9893 27.6012C25.3623 27.6012 24.2879 27.1537 22.8013 26.3298V27.9953C23.9654 28.6939 25.094 29.0523 26.1862 29.0523C27.2253 29.0523 28.1029 28.7655 28.8554 28.1208C29.6613 27.5296 30.0552 26.8315 30.0552 26.0612C30.0552 25.416 29.7684 24.8252 29.1237 24.1982L27.4577 22.9982C26.9031 22.5504 26.5983 22.1563 26.5983 21.8521C26.5983 21.1537 27.0102 20.7953 27.852 20.7953C28.4251 20.7953 29.267 21.1178 30.3951 21.7984L30.7358 20.061C29.7861 19.5234 28.8012 19.2548 27.7265 19.2548ZM21.0639 28.8012C21.0279 28.4251 20.9563 28.0849 20.9203 27.7265L23.1951 20.3832L23.7325 19.7206H20.4549C20.4908 19.8818 20.5265 20.0967 20.5624 20.2579C20.5624 20.4192 20.5624 20.6164 20.5265 20.7953L18.252 28.0669L17.7862 28.8015L21.0639 28.8012Z" fill="#315881"/>
</svg>
