<svg width="30" height="30" viewBox="0 0 30 30" fill="none" xmlns="http://www.w3.org/2000/svg">
<g clip-path="url(#clip0_60_5961)">
<path d="M25.2473 2.66269C25.653 3.06846 25.8052 4.13355 25.2473 4.89433L19.2625 12.5021L17.6903 14.5308C17.4874 14.7844 17.2845 15.0887 17.1831 15.4437C16.9295 16.0524 16.8281 16.661 16.9295 17.1682L11.8069 22.2907C10.9447 21.5807 9.82888 21.6821 9.0681 22.4429C8.66233 22.8994 8.05371 22.8487 7.648 22.4429L6.22791 21.0228L8.40878 18.8926L9.82888 17.4725L11.249 16.0524L12.6691 14.6323L14.0892 13.2122L24.8415 2.45984L25.2473 2.66269ZM22.3563 23.4573C22.8128 23.9138 22.7621 24.4717 22.3563 24.8774L18.2988 28.9349C17.5887 29.645 16.2193 30.2536 15.1543 29.1885C14.0892 28.1234 13.0241 23.4573 11.9083 22.3922C11.8576 22.3415 11.8068 22.2907 11.7561 22.24L16.8787 17.1175C16.8787 17.2189 16.9294 17.2696 16.9294 17.3711L17.8424 19.3491L19.4654 22.798C19.5161 22.6965 21.9506 23.0008 22.3563 23.4573Z" fill="#AE938D"/>
<path d="M12.7198 14.4801L11.2997 15.9002L9.8796 17.3203L8.4595 18.7404L6.27863 20.8706L4.50346 19.0955C4.3006 18.8926 4.3006 18.5883 4.50346 18.3854L19.2118 3.67705V2.2569L20.9869 0.48173L21.697 1.19181L22.4071 0.48173C22.61 0.278876 22.9143 0.278876 23.1172 0.48173L24.8923 2.2569L14.1399 13.0092L12.7198 14.4801Z" fill="#AAB1BA"/>
<path d="M16.5237 30C16.0165 30 15.4586 29.7971 15.0021 29.3407C14.4442 28.7828 13.8864 27.3627 13.3284 25.8411C12.8213 24.4717 12.2633 23.0009 11.7562 22.5444C11.4012 22.1894 10.9447 21.9865 10.4882 21.9865C10.0318 21.9865 9.5753 22.1893 9.27099 22.5444C8.76383 23.0515 8.00305 23.0515 7.49582 22.5444C7.39437 22.4429 7.39437 22.2908 7.49582 22.1894C7.59728 22.0879 7.74944 22.0879 7.85083 22.1894C8.20584 22.5444 8.61161 22.5444 8.91592 22.1894C9.37239 21.7329 9.93031 21.4793 10.4882 21.4793C10.9446 21.4793 11.4011 21.6315 11.7561 21.8851L15.2557 18.3855C15.3571 18.284 15.5093 18.284 15.6107 18.3855C15.7122 18.4869 15.7122 18.6391 15.6107 18.7405L12.1618 22.1894C12.7197 22.798 13.2269 24.1674 13.7848 25.6383C14.292 27.0076 14.8499 28.4785 15.3571 28.935C16.3715 29.9494 17.5887 29.2393 18.1466 28.6814L22.2041 24.6239C22.5591 24.2689 22.5591 23.9138 22.2041 23.5588C21.9505 23.3052 20.4289 23.0009 19.4653 22.8995C19.3638 22.8995 19.3131 22.8488 19.2624 22.7473L17.6902 19.3492L16.7772 17.4219C16.4729 16.5089 16.7772 15.241 17.538 14.2773L19.1103 12.2486L25.095 4.6408C25.5515 3.98148 25.3993 3.06855 25.095 2.76424L24.8922 2.56138L12.8719 14.5817L8.56085 18.8927L6.43068 21.0229C6.37998 21.0736 6.32922 21.0736 6.22782 21.0736C6.17712 21.0736 6.07567 21.0229 6.07567 21.0229L4.30056 19.2477C3.99625 18.9434 3.99625 18.4869 4.30056 18.1826L5.92357 16.5596L5.36565 16.0016C5.26419 15.9002 5.26419 15.748 5.36565 15.6466C5.4671 15.5452 5.61926 15.5452 5.72066 15.6466L6.27858 16.2046L18.9582 3.52495V2.20625C18.9582 2.15556 19.0089 2.0541 19.0089 2.0034L20.7841 0.228233C20.8856 0.126776 21.0377 0.126776 21.1391 0.228233L21.697 0.786156L22.255 0.228233C22.5593 -0.0760777 23.0157 -0.0760777 23.32 0.228233L25.5009 2.40911C26.0081 2.91627 26.1095 4.13352 25.5516 4.94505L19.719 12.35L20.1248 12.7557C20.7841 13.4151 21.1392 14.2266 21.1392 15.0888C21.1392 15.951 20.7842 16.7625 20.1248 17.4218L18.2989 19.2477L19.7698 22.3922C20.3784 22.4429 22.2043 22.6965 22.6607 23.153C23.2187 23.7109 23.2187 24.4209 22.6607 24.9282L18.6032 28.9857C17.9945 29.6449 17.2338 30 16.5237 30ZM6.43074 16.8132L4.65557 18.5883C4.55411 18.6898 4.55411 18.842 4.65557 18.9434L6.27858 20.5664L8.05375 18.7912L7.49582 18.2333C7.39437 18.1318 7.39437 17.9797 7.49582 17.8783C7.59728 17.7768 7.74944 17.7768 7.85083 17.8783L8.40876 18.4362L9.47384 17.3711L8.91592 16.8132C8.81446 16.7117 8.81446 16.5596 8.91592 16.4582C9.01738 16.3567 9.16953 16.3567 9.27093 16.4582L9.82885 17.0161L10.8939 15.951L10.336 15.3931C10.2346 15.2916 10.2346 15.1395 10.336 15.0381C10.4375 14.9366 10.5896 14.9366 10.691 15.0381L11.249 15.596L12.314 14.5309L11.7561 13.973C11.6547 13.8715 11.6547 13.7194 11.7561 13.618C11.8576 13.5165 12.0097 13.5165 12.1111 13.618L12.669 14.1759L13.7341 13.1108L13.1762 12.5529C13.0748 12.4514 13.0748 12.2993 13.1762 12.1979C13.2777 12.0964 13.4298 12.0964 13.5312 12.1979L14.0891 12.7558L24.4865 2.35841L22.8635 0.735398C22.7621 0.633941 22.6099 0.633941 22.5085 0.735398L21.7984 1.44548C21.697 1.54693 21.5448 1.54693 21.4434 1.44548L20.8855 0.887554L19.3639 2.40911V3.72781C19.3639 3.77851 19.3132 3.87996 19.3132 3.93066L6.43074 16.8132ZM17.3352 15.7481C17.1324 16.306 17.1324 16.8132 17.2845 17.2696L18.0453 18.8927L19.7697 17.1682C20.3276 16.6103 20.632 15.9003 20.632 15.1902C20.632 14.4801 20.3276 13.7701 19.7697 13.2122L19.4147 12.8572L17.9946 14.6324C17.8425 14.8352 17.6903 15.0381 17.5888 15.2917C17.7917 15.4438 18.2989 15.6467 19.2119 15.6467C19.364 15.6467 19.4655 15.7481 19.4655 15.9003C19.4655 16.0525 19.364 16.1539 19.2119 16.1539C18.1974 16.1539 17.6395 15.9509 17.3352 15.7481Z" fill="#51565F"/>
</g>
<defs>
<clipPath id="clip0_60_5961">
<rect width="30" height="30" fill="white"/>
</clipPath>
</defs>
</svg>
