<svg width="30" height="30" viewBox="0 0 30 30" fill="none" xmlns="http://www.w3.org/2000/svg">
<path d="M15.0029 1.91016L20.1563 4.27734C20.3379 4.35938 20.3291 4.6084 20.1387 4.67871L15.0088 6.5918L15.0029 1.91016Z" fill="#FF0000"/>
<path d="M15.2725 9.4043L14.6865 9.40137L14.707 2.2002C14.707 2.03906 14.8389 1.90723 15 1.90723C15.1611 1.90723 15.293 2.03906 15.293 2.2002L15.2725 9.4043Z" fill="#8A8A8A"/>
<path d="M1.85156 28.1455V10.1572C1.85156 9.72363 2.20313 9.375 2.63379 9.375L6.62109 9.38086C7.05176 9.38086 7.40332 9.73242 7.40332 10.1631V13.1309H11.9092V10.1631C11.9092 9.72949 12.2607 9.38086 12.6914 9.38086H16.9834C17.417 9.38086 17.7656 9.73242 17.7656 10.1631V13.1309H22.4443L22.4883 10.1455C22.4941 9.71777 22.8428 9.375 23.2705 9.375H27.3193C27.75 9.375 28.1016 9.72363 28.1016 10.1572L28.1309 28.1133L1.85156 28.1455Z" fill="#8A8A8A"/>
<path d="M18.1641 28.1133H11.8184V21.9316C11.8184 20.1797 13.2393 18.7588 14.9912 18.7588C16.7432 18.7588 18.1641 20.1797 18.1641 21.9316V28.1133Z" fill="#2C2C2C"/>
</svg>
