<svg width="30" height="30" viewBox="0 0 30 30" fill="none" xmlns="http://www.w3.org/2000/svg">
<path d="M25.3828 12.3047C25.1016 12.3047 24.8438 12.2109 24.7969 11.9297C24.6797 11.2266 24.4922 10.5 24.2109 10.0312C24.1875 10.0547 24.1641 10.0547 24.1172 10.0547C22.4297 10.0547 20.7891 10.7578 19.1016 10.7578H14.8828H10.6641C9.53907 10.7578 8.43751 10.7344 7.31251 10.7344H5.67189C5.60157 10.7344 5.5547 10.7344 5.50782 10.7813C5.41407 10.8516 5.43751 11.1797 5.34376 11.2969C5.22657 11.4844 5.03907 11.625 4.89845 11.7891C4.45314 12.2578 4.21876 12.9375 4.26564 13.5938C4.31251 14.0156 4.47657 14.4141 4.71095 14.7656C4.8047 14.9062 5.03907 15.0469 5.08595 15.2344C5.13282 15.4219 4.96876 15.6562 4.89845 15.8203C4.73439 16.2656 4.57032 16.8516 4.71095 17.3438C4.71095 17.3438 5.27345 16.8281 5.62501 16.7109C5.62501 16.7109 5.71876 16.9922 5.95314 17.3438C6.37501 17.9766 7.4297 18.3047 7.03126 19.1484C6.79689 19.6406 6.16407 19.8281 6.16407 19.8281C6.63282 20.3438 7.26564 20.3906 7.50001 20.3906H7.59376C7.78126 20.3906 7.92189 20.5312 8.03907 20.6484C9.35157 22.1016 10.2656 22.4062 14.9063 22.4062C19.5469 22.4062 20.4609 22.1016 21.7734 20.6484C21.8906 20.5078 22.0313 20.3906 22.2188 20.3906C22.2188 20.3906 22.4063 20.4141 22.6406 20.4141C22.9453 20.4141 23.3672 20.3672 23.7422 20.1797C23.7422 20.1797 22.8516 19.8047 22.8281 18.9609C22.8281 18.9609 23.1094 18.6797 23.625 18.6797C23.8359 18.6797 24.0703 18.7266 24.3516 18.8672C24.1406 17.7891 23.0391 17.5547 23.1094 17.5313C23.2266 17.3203 24.3281 16.9219 24.9141 14.7422C24.9844 14.4609 25.1016 13.8281 25.1016 13.8281C25.1016 13.8281 25.9922 13.6406 26.2031 12.1406C26.2031 12.1406 25.7578 12.3047 25.3828 12.3047Z" fill="url(#paint0_radial_60_5960)"/>
<path d="M27.1875 28.3594C27.1875 24.4453 21.0234 22.5 15.0234 22.5H15C9.02344 22.5 2.8125 24.2109 2.8125 28.3828V29.0859H3.51562L27.1875 29.1094V28.3594Z" fill="url(#paint1_linear_60_5960)"/>
<path d="M17.1328 21.1172H12.8672V23.4609C12.8672 24.5156 13.7344 25.3828 14.8125 25.3828H15.2109C16.2891 25.3828 17.1562 24.5156 17.1562 23.4609L17.1328 21.1172Z" fill="#709921"/>
<path d="M21.3984 11.8125H8.60156C7.21875 11.8125 6.09375 13.0078 6.09375 14.4844C6.09375 15.9609 7.21875 17.1562 8.60156 17.1562H21.4219C22.8047 17.1562 23.9297 15.9609 23.9297 14.4844C23.9062 13.0312 22.7812 11.8125 21.3984 11.8125Z" fill="#709921"/>
<path d="M15 2.60156C10.9219 2.60156 7.14844 6.96094 7.14844 13.2422C7.14844 19.4766 11.0391 22.5703 15 22.5703C18.9609 22.5703 22.8516 19.4766 22.8516 13.2422C22.8516 6.96094 19.0781 2.60156 15 2.60156Z" fill="#82CC2B"/>
<path d="M18.4219 18.6796C18.3281 18.5859 18.2344 18.4453 18.2344 18.3046C18.2578 18.0703 18.4687 17.9296 18.6797 17.8359C19.0781 17.6484 19.4766 17.4375 19.9219 17.3906C20.0859 17.3671 20.2734 17.3671 20.4141 17.4609C20.5781 17.5781 20.6719 17.789 20.6484 18C20.625 18.2109 20.5312 18.3984 20.3906 18.539C19.8281 19.2187 19.0547 19.289 18.4219 18.6796Z" fill="#709921"/>
<path d="M19.0781 19.6875C19.1484 19.7578 19.1719 19.875 19.1484 19.9922C19.125 20.1328 19.0078 20.2265 18.8906 20.3437C18.7969 20.414 18.7266 20.4843 18.6094 20.5312C18.4922 20.5781 18.375 20.5312 18.3047 20.4375C18.2813 20.3672 18.2813 20.2968 18.2813 20.25C18.2578 19.9218 18.3516 19.4531 18.7734 19.5C18.8906 19.5234 19.0078 19.5937 19.0781 19.6875Z" fill="#709921"/>
<path d="M9.96094 18.2344C9.86719 18.2578 9.75 18.2344 9.65625 18.1406C9.53907 18.0469 9.51563 17.9063 9.46875 17.7656C9.44532 17.6484 9.42188 17.5313 9.44532 17.4375C9.46875 17.3438 9.5625 17.2266 9.67969 17.2266C9.72657 17.2266 9.79688 17.25 9.84375 17.2734C10.125 17.4141 10.5234 17.7188 10.2656 18.0469C10.1719 18.1406 10.0781 18.2109 9.96094 18.2344Z" fill="#709921"/>
<path d="M13.2891 9.60937C13.4766 9.51562 13.6641 9.44531 13.8516 9.51562C14.0859 9.60937 14.2031 9.91406 14.1328 10.1719C14.0625 10.4297 13.875 10.6172 13.6875 10.7812C13.5703 10.875 13.4531 10.9688 13.2891 10.9922C13.1016 11.0156 12.8906 10.9219 12.7266 10.7812C12.1172 10.2187 12.7031 9.89062 13.2891 9.60937Z" fill="#709921"/>
<path d="M14.0859 16.6875C14.1094 16.6875 14.1328 16.7109 14.1562 16.7109H15.8203C15.8437 16.7109 15.8672 16.7109 15.8906 16.6875C16.0312 16.6172 16.125 16.4766 16.0547 16.3125C15.9844 16.1484 15.6562 15.6797 15 15.6797C14.3437 15.6797 14.0156 16.1484 13.9453 16.3125C13.875 16.4531 13.9453 16.6172 14.0859 16.6875Z" fill="#597718"/>
<path d="M17.4609 19.4531C17.4609 20.2031 16.3594 20.3438 15 20.3438C13.6406 20.3438 12.5391 20.2031 12.5391 19.4531C12.5391 18.7031 13.6406 17.625 15 17.625C16.3594 17.625 17.4609 18.7031 17.4609 19.4531Z" fill="#333333"/>
<path d="M15 20.3438C15.8203 20.3438 16.5703 20.2969 17.0156 20.0859C16.9687 19.4062 16.0781 18.8672 15 18.8672C13.9219 18.8672 13.0312 19.4062 12.9844 20.0859C13.4297 20.2969 14.1797 20.3438 15 20.3438Z" fill="#F05455"/>
<path d="M26.2734 11.2359C26.6297 9.44766 24.5648 8.05547 24.5226 8.03203C24.5906 7.96172 25.5234 6.94922 24.9141 5.41406L24.9023 5.42578C24.8976 5.41406 24.8953 5.40234 24.8906 5.39062L24.082 6.17812C23.8758 5.56875 23.3648 4.96406 22.732 4.575C22.2094 4.24688 21.607 4.07109 21.0234 4.16953C21.068 3.04453 20.1797 2.01562 19.125 1.64063C18.4453 1.40625 17.7422 1.3125 17.0625 1.3125C15.2109 1.3125 13.5 1.99219 12.6094 2.34375C12.4219 2.39062 12.2812 2.41406 12.1406 2.41406C11.2266 2.41406 11.0391 1.38281 11.0391 1.38281L11.018 1.39922C11.0156 1.38984 11.0156 1.38281 11.0156 1.38281C11.0156 1.38281 11.0062 1.39922 10.9898 1.425C10.8047 1.58906 10.1695 2.25469 10.5937 3.30469C10.5234 3.32812 10.4766 3.32812 10.4062 3.32812C9.30468 3.32812 8.62499 1.19531 8.62499 1.19531C6.89061 3.49219 8.53124 4.73438 8.53124 4.73438C8.53124 4.73438 8.29686 4.66406 7.96874 4.66406C7.5703 4.66406 7.05468 4.78125 6.65624 5.27344C6.30468 5.71875 6.39843 6.09375 6.04686 6.53906C5.96483 6.64453 5.83827 6.71484 5.6953 6.75703C5.27343 6.86016 4.71093 6.75 4.71093 6.75C4.71561 6.75937 4.7203 6.76875 4.72499 6.78047C4.70155 6.77578 4.68749 6.77344 4.68749 6.77344C5.10468 7.80234 6.01171 7.89141 6.20389 7.89844C5.97186 7.9875 5.79608 8.10703 5.66483 8.24531C5.03905 8.87813 5.36483 9.91172 5.36718 9.91406C5.5078 11.2688 3.51093 10.6641 3.51093 10.6641C4.50936 13.6406 6.79686 12.3047 6.79686 12.3281C6.65624 14.8359 7.45311 16.0781 7.45311 16.0781C7.45311 16.0781 7.4578 16.0617 7.46249 16.0336C7.46952 16.0477 7.47655 16.0547 7.47655 16.0547C7.47655 16.0547 8.43749 11.7188 8.34374 11.0625C8.34374 11.0625 10.1719 10.7109 12.2344 9.51562C13.6406 8.71875 14.5781 7.78125 16.1484 7.42969C16.4766 7.35938 16.7578 7.33594 17.0156 7.33594C17.6133 7.33594 18.0469 7.50234 18.3586 7.71562C18.8976 8.09766 19.0547 8.625 19.0547 8.625C19.0547 8.625 19.0617 8.62266 19.0781 8.625C19.0781 8.625 19.1086 8.61797 19.1625 8.61094C19.6125 8.57344 21.3469 8.60859 21.9375 11.2734C22.2187 12.5391 22.3359 14.6484 22.4766 15.9141C22.4742 15.9023 22.4812 15.8789 22.493 15.8484L22.5 15.9141C22.4812 15.7359 22.7039 15.4289 22.7742 15.2742C22.9711 14.8359 23.1516 14.3883 23.2805 13.9242C23.3461 13.6898 23.3719 13.4766 23.3906 13.2398C23.4094 13.0078 23.4562 12.9234 23.6742 12.8273C24.5648 12.4406 24.4406 11.6461 25.0945 11.2688C25.7484 10.8914 26.2734 11.2359 26.2734 11.2359Z" fill="url(#paint2_radial_60_5960)"/>
<path d="M10.9922 16.1953C9.84375 16.1953 8.92969 15.1406 8.92969 13.8281C8.92969 12.5156 9.86719 11.4609 10.9922 11.4609C12.1406 11.4609 13.0547 12.5156 13.0547 13.8281C13.0547 15.1406 12.1406 16.1953 10.9922 16.1953Z" fill="#4E6B17"/>
<path d="M10.9922 11.7891C11.9766 11.7891 12.9422 12.7477 12.9422 13.8961C12.9422 15.0445 12.232 16.0547 11.0227 16.0547C9.81328 16.0547 9.06094 14.9695 9.06094 13.8211C9.06094 12.6727 10.0313 11.7891 10.9922 11.7891ZM10.9922 11.1562C9.67969 11.1562 8.60156 12.3516 8.60156 13.8281C8.60156 15.3047 9.65625 16.5 10.9922 16.5C12.3047 16.5 13.3828 15.3047 13.3828 13.8281C13.3828 12.3516 12.3047 11.1562 10.9922 11.1562Z" fill="#709921"/>
<path d="M11.0391 15.2344C12.0617 15.2344 12.8906 14.3739 12.8906 13.3125C12.8906 12.2511 12.0617 11.3906 11.0391 11.3906C10.0165 11.3906 9.1875 12.2511 9.1875 13.3125C9.1875 14.3739 10.0165 15.2344 11.0391 15.2344Z" fill="white"/>
<path d="M11.0391 11.6484C11.9062 11.6484 12.6328 12.3984 12.6328 13.3125C12.6328 14.2266 11.9297 14.9766 11.0391 14.9766C10.1484 14.9766 9.44531 14.2266 9.44531 13.3125C9.44531 12.3984 10.1719 11.6484 11.0391 11.6484ZM11.0391 11.1328C9.86719 11.1328 8.92969 12.1172 8.92969 13.3125C8.92969 14.5078 9.86719 15.4922 11.0391 15.4922C12.2109 15.4922 13.1484 14.5078 13.1484 13.3125C13.1484 12.1172 12.2109 11.1328 11.0391 11.1328Z" fill="#709921"/>
<path d="M9.5203 24.436C9.37968 24.2719 9.21327 24.2227 9.05155 24.2016C8.80546 24.1688 8.59452 24.2274 8.47499 24.4055C8.2664 24.7172 8.19374 25.3172 7.60546 25.3828C7.22109 25.425 7.15312 24.0985 7.14843 23.5852C7.13202 21.7664 7.24218 20.9438 7.28671 20.7867C7.33359 20.6274 7.36874 20.3438 7.46952 20.1797C7.83984 20.1727 8.10702 19.8703 8.13749 19.5C8.16796 19.0992 7.45077 18.4453 6.65624 19.0102C6.2578 19.2938 5.78905 20.1117 5.74218 22.4555C5.74218 22.4555 5.65312 22.8094 5.47968 22.3735C5.30624 21.9375 5.01327 21.1313 5.38358 20.1938C5.62499 20.1985 5.8828 19.9781 5.89452 19.6008C5.91093 19.1274 5.48202 18.9188 5.17265 18.9516C4.86327 18.9844 4.24921 19.1297 4.0289 20.0063C3.90234 20.5078 3.91874 21.0235 3.91874 21.0235C3.91874 21.0235 3.34218 21.157 3.28124 21.2086C3.12187 21.3469 2.71405 21.6024 2.76327 22.5469C2.78437 22.9664 2.93202 23.4891 2.93202 23.4891C2.93202 23.4891 2.60624 23.6578 2.47968 23.8125C2.28984 24.0422 2.13515 24.3 2.06015 24.586C1.9289 25.0992 1.97812 25.6219 2.1328 26.1235C2.2289 26.4375 2.36249 26.7422 2.51484 27.0352C2.61562 27.2297 2.76327 27.4102 2.82421 27.6258C2.85234 27.7266 2.84765 27.8156 2.8289 27.907C2.81015 28.0055 2.63202 28.8164 2.57343 29.1117H5.87343C5.89687 29.011 5.93671 28.8891 5.96249 28.7883C6.0164 28.5844 6.44765 28.4695 6.61874 28.3758C7.69687 27.7922 8.8289 26.8899 9.46171 25.7297C9.67499 25.3406 9.80155 24.7641 9.5203 24.436ZM4.1414 23.3531L3.95859 22.3641L4.20702 22.2727C4.20702 22.2727 4.33124 22.5961 4.40624 23.0438C4.48124 23.4914 4.1414 23.3531 4.1414 23.3531Z" fill="#82CC2B"/>
<path d="M5.16328 27.5133C5.13047 27.5203 5.36953 26.8312 4.81406 26.1844C4.33594 25.6289 3.64453 25.8562 3.64453 25.8562C3.64453 25.8562 4.20469 25.9547 4.61719 26.4141C5.02969 26.8758 5.16328 27.5133 5.16328 27.5133Z" fill="#709921"/>
<path d="M3.63279 23.7C3.80389 23.8383 3.93983 24.0492 3.9117 24.2672C3.87889 24.525 3.62108 24.7078 3.36092 24.7359C3.10076 24.764 2.84764 24.675 2.60623 24.5742C2.78436 24.9211 3.13358 24.9234 3.13358 24.9234C3.13358 24.9234 3.33514 25.7742 3.44061 25.814L3.4617 24.975C3.4617 24.975 3.95389 25.0523 4.15545 24.3937C4.28201 23.9765 4.06639 23.6554 3.76404 23.5172C3.4617 23.3789 3.03279 23.5054 3.03279 23.5054C3.03279 23.5054 3.45936 23.5594 3.63279 23.7Z" fill="#709921"/>
<path d="M4.04764 21.2087C4.23514 21.2766 4.40624 21.3891 4.42499 21.6094C4.44843 21.8673 4.23514 22.1016 3.98905 22.186C3.74296 22.2704 3.47343 22.2376 3.21796 22.1907C3.43593 22.4368 3.72655 22.411 3.75468 22.4696C3.79218 22.5493 3.77108 22.9829 3.9328 23.229C4.01483 23.3532 4.22577 23.3743 4.22577 23.3743C4.22577 23.3743 3.98671 23.0016 4.03124 22.4555C4.03124 22.4555 4.22811 22.4016 4.36874 22.3126C4.58436 22.1766 4.67343 21.9212 4.69218 21.6798C4.72499 21.2438 4.31483 21.061 4.01718 21.0305C3.57186 20.9837 3.28124 21.211 3.28124 21.211C3.28124 21.211 3.83671 21.1313 4.04764 21.2087Z" fill="#709921"/>
<path d="M2.82889 27.9141C3.16873 28.1367 3.69139 28.2258 4.05233 28.1883C3.59998 28.0781 2.98123 27.6539 2.67654 27.3024C2.73748 27.4055 2.79608 27.5086 2.82654 27.6235C2.85467 27.7242 2.84998 27.8133 2.83123 27.9047C2.83123 27.9071 2.82889 27.9117 2.82889 27.9141Z" fill="#709921"/>
<path d="M4.81406 28.5587C5.03671 28.7555 5.54531 28.8704 5.94843 28.8352L5.96249 28.786C5.99765 28.6524 6.19218 28.5587 6.37265 28.4813C5.97656 28.6173 5.2289 28.6196 4.81406 28.5587Z" fill="#709921"/>
<path d="M4.68516 20.0133C4.68047 20.0203 4.68047 20.0297 4.68281 20.0367C4.70391 20.2031 4.79766 20.3601 4.9336 20.4586C5.03203 20.5289 5.14922 20.5664 5.26875 20.5711C5.29453 20.4469 5.32969 20.3226 5.38125 20.1914C5.15391 20.1984 4.92656 20.1375 4.73672 20.0133C4.72266 20.0062 4.69688 19.9969 4.68516 20.0133Z" fill="#709921"/>
<path d="M6.76639 19.8516C6.76405 20.0719 6.88358 20.2781 7.0453 20.4281C7.12733 20.5055 7.22577 20.5711 7.33358 20.6109C7.36639 20.4656 7.40389 20.2992 7.47186 20.182C7.36639 20.1797 7.26092 20.1539 7.16483 20.1117C7.01717 20.0484 6.89061 19.95 6.76639 19.8516Z" fill="#709921"/>
<path d="M8.35313 24.6351C8.21251 24.9469 8.06954 25.3289 7.60547 25.3804C7.55391 25.3851 7.50938 25.3664 7.46719 25.3289C7.49532 25.7039 7.54454 26.1562 7.47422 26.5031C7.96172 26.0062 8.33438 25.4226 8.35313 24.6351Z" fill="#709921"/>
<path d="M18.9141 16.1953C17.7656 16.1953 16.8516 15.1406 16.8516 13.8281C16.8516 12.5156 17.7891 11.4609 18.9141 11.4609C20.0625 11.4609 20.9766 12.5156 20.9766 13.8281C20.9766 15.1406 20.0625 16.1953 18.9141 16.1953Z" fill="#4E6B17"/>
<path d="M18.9141 11.7891C19.8984 11.7891 20.8641 12.7477 20.8641 13.8961C20.8641 15.0445 20.1539 16.0547 18.9445 16.0547C17.7375 16.0547 16.9828 14.9695 16.9828 13.8211C16.9828 12.6727 17.9531 11.7891 18.9141 11.7891ZM18.9141 11.1562C17.6016 11.1562 16.5234 12.3516 16.5234 13.8281C16.5234 15.3047 17.5781 16.5 18.9141 16.5C20.2266 16.5 21.3047 15.3047 21.3047 13.8281C21.3047 12.3516 20.2266 11.1562 18.9141 11.1562Z" fill="#709921"/>
<path d="M18.9609 15.2344C19.9835 15.2344 20.8125 14.3739 20.8125 13.3125C20.8125 12.2511 19.9835 11.3906 18.9609 11.3906C17.9383 11.3906 17.1094 12.2511 17.1094 13.3125C17.1094 14.3739 17.9383 15.2344 18.9609 15.2344Z" fill="white"/>
<path d="M18.9609 11.6484C19.8281 11.6484 20.5547 12.3984 20.5547 13.3125C20.5547 14.2266 19.8516 14.9766 18.9609 14.9766C18.0703 14.9766 17.3672 14.2266 17.3672 13.3125C17.3672 12.3984 18.0938 11.6484 18.9609 11.6484ZM18.9609 11.1328C17.7891 11.1328 16.8516 12.1172 16.8516 13.3125C16.8516 14.5078 17.7891 15.4922 18.9609 15.4922C20.1328 15.4922 21.0703 14.5078 21.0703 13.3125C21.0703 12.1172 20.1328 11.1328 18.9609 11.1328Z" fill="#709921"/>
<path d="M20.6156 25.7274C21.2484 26.8875 22.3805 27.7899 23.4586 28.3735C23.6297 28.4672 24.0633 28.5821 24.1149 28.786C24.1406 28.8868 24.1805 29.0086 24.2039 29.1094H27.5039C27.443 28.8141 27.2672 28.0032 27.2484 27.9047C27.232 27.8157 27.2274 27.7243 27.2531 27.6235C27.3117 27.4079 27.4594 27.2297 27.5625 27.0329C27.7148 26.7399 27.8484 26.4375 27.9445 26.1211C28.0992 25.6196 28.1484 25.0946 28.0172 24.5836C27.9422 24.2954 27.7875 24.0375 27.5977 23.8102C27.4711 23.6579 27.1453 23.4868 27.1453 23.4868C27.1453 23.4868 27.293 22.9641 27.3141 22.5446C27.3633 21.6 26.9555 21.3446 26.7961 21.2063C26.7352 21.1524 26.1586 21.0211 26.1586 21.0211C26.1586 21.0211 26.175 20.5055 26.0484 20.0039C25.8281 19.1274 25.2141 18.9821 24.9047 18.9493C24.5953 18.9164 24.1664 19.125 24.1828 19.5985C24.1969 19.9735 24.4524 20.1961 24.6938 20.1914C25.0641 21.1289 24.7734 21.9375 24.5977 22.3711C24.4242 22.8047 24.3352 22.4532 24.3352 22.4532C24.2883 20.1094 23.8195 19.2914 23.4211 19.0079C22.6266 18.443 21.9094 19.0969 21.9399 19.4977C21.968 19.868 22.2375 20.1704 22.6078 20.1774C22.7109 20.3414 22.7461 20.625 22.7906 20.7844C22.8352 20.9391 22.9453 21.7641 22.9289 23.5829C22.9242 24.0961 22.8563 25.425 22.4719 25.3805C21.8836 25.3149 21.8133 24.7149 21.6023 24.4032C21.4828 24.225 21.2719 24.1688 21.0258 24.1993C20.8641 24.2204 20.6977 24.2696 20.557 24.4336C20.2781 24.7641 20.4024 25.3407 20.6156 25.7274ZM25.6734 23.0438C25.7484 22.5961 25.8727 22.2727 25.8727 22.2727L26.1211 22.3641L25.9383 23.3532C25.9383 23.3532 25.5961 23.4891 25.6734 23.0438Z" fill="#82CC2B"/>
<path d="M24.9141 27.5133C24.9469 27.5203 24.7078 26.8312 25.2633 26.1844C25.7414 25.6289 26.4328 25.8562 26.4328 25.8562C26.4328 25.8562 25.8727 25.9547 25.4602 26.4141C25.05 26.8758 24.9141 27.5133 24.9141 27.5133Z" fill="#709921"/>
<path d="M26.4445 23.7001C26.2734 23.8384 26.1375 24.0493 26.1656 24.2673C26.1984 24.5251 26.4562 24.7079 26.7164 24.736C26.9742 24.7665 27.2297 24.6751 27.4711 24.5743C27.293 24.9212 26.9437 24.9235 26.9437 24.9235C26.9437 24.9235 26.7422 25.7743 26.6367 25.8142L26.6156 24.9751C26.6156 24.9751 26.1234 25.0524 25.9219 24.3939C25.7953 23.9767 26.0109 23.6556 26.3133 23.5173C26.6156 23.379 27.0445 23.5056 27.0445 23.5056C27.0445 23.5056 26.6203 23.5595 26.4445 23.7001Z" fill="#709921"/>
<path d="M26.0297 21.2087C25.8422 21.2766 25.6711 21.3891 25.6523 21.6094C25.6289 21.8673 25.8422 22.1016 26.0883 22.186C26.3344 22.2704 26.6039 22.2376 26.8594 22.1907C26.6414 22.4368 26.3508 22.411 26.3227 22.4696C26.2852 22.5493 26.3062 22.9829 26.1445 23.229C26.0625 23.3532 25.8516 23.3743 25.8516 23.3743C25.8516 23.3743 26.0906 23.0016 26.0461 22.4555C26.0461 22.4555 25.8492 22.4016 25.7086 22.3126C25.493 22.1766 25.4039 21.9212 25.3852 21.6798C25.3523 21.2438 25.7625 21.061 26.0602 21.0305C26.5055 20.9837 26.7961 21.211 26.7961 21.211C26.7961 21.211 26.2406 21.1313 26.0297 21.2087Z" fill="#709921"/>
<path d="M27.2508 27.9141C26.9109 28.1367 26.3883 28.2258 26.0273 28.1883C26.4797 28.0781 27.0984 27.6539 27.4031 27.3024C27.3422 27.4055 27.2836 27.5086 27.2531 27.6235C27.225 27.7242 27.2297 27.8133 27.2484 27.9047C27.2484 27.9071 27.2484 27.9117 27.2508 27.9141Z" fill="#709921"/>
<path d="M25.2633 28.5587C25.0406 28.7555 24.532 28.8704 24.1289 28.8352L24.1148 28.786C24.0797 28.6524 23.8852 28.5587 23.7047 28.4813C24.1008 28.6173 24.8484 28.6196 25.2633 28.5587Z" fill="#709921"/>
<path d="M25.3922 20.0133C25.3969 20.0203 25.3969 20.0297 25.3945 20.0367C25.3734 20.2031 25.2797 20.3601 25.1438 20.4586C25.0453 20.5289 24.9281 20.5664 24.8086 20.5711C24.7828 20.4469 24.7477 20.3226 24.6961 20.1914C24.9234 20.1984 25.1508 20.1375 25.3406 20.0133C25.357 20.0062 25.3828 19.9969 25.3922 20.0133Z" fill="#709921"/>
<path d="M23.3133 19.8516C23.3156 20.0719 23.1961 20.2781 23.0344 20.4281C22.9523 20.5055 22.8539 20.5711 22.7461 20.6109C22.7133 20.4656 22.6758 20.2992 22.6078 20.182C22.7133 20.1797 22.8188 20.1539 22.9148 20.1117C23.0602 20.0484 23.1891 19.95 23.3133 19.8516Z" fill="#709921"/>
<path d="M21.7242 24.6353C21.8649 24.947 22.0078 25.329 22.4719 25.3806C22.5235 25.3853 22.568 25.3665 22.6102 25.329C22.5821 25.704 22.5328 26.1563 22.6031 26.5032C22.118 26.0063 21.743 25.4228 21.7242 24.6353Z" fill="#709921"/>
<defs>
<radialGradient id="paint0_radial_60_5960" cx="0" cy="0" r="1" gradientUnits="userSpaceOnUse" gradientTransform="translate(14.7942 12.6267) scale(11.5927 10.4879)">
<stop offset="0.818" stop-color="#802828"/>
<stop offset="1" stop-color="#BD5151"/>
</radialGradient>
<linearGradient id="paint1_linear_60_5960" x1="15" y1="23.2741" x2="15" y2="28.8323" gradientUnits="userSpaceOnUse">
<stop offset="0.004" stop-color="#F78C1F"/>
<stop offset="1" stop-color="#ED6D23"/>
</linearGradient>
<radialGradient id="paint2_radial_60_5960" cx="0" cy="0" r="1" gradientUnits="userSpaceOnUse" gradientTransform="translate(15.0696 13.0987) scale(12.9366 14.0219)">
<stop offset="0.623" stop-color="#802828"/>
<stop offset="1" stop-color="#BD5151"/>
</radialGradient>
</defs>
</svg>
