<svg width="30" height="30" viewBox="0 0 30 30" fill="none" xmlns="http://www.w3.org/2000/svg">
<g clip-path="url(#clip0_60_5962)">
<path d="M29.8271 10.0251L24.0335 4.23145C23.483 3.68096 22.7364 3.3717 21.9578 3.3717H8.04211C7.26363 3.3717 6.51697 3.68096 5.96654 4.23145L0.172793 10.0251C-0.0575977 10.2555 -0.0575977 10.6292 0.172793 10.8596L3.29684 13.9836C3.52723 14.214 3.90088 14.214 4.13127 13.9836L6.22723 11.8877C6.4483 11.6666 6.82623 11.8231 6.82623 12.1358V25.7556C6.82623 26.2376 7.21699 26.6284 7.69904 26.6284H22.3009C22.7829 26.6284 23.1737 26.2376 23.1737 25.7556V12.1358C23.1737 11.8232 23.5517 11.6666 23.7727 11.8877L25.8687 13.9836C26.0991 14.214 26.4727 14.214 26.7031 13.9836L29.8271 10.8596C30.0575 10.6291 30.0575 10.2556 29.8271 10.0251Z" fill="#99DAEA"/>
<path d="M10.5769 3.37158C10.5769 5.81447 12.5573 7.79494 15.0002 7.79494C17.4431 7.79494 19.4235 5.81453 19.4235 3.37158H10.5769Z" fill="#6DABE4"/>
<path opacity="0.25" d="M12.3083 3.37158C12.3083 4.85822 13.5135 6.06338 15.0001 6.06338C16.4868 6.06338 17.6919 4.85822 17.6919 3.37158H12.3083Z" fill="black"/>
<path d="M23.1737 19.2306H6.82629V22.1843H23.1737V19.2306Z" fill="#FF6361"/>
<path d="M23.1737 13.8085H6.82629V16.7622H23.1737V13.8085Z" fill="#FF6361"/>
<path opacity="0.1" d="M8.96109 25.3062C8.47904 25.3062 8.08828 24.9155 8.08828 24.4334V9.37892C8.08828 9.06633 7.71035 8.90976 7.48928 9.13084L4.23908 12.3696C4.00869 12.6 3.63504 12.6 3.40465 12.3696L0.616523 9.58142L0.172793 10.0252C-0.0575977 10.2555 -0.0575977 10.6292 0.172793 10.8596L3.29684 13.9836C3.52723 14.214 3.90088 14.214 4.13127 13.9836L6.22723 11.8877C6.4483 11.6667 6.82623 11.8232 6.82623 12.1358V25.7556C6.82623 26.2376 7.21699 26.6284 7.69904 26.6284H22.3009C22.7829 26.6284 23.1737 26.2376 23.1737 25.7556V25.3063H8.96109V25.3062Z" fill="black"/>
</g>
<defs>
<clipPath id="clip0_60_5962">
<rect width="30" height="30" fill="white"/>
</clipPath>
</defs>
</svg>
