<svg width="60" height="60" viewBox="0 0 60 60" fill="none" xmlns="http://www.w3.org/2000/svg">
<path d="M37.3085 31.1184C35.1081 31.1184 33.2751 32.6734 32.8889 34.7131H29.4615C29.0755 32.6734 27.2424 31.1184 25.0419 31.1184C22.5619 31.1184 20.5442 33.1787 20.5442 35.6587C20.5442 38.1388 22.5619 40.0848 25.0419 40.0848C27.2424 40.0848 29.0754 38.4328 29.4615 36.333H32.8889C33.275 38.4328 35.108 40.106 37.3085 40.106C39.7886 40.106 41.8063 38.0923 41.8063 35.6122C41.8063 33.1321 39.7886 31.1184 37.3085 31.1184ZM25.042 38.5635C23.4639 38.5635 22.1798 37.2793 22.1798 35.7013C22.1798 34.1232 23.4639 32.8391 25.042 32.8391C26.6201 32.8391 27.9042 34.1233 27.9042 35.7013C27.9042 37.2793 26.6201 38.5635 25.042 38.5635ZM37.3085 38.5635C35.7305 38.5635 34.4463 37.2793 34.4463 35.7013C34.4463 34.1232 35.7305 32.8391 37.3085 32.8391C38.8866 32.8391 40.1707 34.1233 40.1707 35.7013C40.1707 37.2793 38.8866 38.5635 37.3085 38.5635Z" fill="#FF7415"/>
<path d="M49.7651 32.0545V25.8881C49.7651 17.2144 44.1257 9.89697 35.9667 7.73278V6.26162C35.9667 4.90877 34.9814 3.69661 33.6287 3.69661H32.8109C32.1822 3.69661 31.6099 3.93628 31.1754 4.32648C30.7408 3.93628 30.1685 3.69661 29.5398 3.69661H28.722C27.3692 3.69661 26.1278 4.90877 26.1278 6.26162V7.72096C19.9485 9.45158 14.5444 14.5547 12.8595 21.3184C11.937 21.609 11.3715 21.8033 11.2549 21.8411C9.25602 22.5075 8.26025 23.5103 8.26025 24.9865C8.26025 26.7901 9.74533 28.1738 11.549 28.1738H12.1494V31.8334H12.402C11.3798 33.0933 10.7312 34.1416 10.7312 35.6073C10.7312 38.0402 12.5113 40.1121 14.8372 40.4953C15.2317 49.1662 22.4091 56.1219 31.1754 56.1219C39.9417 56.1219 47.1191 49.2014 47.5136 40.5306C49.8396 40.1472 51.5102 38.1283 51.5102 35.6953C51.5101 34.2471 51.025 32.9534 49.7651 32.0545ZM32.8109 5.25643H33.6287C34.0794 5.25643 34.2268 5.81077 34.2268 6.26162V7.37006C33.8069 7.22877 33.027 7.13602 31.7671 7.10021V6.26162C31.7671 5.81083 32.36 5.25643 32.8109 5.25643ZM27.6876 6.26162C27.6876 5.81083 28.2712 5.25643 28.722 5.25643H29.5398C29.9905 5.25643 30.1473 5.81077 30.1473 6.26162V7.09673C29.3674 7.13194 28.4675 7.22133 27.6876 7.36052V6.26162ZM31.1037 8.71493C40.5731 8.71493 48.2053 16.4187 48.2053 25.8881V31.0809C47.7253 30.8989 47.2155 30.7947 46.6413 30.7947C43.9357 30.7947 41.7705 28.5035 41.7705 25.7979C41.7705 24.445 40.7058 23.2544 39.353 23.2544H36.0167C36.0552 23.2544 36.082 22.8051 36.082 22.5268C36.082 19.3703 33.5141 16.8475 30.3576 16.8475C27.6863 16.8475 19.495 19.2564 14.7531 20.7169C16.9774 13.5761 23.5046 8.71493 31.1037 8.71493ZM9.91331 25.0244C9.91331 24.5752 10.1098 23.9357 11.8012 23.3719C16.9913 21.6884 27.5488 18.5167 30.3575 18.5167C32.6119 18.5167 34.4464 20.3109 34.4464 22.5654C34.4464 24.8199 32.6119 26.6141 30.3575 26.6141H11.5488C10.6468 26.614 9.91331 25.9265 9.91331 25.0244ZM13.7691 28.1739H14.609V30.8629C14.609 30.9103 14.1891 30.9828 13.7691 31.0762V28.1739ZM46.7129 38.7927H45.6856V39.7901C45.6856 47.9067 39.0738 54.51 30.9572 54.51C22.8406 54.51 16.2289 47.9067 16.2289 39.7901V38.7927H15.6377C13.8341 38.7927 12.3666 37.3267 12.3666 35.523C12.3666 33.7194 13.8341 32.2534 15.6377 32.2534H16.2289V28.1739H30.3575C32.6353 28.1739 34.6007 26.914 35.5217 24.8742H39.353C39.8038 24.8742 40.1707 25.3392 40.1707 25.79C40.1707 29.3973 43.1056 32.3812 46.7129 32.3812C48.5165 32.3812 49.984 33.7833 49.984 35.5869C49.984 37.3906 48.5166 38.7927 46.7129 38.7927Z" fill="#262626"/>
<path d="M26.2687 35.7013C26.2687 35.0249 25.7184 34.4747 25.042 34.4747C24.3656 34.4747 23.8153 35.0249 23.8153 35.7013C23.8153 36.3777 24.3656 36.928 25.042 36.928C25.7184 36.928 26.2687 36.3777 26.2687 35.7013ZM37.3085 34.4747C36.6321 34.4747 36.0818 35.0249 36.0818 35.7013C36.0818 36.3777 36.6321 36.928 37.3085 36.928C37.9849 36.928 38.5351 36.3777 38.5351 35.7013C38.5352 35.0249 37.9849 34.4747 37.3085 34.4747ZM24.8678 45.5146C24.8678 48.8966 27.6051 51.6478 30.9871 51.6479C34.3692 51.6479 37.1064 48.8967 37.1064 45.5146V43.3522H24.8678V45.5146ZM31.1753 49.885C29.4317 49.885 27.9201 49.1115 27.1741 47.4317H35.1765C34.4304 49.1115 32.9188 49.885 31.1753 49.885ZM26.5476 44.912H35.4866V45.5145C35.4866 45.6525 35.6645 45.6919 35.6523 45.6919H26.6982C26.686 45.6919 26.5476 45.6525 26.5476 45.5145V44.912ZM29.7273 39.2726H32.187V40.8324H29.7273V39.2726ZM31.1753 12.3949C35.0741 12.3949 38.7816 14.0811 41.3471 17.0216C41.8706 17.6222 42.3402 18.2677 42.7506 18.9506C42.8234 19.0717 42.9264 19.1718 43.0494 19.2413C43.1724 19.3108 43.3113 19.3472 43.4526 19.3471C43.5959 19.3471 43.7409 19.3096 43.8731 19.2305C44.26 18.9978 44.3854 18.4954 44.153 18.1081C43.6928 17.3429 43.1663 16.6196 42.5794 15.9467C39.7033 12.6501 35.5465 10.7594 31.1753 10.7594C30.7237 10.7594 30.3576 11.1255 30.3576 11.5771C30.3575 12.0287 30.7236 12.3949 31.1753 12.3949ZM15.2288 34.4747C14.5523 34.4747 14.0021 35.0249 14.0021 35.7013C14.0021 36.3777 14.5523 36.928 15.2288 36.928C15.9052 36.928 16.4554 36.3777 16.4554 35.7013C16.4554 35.0249 15.9052 34.4747 15.2288 34.4747ZM47.1217 34.4747C46.4453 34.4747 45.895 35.0249 45.895 35.7013C45.895 36.3777 46.4453 36.928 47.1217 36.928C47.7981 36.928 48.3483 36.3777 48.3483 35.7013C48.3484 35.0249 47.7981 34.4747 47.1217 34.4747Z" fill="#262626"/>
<path d="M30.3575 20.1637C29.5398 20.1637 22.1798 21.7992 22.1798 21.7992C20.9532 22.2081 20.5443 22.4334 20.5443 23.3367C20.5443 24.24 21.2766 24.8742 22.1798 24.8742H30.3575C31.7125 24.8742 32.8108 23.8739 32.8108 22.519C32.8108 21.164 31.7124 20.1637 30.3575 20.1637Z" fill="#E0E0E0"/>
</svg>
