<svg width="60" height="60" viewBox="0 0 60 60" fill="none" xmlns="http://www.w3.org/2000/svg">
<path d="M48.5467 47.6901C43.2245 51.7881 36.6889 53.9966 29.9719 53.9669C23.2549 53.9373 16.7391 51.6711 11.4532 47.5263L19.4229 43.7905C19.8024 43.612 20.1667 43.4028 20.512 43.1648C20.6169 43.0928 20.7217 43.0174 20.8216 42.9388C21.689 42.2751 22.4029 41.4321 22.9147 40.4673C23.3017 39.726 23.5587 38.9239 23.6747 38.0958C23.7547 37.5584 23.7952 37.0159 23.7959 36.4727C23.7959 35.906 23.7811 35.3393 23.7615 34.7726C23.75 34.4025 23.7402 34.0307 23.7353 33.6605C23.7287 33.1419 23.7233 32.6227 23.7189 32.103L24.0465 32.2667L24.8981 32.7073L25.2928 32.7745L29.8591 33.5508L34.956 34.4188L35.11 39.6599L35.1607 41.373L35.1853 42.2051V42.2558L35.3491 42.3246L37.1622 43.0616L48.5467 47.6901Z" fill="#F2A196"/>
<path d="M35.1838 42.2558C34.6208 42.3527 34.0417 42.263 33.5345 42.0003L23.7616 34.0127C23.7501 33.6425 23.7403 34.029 23.7354 33.6589C23.7288 33.1402 23.7234 32.6211 23.719 32.1013L24.0466 32.2651L24.8982 32.7057L25.2929 32.7728L29.8592 33.5492L34.9561 34.4172L35.11 39.6582L35.1608 41.3714L35.1854 42.2034V42.2558H35.1838Z" fill="#E88870"/>
<path d="M48.5467 47.6901C43.2245 51.7881 36.6889 53.9966 29.9719 53.9669C23.2549 53.9373 16.7391 51.6711 11.4532 47.5263L19.4229 43.7905C19.8024 43.612 20.1667 43.4028 20.512 43.1648C20.6169 43.0927 20.7217 43.0174 20.8216 42.9388C24.6787 45.6838 29.9426 47.415 34.4958 45.366C35.58 44.8747 36.5758 44.082 37.1654 43.0633L48.5467 47.6901Z" fill="url(#paint0_linear_384_2641)"/>
<path d="M45.615 14.8878C45.6003 14.9844 45.5823 15.0794 45.561 15.1744C45.4473 15.6614 45.2648 16.1296 45.0189 16.5649L45.0058 16.5879C44.9124 16.7517 44.8125 16.9154 44.7044 17.0792C44.4176 17.4997 44.1047 17.9017 43.7676 18.283L43.5661 18.5074C43.4302 18.6597 43.2926 18.8088 43.155 18.9562C43.8838 18.7924 44.5897 19.4721 44.7191 20.2058C44.8485 20.9396 44.5553 21.6799 44.1934 22.335C43.5595 23.4946 42.6456 24.266 41.8415 25.2732C41.2388 26.0234 40.9046 26.9111 40.2479 27.6284L40.1987 27.6825C38.4643 29.5037 35.7258 29.9296 33.446 30.7075C32.6271 30.9892 23.7468 33.5115 23.7468 34.0618C23.7468 33.9422 22.8771 33.0791 21.7814 32.0293C17.8506 28.2967 16.5584 22.5299 18.8972 17.5837C21.4113 12.2607 27.1207 8.46263 32.5583 6.6381C34.2584 6.06813 36.1877 5.68488 37.7993 6.47431C39.4109 7.26374 40.2135 9.71229 38.877 10.9079C39.7176 10.2719 40.7631 9.96812 41.8136 10.0546C42.7839 10.1154 43.699 10.5269 44.3883 11.2125C44.9343 11.7611 45.3268 12.4433 45.5266 13.191C45.6747 13.7442 45.7048 14.3223 45.615 14.8878Z" fill="#845161"/>
<path d="M45.615 14.8878C45.6002 14.9844 45.5822 15.0794 45.5609 15.1744C45.5462 15.2023 45.5315 15.2317 45.5167 15.2645C45.3316 15.6871 45.2465 16.1424 45.0254 16.5649L45.0123 16.5879C44.9189 16.7516 44.819 16.9154 44.7109 17.0792C44.4269 17.5017 44.1139 17.9039 43.7741 18.283L43.5661 18.5074C43.4301 18.6597 43.2926 18.8088 43.155 18.9562C43.8838 18.7924 44.5897 19.4721 44.7191 20.2058C44.8485 20.9396 44.5553 21.6799 44.1934 22.335C43.5595 23.4946 42.6456 24.266 41.8414 25.2732C41.2387 26.0234 40.9046 26.9111 40.2478 27.6284C39.4853 26.7217 38.9998 25.6147 38.8491 24.4396C38.5805 22.2678 38.7443 19.9012 38.6706 17.7032C38.6248 16.3209 38.1793 16.0654 39.008 14.9468C39.6744 14.1246 40.4452 13.3929 41.301 12.7701C41.9692 12.3295 42.829 12.2607 43.6267 12.3737C44.3217 12.4688 44.9775 12.752 45.5233 13.1927C45.6722 13.7451 45.7035 14.3226 45.615 14.8878Z" fill="#69303A"/>
<path d="M22.1073 30.2997C23.645 30.2997 24.8916 29.0531 24.8916 27.5154C24.8916 25.9777 23.645 24.7311 22.1073 24.7311C20.5696 24.7311 19.323 25.9777 19.323 27.5154C19.323 29.0531 20.5696 30.2997 22.1073 30.2997Z" fill="#F2A196"/>
<path d="M22.9901 30.0082C24.3668 30.0082 25.4828 28.8921 25.4828 27.5154C25.4828 26.1387 24.3668 25.0227 22.9901 25.0227C21.6134 25.0227 20.4973 26.1387 20.4973 27.5154C20.4973 28.8921 21.6134 30.0082 22.9901 30.0082Z" fill="#E88870"/>
<path d="M23.0278 24.8949L23.7485 34.2305L34.6302 40.5885C35.3829 40.8693 36.2132 40.8602 36.9596 40.5629C37.7061 40.2657 38.3153 39.7016 38.669 38.9802C40.2348 35.7733 42.7472 30.7092 42.4164 28.8257C41.925 26.0414 40.6148 25.0587 40.6148 25.0587C40.7971 23.9668 40.9784 22.8782 41.1585 21.7929C41.3649 20.5629 41.6286 19.2788 41.3223 18.0423C40.9735 16.6239 39.9023 16.0195 39.0212 14.9599C36.702 17.9473 32.8892 19.6359 29.5595 21.3474C27.843 22.2384 23.0278 24.8949 23.0278 24.8949Z" fill="#F2A196"/>
<path d="M31.0728 24.5346C32.0718 24.5346 32.0718 26.0709 31.0728 26.079H31.0269C30.0278 26.079 30.0278 24.5428 31.0269 24.5346H31.0728Z" fill="#00214E"/>
<path d="M39.2815 24.3069C40.2101 24.3151 40.2101 25.7318 39.2815 25.74H39.2405C38.3135 25.74 38.3135 24.3151 39.2405 24.3069H39.2815Z" fill="#00214E"/>
<path d="M35.2345 24.0907C35.2214 24.1481 37.4226 30.0082 37.4226 30.0082L34.4844 30.1507" stroke="#00214E" stroke-width="0.163782" stroke-miterlimit="10"/>
<path d="M28.277 22.9574C29.7932 22.6443 31.3527 22.6005 32.8842 22.828" stroke="#00214E" stroke-width="0.163782" stroke-miterlimit="10"/>
<path d="M37.9484 22.9754C38.8845 22.7582 39.8492 22.6913 40.8064 22.7772" stroke="#00214E" stroke-width="0.163782" stroke-miterlimit="10"/>
<path d="M31.4741 31.7901C31.4963 31.7545 31.5257 31.7239 31.5604 31.7003C31.595 31.6766 31.6343 31.6604 31.6755 31.6527C31.7168 31.645 31.7592 31.646 31.8001 31.6555C31.841 31.6651 31.8794 31.6831 31.913 31.7083C32.2537 31.9474 32.876 32.4551 33.7605 32.6304C34.9659 32.8711 36.0108 32.388 36.2614 32.6991C36.4023 32.8744 36.2303 33.0873 35.9011 33.3543C35.5561 33.612 35.1631 33.7982 34.7452 33.902C34.3272 34.0058 33.8928 34.0251 33.4673 33.9586C32.3077 33.7408 31.4364 32.3978 31.4364 31.9212C31.4376 31.875 31.4506 31.8299 31.4741 31.7901Z" fill="white"/>
<defs>
<linearGradient id="paint0_linear_384_2641" x1="11.4532" y1="48.4517" x2="48.5467" y2="48.4517" gradientUnits="userSpaceOnUse">
<stop stop-color="#16243F"/>
<stop offset="1" stop-color="#6878B1"/>
</linearGradient>
</defs>
</svg>
