<svg width="26" height="26" viewBox="0 0 26 26" fill="none" xmlns="http://www.w3.org/2000/svg">
<path fill-rule="evenodd" clip-rule="evenodd" d="M11.375 4.25C7.43997 4.25 4.25 7.43997 4.25 11.375C4.25 15.31 7.43997 18.5 11.375 18.5C15.31 18.5 18.5 15.31 18.5 11.375C18.5 7.43997 15.31 4.25 11.375 4.25ZM2.25 11.375C2.25 6.3354 6.3354 2.25 11.375 2.25C16.4146 2.25 20.5 6.33539 20.5 11.375C20.5 13.5383 19.7472 15.5259 18.4892 17.0899L23.456 22.0418C23.8472 22.4318 23.8481 23.0649 23.4582 23.456C23.0682 23.8472 22.4351 23.8481 22.044 23.4582L17.0733 18.5024C15.5119 19.7524 13.5307 20.5 11.375 20.5C6.33539 20.5 2.25 16.4146 2.25 11.375Z" fill="#F3F3E6"/>
</svg>
