<svg width="30" height="30" viewBox="0 0 30 30" fill="none" xmlns="http://www.w3.org/2000/svg">
<path d="M3 6.75C3 6.33579 3.33579 6 3.75 6H26.25C26.6642 6 27 6.33579 27 6.75C27 7.16421 26.6642 7.5 26.25 7.5H3.75C3.33579 7.5 3 7.16421 3 6.75ZM3 14.25C3 13.8358 3.33579 13.5 3.75 13.5H26.25C26.6642 13.5 27 13.8358 27 14.25C27 14.6642 26.6642 15 26.25 15H3.75C3.33579 15 3 14.6642 3 14.25ZM3.75 21C3.33579 21 3 21.3358 3 21.75C3 22.1642 3.33579 22.5 3.75 22.5H26.25C26.6642 22.5 27 22.1642 27 21.75C27 21.3358 26.6642 21 26.25 21H3.75Z" fill="#C3E2E5"/>
</svg>
