<svg width="100" height="72" viewBox="0 0 100 72" fill="none" xmlns="http://www.w3.org/2000/svg">
<rect width="100" height="71.9828" fill="#C3E2E5"/>
<path d="M0 35.9914V71.9828H50H100V35.9914V-7.62939e-06H50H0V35.9914ZM54.9147 4.55684C66.5116 6.08609 76.2016 13.825 80.3566 24.8696C82.4496 30.4614 82.8062 37.2117 81.3023 43.1742C80.8992 44.7652 79.9225 47.5457 79.6744 47.7928C79.4264 48.0554 79.5194 47.6693 79.938 46.6498C80.5271 45.1978 81.3488 42.062 81.6589 40.1157C82.0155 37.7678 82.0155 33.2882 81.6589 30.9402C80.6512 24.5143 77.7674 18.7062 73.2558 14.0722C65.7519 6.34869 55.1473 3.01215 44.7287 5.11293C38.6822 6.33324 33.4729 9.12914 28.9767 13.5933C25.3023 17.2233 22.8062 21.1778 21.3178 25.7192C19.1628 32.2378 19.1783 39.1271 21.3798 45.4912C22.2171 47.8855 22.2481 47.9937 22.062 47.8083C21.5039 47.2676 20.186 42.7108 19.7674 39.9303C19.4264 37.6751 19.4264 33.3808 19.7674 31.1256C21.845 17.2697 32.7907 6.45682 46.6667 4.55684C48.7132 4.2788 52.8062 4.2788 54.9147 4.55684ZM55.1938 5.96252C60.1085 6.65762 64.6512 8.5576 68.9767 11.6933C70.4496 12.7746 73.5814 15.8949 74.8217 17.5323C78.7907 22.7688 80.8372 28.9321 80.8217 35.528C80.8062 39.2043 80.3566 41.9539 79.2248 45.3522C78.8217 46.5262 78.6822 46.7888 78.5271 46.6498C78.3566 46.5107 78.4031 46.2327 78.7752 45.136C79.8605 41.9693 80.3411 38.9881 80.3411 35.6052C80.3411 27.5728 77.3643 20.3282 71.7829 14.8136C65.969 9.06735 58.8992 6.14788 50.8527 6.14788C42.8062 6.14788 35.6279 9.11369 29.9225 14.8291C24.3101 20.4209 21.3953 27.4647 21.3643 35.4507C21.3488 39.0344 21.7829 41.7376 22.8682 44.9661C23.2713 46.1555 23.3488 46.5107 23.1938 46.6343C22.8372 46.9433 21.6744 43.097 21.1628 39.8531C20.6047 36.393 20.8527 31.6817 21.814 28.1134C23.2713 22.5834 25.6589 18.4282 29.5969 14.5047C32.9457 11.199 36.1085 9.14458 40.3876 7.5381C45.0233 5.79259 50.155 5.25195 55.1938 5.96252ZM61.4729 25.024L72.0155 35.528L66.4961 41.0271L60.9922 46.5107L60.1395 46.4644L59.3023 46.4181L64.7287 40.9653L70.1395 35.5125L60.8062 26.2135L51.4729 16.9144V26.6923V36.4548H50.8527H50.2326V26.6923V16.9144L40.8992 26.2135L31.5659 35.5125L36.9767 40.9653L42.3721 46.4181L41.5504 46.4644L40.7132 46.5107L35.2093 41.0271L29.6899 35.528L40.2326 25.024C46.031 19.2469 50.8062 14.5201 50.8527 14.5201C50.8992 14.5201 55.6744 19.2469 61.4729 25.024ZM46.2171 17.2079C45.5349 17.8876 45.0388 18.2428 44.6047 18.3819C43.6279 18.6599 40.8682 20.1428 39.7829 20.9769C37.1783 22.9696 35.1628 25.5956 33.8605 28.7004C33.3643 29.8744 33.1008 30.2915 32.3411 31.0175L31.4419 31.8979L31.5504 31.2801C31.7674 30.0289 32.4651 28.1443 33.2868 26.5224C35.6279 21.9501 39.6434 18.5209 44.5736 16.8681C47.2868 15.9567 47.4264 15.9876 46.2171 17.2079ZM57.1318 16.8681C58.7442 17.4087 60.5736 18.2737 61.7519 19.0615C63.7674 20.4054 66.031 22.6452 67.3643 24.6379C68.5736 26.4606 69.8295 29.4573 70.155 31.2801L70.2636 31.8979L69.3333 30.9866C68.8062 30.4768 68.3101 29.8589 68.2016 29.5963C67.6744 28.237 67.0543 26.9086 66.6202 26.198C65.4884 24.3444 63.6434 22.3054 61.845 20.9152C60.8372 20.1428 58.0465 18.6445 57.1008 18.3819C56.6512 18.2428 56.1705 17.8876 55.4729 17.1924L54.4961 16.1884L55.1163 16.2965C55.4574 16.3429 56.3721 16.6055 57.1318 16.8681ZM33.5814 41.6913C33.9535 42.6953 35.0853 44.9043 35.6434 45.7229L36.124 46.4181L35.3333 46.4644C34.8992 46.4953 34.4651 46.4335 34.3566 46.3563C34.2481 46.2636 33.7674 45.4449 33.3023 44.5335C32.4651 42.9271 31.7674 41.0425 31.5504 39.7759L31.4419 39.158L32.3721 40.0694C32.9767 40.6564 33.4109 41.2279 33.5814 41.6913ZM69.8605 40.9807C69.6434 41.7685 69.0078 43.2978 68.4341 44.4409L67.3953 46.4953H66.4806C65.7829 46.4953 65.5969 46.449 65.6744 46.2945C65.7364 46.2018 66.0155 45.7538 66.2946 45.3368C66.9302 44.3327 67.8139 42.5718 68.062 41.784C68.2791 41.1352 70.1085 39.0808 70.2016 39.3743C70.2326 39.4669 70.0775 40.1929 69.8605 40.9807ZM78.2946 47.7311V48.3489H87.2868C95.1783 48.3489 96.2791 48.3798 96.2791 48.5806C96.2791 48.7814 95.1473 48.8123 87.0543 48.8123H77.8295V48.1945V47.5766H50.8527H23.876V48.1945V48.8123H14.6512C6.55814 48.8123 5.42636 48.7814 5.42636 48.5806C5.42636 48.3798 6.52713 48.3489 14.4186 48.3489H23.4109V47.7311V47.1132H50.8527H78.2946V47.7311ZM29.1473 53.6009C29.1473 55.3773 29.1318 55.4854 28.7597 55.8407C28.4031 56.2114 28.2791 56.2269 26.6667 56.2269H24.9612V55.8407C24.9612 55.47 24.9767 55.47 26.6357 55.4236L28.2946 55.3773L28.3411 53.5546L28.3876 51.7473H28.7597H29.1473V53.6009ZM30.8527 53.122C30.8527 53.8789 30.8992 54.6204 30.9457 54.7594C31.1163 55.1765 31.876 55.4545 32.8682 55.4545H33.7985V53.6009C33.7985 51.7782 33.7985 51.7473 34.155 51.7473C34.4961 51.7473 34.4961 51.7627 34.4961 53.7863C34.4961 54.9139 34.4341 55.9334 34.3721 56.0261C34.186 56.3196 32.093 56.2887 31.3178 55.9797C30.3411 55.5935 30.0775 55.0066 30.0775 53.2302C30.0775 51.7473 30.0775 51.7473 30.4651 51.7473C30.8527 51.7473 30.8527 51.7627 30.8527 53.122ZM39.5349 52.1334V52.5196H37.907H36.2636L36.3101 53.9407L36.3566 55.3773L37.9535 55.4236C39.5194 55.47 39.5349 55.47 39.5349 55.8407C39.5349 56.2269 39.5349 56.2269 37.9225 56.2269C36.5426 56.2269 36.2636 56.1805 35.907 55.9025C35.5194 55.5935 35.5039 55.5472 35.5039 53.7708C35.5039 52.7668 35.5504 51.9017 35.6124 51.8554C35.6589 51.7936 36.5736 51.7473 37.6279 51.7473H39.5349V52.1334ZM44.8062 52.1334V52.5042L42.9922 52.5505L41.1628 52.5968V53.9871V55.3773L42.6047 55.4236L44.031 55.47V54.9139V54.3732H42.9457C41.8915 54.3732 41.8605 54.3578 41.8605 53.9871V53.5854L43.3023 53.6318L44.7287 53.6781V54.9139V56.1496L42.8992 56.196C41.1473 56.2423 41.0698 56.2269 40.6977 55.8561C40.3411 55.5009 40.3101 55.3618 40.3101 53.9871C40.3101 52.6277 40.3411 52.4733 40.6977 52.1334C41.0543 51.7627 41.1628 51.7473 42.9457 51.7473H44.8062V52.1334ZM49.876 52.257C50.2791 52.6586 50.3101 52.7668 50.3101 53.9871C50.3101 55.2074 50.2791 55.3155 49.876 55.7171C49.5039 56.1033 49.3178 56.1496 48.2481 56.196C47.5969 56.2269 46.8682 56.1805 46.6357 56.0879C45.2558 55.5627 45.2093 52.4733 46.5581 51.9017C46.7442 51.8245 47.4729 51.7627 48.1705 51.7936C49.3333 51.8245 49.4884 51.8554 49.876 52.257ZM54.9612 53.3692C55.4729 54.2651 55.9535 54.9757 56.0155 54.9448C56.093 54.9293 56.5426 54.2188 57.0388 53.3692C57.6744 52.2416 58 51.8245 58.2171 51.8245C58.5116 51.8245 58.5271 51.9635 58.5736 54.018L58.6202 56.2269H58.2171C57.8295 56.2269 57.8295 56.2114 57.8295 54.8675V53.5237L57.0388 54.8675C56.5426 55.7326 56.155 56.2269 56 56.2269C55.8295 56.2269 55.4419 55.7171 54.9612 54.8675L54.186 53.5237L54.1395 54.8675C54.093 56.196 54.093 56.2269 53.7209 56.2269H53.3333V54.0952C53.3333 52.9212 53.3798 51.9017 53.4419 51.8554C53.7519 51.531 54.1085 51.8708 54.9612 53.3692ZM64 54.018L64.0465 56.2269H63.6434C63.3023 56.2269 63.2558 56.1651 63.2558 55.6862V55.1456H61.7829H60.3101V55.6862C60.3101 56.1651 60.2636 56.2269 59.907 56.2269H59.5039L59.5659 54.6976C59.5969 53.4464 59.6744 53.0757 59.938 52.7204C60.4961 51.9635 61.1473 51.7318 62.6357 51.7782L63.9535 51.8245L64 54.018ZM67.1628 53.3228L68.6667 54.9139L68.6822 53.3228V51.7473H69.0698H69.4574V53.9871C69.4574 56.8139 69.4264 56.8139 67.3953 54.6822C66.6047 53.8326 65.8915 53.1375 65.845 53.1375C65.7829 53.1375 65.7364 53.8326 65.7364 54.6822V56.2269H65.3488H64.9612V54.2342C64.9612 53.1375 65.0078 52.1334 65.0543 51.9944C65.2403 51.5001 65.6899 51.7782 67.1628 53.3228ZM71.3178 53.9871V56.2269H70.9302H70.5426V53.9871V51.7473H70.9302H71.3178V53.9871ZM76.6512 51.9944C76.6977 52.1334 76.7442 53.1375 76.7442 54.2342V56.2269H76.3566C76.0155 56.2269 75.969 56.1651 75.969 55.6862V55.1456H74.4961H73.0233V55.6862C73.0233 56.1651 72.9767 56.2269 72.6357 56.2269C72.2481 56.2269 72.2481 56.2269 72.2481 54.7903C72.2481 53.1684 72.4961 52.5968 73.3643 52.0562C74.0465 51.6546 76.4961 51.5928 76.6512 51.9944ZM39.2248 53.9871C39.2248 54.3732 39.2093 54.3732 37.907 54.3732C36.6047 54.3732 36.5891 54.3732 36.5891 53.9871C36.5891 53.6009 36.6047 53.6009 37.907 53.6009C39.2093 53.6009 39.2248 53.6009 39.2248 53.9871ZM23.845 59.7333L23.8915 60.3975H50.8527H77.8139L77.8605 59.7333L77.907 59.0846L87.1008 59.0382C95.1938 59.0073 96.2791 59.0382 96.2791 59.239C96.2791 59.4398 95.1938 59.4707 87.3023 59.4707H78.3101L78.2636 60.1195L78.2171 60.7837H50.8527H23.4884L23.4419 60.1195L23.3953 59.4707H14.4031C6.51163 59.4707 5.42636 59.4398 5.42636 59.239C5.42636 59.0382 6.51163 59.0073 14.6202 59.0382L23.7985 59.0846L23.845 59.7333ZM34.9767 62.2048C36.4806 63.1008 39.4264 64.4446 41.2868 65.0471C47.7364 67.1633 55.2868 67.0088 61.5504 64.6455C63.3643 63.9503 65.6124 62.8845 66.8682 62.1122C67.4574 61.7569 68.0155 61.4943 68.093 61.5097C68.186 61.5406 67.7829 61.8496 67.1938 62.2048C62.0155 65.2633 56.7287 66.7308 50.8527 66.7308C44.9922 66.7308 40.062 65.3715 34.6977 62.2975C34.031 61.9113 33.4884 61.5715 33.4884 61.5406C33.4884 61.3707 33.8915 61.5406 34.9767 62.2048ZM38 62.0349C43.938 65.0007 51.8295 65.7422 58.4496 63.9503C60.4961 63.3943 62.2946 62.7455 63.7054 62.0349C64.3411 61.7105 65.0078 61.4788 65.3023 61.4943C65.7519 61.5097 65.6124 61.6024 64.2636 62.2666C59.845 64.4138 55.7364 65.356 50.8372 65.356C46.9147 65.356 43.8605 64.8154 40.3101 63.5024C38.8217 62.9463 36.124 61.6951 36.124 61.5715C36.124 61.3244 37.0388 61.5406 38 62.0349Z" fill="#202126"/>
<path d="M46.6202 52.7976C46.2326 53.2147 46.2636 54.8521 46.6357 55.1919C47.0543 55.5781 49.0078 55.5626 49.3489 55.1765C49.7365 54.7594 49.7054 53.122 49.3333 52.7822C48.9147 52.396 46.9613 52.4115 46.6202 52.7976Z" fill="#202126"/>
<path d="M60.7597 52.9676C60.4651 53.2765 60.3101 53.5854 60.3101 53.8944V54.3732H61.7829H63.2558V53.4464V52.5196H62.2325C61.3178 52.5196 61.1783 52.5659 60.7597 52.9676Z" fill="#202126"/>
<path d="M73.4728 52.9676C73.1782 53.2765 73.0232 53.5854 73.0232 53.8944V54.3732H74.4961H75.9689V53.4464V52.5196H74.9457C74.0309 52.5196 73.8914 52.5659 73.4728 52.9676Z" fill="#202126"/>
</svg>
