<svg width="40" height="40" viewBox="0 0 40 40" fill="none" xmlns="http://www.w3.org/2000/svg">
<path d="M16.1014 14.218C16.59 13.7303 16.5907 12.9388 16.1029 12.4502C15.6152 11.9617 14.8237 11.961 14.3352 12.4487L16.1014 14.218ZM7.45018 19.322C6.96161 19.8099 6.96095 20.6012 7.44868 21.0899C7.93643 21.5784 8.72788 21.579 9.21645 21.0914L7.45018 19.322ZM9.18861 19.2952C8.68516 18.8227 7.89411 18.848 7.42175 19.3514C6.94938 19.8549 6.97456 20.6459 7.47801 21.1182L9.18861 19.2952ZM14.363 27.5782C14.8665 28.0507 15.6575 28.0254 16.1299 27.522C16.6022 27.0185 16.5771 26.2275 16.0736 25.7552L14.363 27.5782ZM8.33331 18.9567C7.64296 18.9567 7.08331 19.5164 7.08331 20.2067C7.08331 20.897 7.64296 21.4567 8.33331 21.4567V18.9567ZM25.6166 20.2067V21.4567H25.6205L25.6166 20.2067ZM30.4166 26.2252C30.4185 26.9155 30.9798 27.4735 31.6701 27.4717C32.3605 27.4699 32.9185 26.9085 32.9166 26.2182L30.4166 26.2252ZM14.3352 12.4487L7.45018 19.322L9.21645 21.0914L16.1014 14.218L14.3352 12.4487ZM7.47801 21.1182L14.363 27.5782L16.0736 25.7552L9.18861 19.2952L7.47801 21.1182ZM8.33331 21.4567H25.6166V18.9567H8.33331V21.4567ZM25.6205 21.4567C26.8888 21.4529 28.1068 21.953 29.0063 22.8474L30.769 21.0745C29.3991 19.7127 27.5445 18.9509 25.6128 18.9567L25.6205 21.4567ZM29.0063 22.8474C29.9058 23.7417 30.4131 24.9567 30.4166 26.2252L32.9166 26.2182C32.9113 24.2867 32.1388 22.4364 30.769 21.0745L29.0063 22.8474Z" fill="#C3E2E5"/>
</svg>
