<svg width="40" height="40" viewBox="0 0 40 40" fill="none" xmlns="http://www.w3.org/2000/svg">
<path d="M40 20C40 31.0457 31.0457 40 20 40C8.9543 40 0 31.0457 0 20C0 8.9543 8.9543 0 20 0C31.0457 0 40 8.9543 40 20Z" fill="#D9D9D9"/>
<path fill-rule="evenodd" clip-rule="evenodd" d="M20 11.3C17.9566 11.3 16.3 12.9565 16.3 15C16.3 17.0434 17.9566 18.7 20 18.7C22.0434 18.7 23.7 17.0434 23.7 15C23.7 12.9565 22.0434 11.3 20 11.3ZM15.7 15C15.7 12.6251 17.6252 10.7 20 10.7C22.3748 10.7 24.3 12.6251 24.3 15C24.3 17.3748 22.3748 19.3 20 19.3C17.6252 19.3 15.7 17.3748 15.7 15Z" fill="black"/>
<path fill-rule="evenodd" clip-rule="evenodd" d="M12.7 29C12.7 24.9683 15.9683 21.7 20 21.7C24.0317 21.7 27.3 24.9683 27.3 29C27.3 29.1656 27.1657 29.3 27 29.3H13C12.8343 29.3 12.7 29.1656 12.7 29ZM13.3066 28.7H26.6934C26.5365 25.1389 23.5998 22.3 20 22.3C16.4002 22.3 13.4635 25.1389 13.3066 28.7Z" fill="black"/>
</svg>
