<svg width="30" height="30" viewBox="0 0 30 30" fill="none" xmlns="http://www.w3.org/2000/svg">
<path d="M13.75 23.75H7.75C6.34987 23.75 5.6498 23.75 5.11503 23.4775C4.64461 23.2379 4.26216 22.8554 4.02249 22.385C3.75 21.8503 3.75 21.1501 3.75 19.75V10.25C3.75 8.84987 3.75 8.1498 4.02249 7.61503C4.26216 7.14461 4.64461 6.76216 5.11503 6.52249C5.6498 6.25 6.34987 6.25 7.75 6.25H22.25C23.6501 6.25 24.3503 6.25 24.885 6.52249C25.3554 6.76216 25.7379 7.14461 25.9775 7.61503C26.25 8.1498 26.25 8.84987 26.25 10.25V13.9976M25.7584 10.3279L19.4374 14.5419C17.8336 15.611 17.0318 16.1456 16.165 16.3534C15.399 16.5369 14.6005 16.5369 13.8346 16.3534C12.9679 16.1456 12.166 15.611 10.5622 14.5419L3.93432 10.1233M26.25 18.9584C26.25 18.9584 25.8676 18.9584 25.7812 18.9584C24.5008 18.9584 23.3846 18.4405 22.5 17.5C21.6154 18.4405 20.4994 18.9584 19.2188 18.9584C19.1325 18.9584 18.75 18.9584 18.75 18.9584C18.75 18.9584 18.75 19.9305 18.75 20.4974C18.75 23.2651 20.3435 25.5906 22.5 26.25C24.6565 25.5906 26.25 23.2651 26.25 20.4974C26.25 19.9305 26.25 18.9584 26.25 18.9584Z" stroke="#F3F3E6" stroke-width="2" stroke-linecap="round" stroke-linejoin="round"/>
</svg>
