<svg width="80" height="80" viewBox="0 0 80 80" fill="none" xmlns="http://www.w3.org/2000/svg">
<path d="M23.3162 23.3545C22.0144 24.6563 22.0144 26.7668 23.3162 28.0686L35.2666 40.019L23.3162 51.9697C22.0144 53.2713 22.0144 55.382 23.3162 56.6837C24.6179 57.9853 26.7285 57.9853 28.0302 56.6837L39.9806 44.733L51.9313 56.6837C53.233 57.9853 55.3436 57.9853 56.6453 56.6837C57.947 55.382 57.947 53.2713 56.6453 51.9697L44.6946 40.019L56.6453 28.0686C57.947 26.7669 57.947 24.6563 56.6453 23.3546C55.3433 22.0528 53.233 22.0528 51.9313 23.3546L39.9806 35.305L28.0302 23.3545C26.7285 22.0528 24.6179 22.0528 23.3162 23.3545Z" fill="#F42308"/>
</svg>
