<svg width="30" height="30" viewBox="0 0 30 30" fill="none" xmlns="http://www.w3.org/2000/svg">
<path fill-rule="evenodd" clip-rule="evenodd" d="M8.125 13.375C7.22754 13.375 6.5 14.1025 6.5 15C6.5 15.8975 7.22754 16.625 8.125 16.625C9.02246 16.625 9.75 15.8975 9.75 15C9.75 14.1025 9.02246 13.375 8.125 13.375ZM3.5 15C3.5 12.4457 5.57068 10.375 8.125 10.375C10.6793 10.375 12.75 12.4457 12.75 15C12.75 17.5543 10.6793 19.625 8.125 19.625C5.57068 19.625 3.5 17.5543 3.5 15Z" fill="#F3F3E6"/>
<path fill-rule="evenodd" clip-rule="evenodd" d="M18.7289 7.26481C19.2039 7.94349 19.0389 8.87878 18.3602 9.35385L12.1102 13.7289C11.4315 14.2039 10.4962 14.0389 10.0212 13.3602C9.54609 12.6815 9.71114 11.7462 10.3898 11.2712L16.6398 6.89616C17.3185 6.42109 18.2538 6.58614 18.7289 7.26481Z" fill="#F3F3E6"/>
<path fill-rule="evenodd" clip-rule="evenodd" d="M10.0212 16.6398C10.4962 15.9611 11.4315 15.7961 12.1102 16.2712L18.3602 20.6462C19.0389 21.1212 19.2039 22.0565 18.7289 22.7352C18.2538 23.4139 17.3185 23.5789 16.6398 23.1039L10.3898 18.7289C9.71114 18.2538 9.54609 17.3185 10.0212 16.6398Z" fill="#F3F3E6"/>
<path fill-rule="evenodd" clip-rule="evenodd" d="M20.625 21.5C19.7276 21.5 19 22.2276 19 23.125C19 24.0224 19.7276 24.75 20.625 24.75C21.5224 24.75 22.25 24.0224 22.25 23.125C22.25 22.2276 21.5224 21.5 20.625 21.5ZM16 23.125C16 20.5707 18.0707 18.5 20.625 18.5C23.1793 18.5 25.25 20.5707 25.25 23.125C25.25 25.6793 23.1793 27.75 20.625 27.75C18.0707 27.75 16 25.6793 16 23.125Z" fill="#F3F3E6"/>
<path fill-rule="evenodd" clip-rule="evenodd" d="M20.625 5.25C19.7275 5.25 19 5.97754 19 6.875C19 7.77246 19.7275 8.5 20.625 8.5C21.5225 8.5 22.25 7.77246 22.25 6.875C22.25 5.97754 21.5225 5.25 20.625 5.25ZM16 6.875C16 4.32068 18.0707 2.25 20.625 2.25C23.1793 2.25 25.25 4.32068 25.25 6.875C25.25 9.42932 23.1793 11.5 20.625 11.5C18.0707 11.5 16 9.42932 16 6.875Z" fill="#F3F3E6"/>
</svg>
