<svg width="30" height="30" viewBox="0 0 30 30" fill="none" xmlns="http://www.w3.org/2000/svg">
<path fill-rule="evenodd" clip-rule="evenodd" d="M17.727 3.30445C16.785 2.83345 15.6414 3.09612 14.9992 3.93084L17.727 3.30445ZM15.7918 4.54059C15.7918 4.5406 15.7918 4.54058 15.7918 4.54059L10.9147 10.8808C10.6458 11.2305 10.5 11.6592 10.5 12.1003V24.5H21.4899C22.2845 24.5 23.0038 24.0296 23.3223 23.3016L26.8323 15.2787C26.9429 15.0259 27 14.753 27 14.477V13.75C27 12.6454 26.1045 11.75 25 11.75H16.875C16.7192 11.75 16.5722 11.6773 16.4776 11.5535C16.3831 11.4296 16.3516 11.2688 16.3926 11.1184L17.9009 5.58803C18.0514 5.03614 17.7915 4.45472 17.2798 4.19888C16.766 3.94199 16.1421 4.08523 15.7918 4.54059ZM9.49996 24.5V13H3V24.5H9.49996ZM9.50164 12C9.52257 11.3738 9.73911 10.769 10.1221 10.2711L14.9992 3.93084M9.50164 12H2.5C2.22386 12 2 12.2238 2 12.5V25C2 25.2761 2.22386 25.5 2.5 25.5H21.4899C22.6818 25.5 23.7607 24.7944 24.2385 23.7024L27.7485 15.6795C27.9143 15.3003 28 14.891 28 14.477V13.75C28 12.0931 26.6568 10.75 25 10.75H17.5296L18.8656 5.85116C19.1416 4.83938 18.665 3.77347 17.727 3.30445" fill="#F3F3E6"/>
</svg>
