<svg width="30" height="31" viewBox="0 0 30 31" fill="none" xmlns="http://www.w3.org/2000/svg">
<path d="M18.75 11.4407H18.7625M18.75 19.0678C22.8921 19.0678 26.25 15.653 26.25 11.4407C26.25 7.22837 22.8921 3.8136 18.75 3.8136C14.6079 3.8136 11.25 7.22837 11.25 11.4407C11.25 11.7886 11.2729 12.1311 11.3173 12.4666C11.3902 13.0185 11.4267 13.2945 11.4022 13.469C11.3766 13.6509 11.344 13.7488 11.2559 13.9092C11.1713 14.0632 11.0221 14.2148 10.7239 14.5181L4.33579 21.0145C4.1196 21.2343 4.0115 21.3443 3.9342 21.4725C3.86566 21.5863 3.81516 21.7102 3.78454 21.84C3.75 21.9864 3.75 22.1418 3.75 22.4526V24.6611C3.75 25.373 3.75 25.729 3.88624 26.0009C4.00609 26.2401 4.19731 26.4345 4.43251 26.5564C4.6999 26.695 5.04994 26.695 5.75 26.695H7.92157C8.22731 26.695 8.38018 26.695 8.52404 26.6599C8.65159 26.6287 8.77351 26.5774 8.88535 26.5076C9.0115 26.429 9.1196 26.3191 9.33579 26.0993L15.7239 19.6029C16.0221 19.2996 16.1712 19.1479 16.3226 19.0619C16.4804 18.9722 16.5766 18.9391 16.7555 18.9131C16.9271 18.8881 17.1985 18.9252 17.7412 18.9994C18.0711 19.0446 18.4079 19.0678 18.75 19.0678Z" stroke="#F3F3E6" stroke-width="2" stroke-linecap="round" stroke-linejoin="round"/>
</svg>
