<svg width="30" height="30" viewBox="0 0 30 30" fill="none" xmlns="http://www.w3.org/2000/svg">
<path d="M5 26.25C5 21.8419 8.25964 18.1951 12.5 17.5886M24.8408 19.0048C24.7555 19.0099 24.6696 19.0125 24.5834 19.0125C23.3028 19.0125 22.1346 18.4405 21.25 17.5C20.3654 18.4405 19.1972 19.0124 17.9166 19.0124C17.8304 19.0124 17.7445 19.0098 17.6593 19.0046C17.5553 19.4816 17.5 19.9819 17.5 20.4974C17.5 23.2651 19.0935 25.5906 21.25 26.25C23.4065 25.5906 25 23.2651 25 20.4974C25 19.9819 24.9448 19.4816 24.8408 19.0048ZM18.75 8.75C18.75 11.5114 16.5114 13.75 13.75 13.75C10.9886 13.75 8.75 11.5114 8.75 8.75C8.75 5.98857 10.9886 3.75 13.75 3.75C16.5114 3.75 18.75 5.98857 18.75 8.75Z" stroke="#F3F3E6" stroke-width="2" stroke-linecap="round" stroke-linejoin="round"/>
</svg>
