<svg width="84" height="45" viewBox="0 0 84 45" fill="none" xmlns="http://www.w3.org/2000/svg">
<g clip-path="url(#clip0_48_3640)">
<path d="M0.107544 41.2539H2.3143V41.8482H0.954518V42.4898H2.23806V43.0934H0.954518V43.8178H2.36544V44.4303H0.107544V41.2539ZM78.1113 41.2539H80.5314V41.8886H79.7449V44.4303H78.8978V41.8886H78.1113V41.2539ZM70.9202 41.2539H71.9777L72.8983 43.1585C72.9293 43.2225 72.9663 43.3117 73.0081 43.4256C73.05 43.5399 73.0959 43.6793 73.1471 43.8444C73.1195 43.6877 73.1003 43.5443 73.0875 43.4132C73.0747 43.2817 73.0683 43.1624 73.0683 43.053V41.2539H73.8331V44.4303H72.78L71.824 42.4563C71.7787 42.3656 71.7378 42.267 71.7003 42.1601C71.6639 42.0537 71.6294 41.9374 71.5978 41.8122C71.6279 42.0014 71.6501 42.1754 71.6639 42.3341C71.6781 42.4927 71.685 42.6332 71.685 42.7539V44.4303H70.9202V41.2539ZM64.765 41.2539H66.9721V41.8482H65.6121V42.4898H66.8958V43.0934H65.6121V43.8178H67.0229V44.4303H64.765V41.2539ZM57.0999 41.2539H58.3303L58.8827 43.1629C58.9049 43.2393 58.9217 43.324 58.9355 43.4187C58.9493 43.5133 58.9591 43.6153 58.9655 43.7237C58.9758 43.6064 58.9892 43.498 59.0039 43.3985C59.0202 43.2994 59.0374 43.2146 59.0572 43.1447L59.6106 41.2539H60.8213V44.4303H60.0639V42.2976C60.0639 42.1961 60.0669 42.0916 60.0728 41.9822C60.0787 41.8733 60.0866 41.7575 60.0979 41.6338C60.0787 41.7289 60.0575 41.8206 60.0363 41.9078C60.0151 41.9945 59.992 42.0773 59.9678 42.1552L59.2873 44.4303H58.5639L57.8982 42.1921C57.8755 42.1153 57.8533 42.029 57.8321 41.9344C57.8109 41.8398 57.7907 41.7398 57.7725 41.6338C57.7828 41.7841 57.7907 41.9201 57.7971 42.0399C57.8035 42.1596 57.8065 42.2503 57.8065 42.3114V44.4303H57.0999V41.2539ZM50.2266 41.2539H51.2841L52.2046 43.1585C52.2357 43.2225 52.2726 43.3117 52.3145 43.4256C52.3564 43.5399 52.4022 43.6793 52.4535 43.8444C52.4259 43.6877 52.4067 43.5443 52.3938 43.4132C52.381 43.2822 52.3746 43.1624 52.3746 43.053V41.2539H53.1394V44.4303H52.0863L51.1304 42.4563C51.086 42.3651 51.0436 42.267 51.0067 42.1601C50.9697 42.0537 50.9357 41.9374 50.9042 41.8122C50.9342 42.0014 50.9559 42.1759 50.9697 42.3341C50.984 42.4927 50.9914 42.6337 50.9914 42.7539V44.4303H50.2266V41.2539ZM45.2595 41.2539H46.1065V44.4303H45.2595V41.2539ZM39.9204 41.9625L39.5092 43.154H40.318L39.9204 41.9625ZM39.4259 41.2539H40.4477L41.6503 44.4303H40.7453L40.5195 43.7572H39.2963L39.0597 44.4303H38.2212L39.4259 41.2539ZM32.4796 41.2539H34.9V41.8886H34.1132V44.4303H33.2662V41.8886H32.4796V41.2539ZM27.1283 41.8122V42.6263H27.4258C27.609 42.6263 27.7463 42.5938 27.8379 42.5272C27.9294 42.4607 27.9753 42.3612 27.9753 42.2281C27.9753 42.0857 27.9241 41.9802 27.8219 41.9132C27.7204 41.8457 27.5586 41.8122 27.3381 41.8122H27.1283ZM26.2988 41.2539H27.5616C27.9821 41.2539 28.2942 41.3219 28.4971 41.4584C28.7009 41.5949 28.8024 41.8024 28.8024 42.0808C28.8024 42.2868 28.749 42.4558 28.6414 42.5883C28.5337 42.7214 28.3789 42.8096 28.1766 42.8549C28.343 42.9155 28.4773 43.089 28.5788 43.3748C28.5788 43.3768 28.5788 43.3773 28.5788 43.3773L28.9588 44.4303H28.0759L27.7967 43.5606C27.7516 43.4211 27.6905 43.324 27.6135 43.2698C27.5358 43.2161 27.4152 43.1895 27.2511 43.1895H27.1283V44.4303H26.2988V41.2539ZM19.9948 41.2539H22.2015V41.8482H20.8418V42.4898H22.1253V43.0934H20.8418V43.8178H22.2527V44.4303H19.9948V41.2539ZM13.6195 41.2539H16.0399V41.8886H15.2532V44.4303H14.4062V41.8886H13.6195V41.2539ZM6.41153 41.2539H7.46908L8.38933 43.1585C8.42067 43.2225 8.45729 43.3117 8.49923 43.4256C8.54121 43.5399 8.58704 43.6793 8.63809 43.8444C8.61069 43.6877 8.59152 43.5443 8.57866 43.4132C8.56565 43.2817 8.55955 43.1624 8.55955 43.053V41.2539H9.32413V44.4303H8.27107L7.31499 42.4563C7.26995 42.3656 7.22875 42.267 7.1914 42.1601C7.15473 42.0537 7.12049 41.9374 7.08915 41.8122C7.11891 42.0014 7.14104 42.1754 7.15474 42.3341C7.16928 42.4927 7.17612 42.6332 7.17612 42.7539V44.4303H6.41153V41.2539Z" fill="black" stroke="black" stroke-width="0.432054"/>
<path fill-rule="evenodd" clip-rule="evenodd" d="M21.3734 31.5496C21.3734 31.5496 21.5457 32.308 21.9708 32.0222C22.3959 31.7369 22.5682 31.3087 22.9932 31.3087C23.4183 31.3087 25.1902 30.9755 25.6153 31.3087C26.0404 31.6418 26.083 31.356 26.2955 31.356C26.508 31.356 27.1324 31.4668 27.1324 31.4668C27.6758 31.4102 27.565 30.5463 27.1723 30.2935C26.6053 29.8496 25.8421 29.5642 25.2753 29.1198C25.2185 28.6915 25.1619 28.2633 25.1052 27.8351C25.261 27.6133 25.4169 27.3911 25.5729 27.1689C25.5729 26.4554 25.5729 25.7417 25.5729 25.0279C25.4878 24.8376 25.4028 24.6473 25.3178 24.4569C25.2894 23.9178 25.261 23.3786 25.2327 22.8392C25.1619 22.744 25.091 22.6489 25.0202 22.5537C25.0202 22.3476 25.0202 22.1414 25.0202 21.9351C25.1619 21.729 25.4489 21.5229 25.5908 21.3166C25.6332 20.9201 25.4432 20.6403 25.4858 20.2437C25.3865 19.7363 25.3744 19.1121 25.2753 18.6046C25.2753 17.986 25.2753 17.3674 25.2753 16.7489C25.6865 16.6263 25.7861 16.4441 25.8155 16.2597C25.8532 16.0224 25.737 15.743 25.6153 15.1787C25.5586 12.2129 25.5311 9.13029 25.4744 6.16437C25.7006 5.80992 25.9716 5.62656 25.9773 5.36396C25.9818 5.15951 25.7622 4.98905 25.4878 4.75848C25.4878 4.5523 25.4878 4.34622 25.4878 4.1399C25.4878 4.1399 25.9555 3.18825 26.338 3.18825C26.7206 3.18825 26.9757 2.90284 26.9757 2.61737C27.3247 1.92379 26.5931 1.85603 26.5931 1.85603C25.7833 1.83922 24.8662 1.88067 24.0763 1.86401C23.3795 1.84918 22.8076 1.7758 22.1296 1.76087C21.832 1.77684 21.5344 1.79256 21.2368 1.80843C20.5055 2.03053 20.6592 2.42765 20.9393 2.6495C21.2793 2.86356 21.5695 3.10877 21.9595 3.11695C22.4354 3.12685 22.8143 3.28282 22.9797 3.75923C23.0223 5.66248 23.0647 7.56578 23.1072 9.46898C23.1215 10.8727 23.1647 12.2764 23.1788 13.6798C23.193 15.0834 23.1783 16.4871 23.1923 17.8908C23.2206 19.5403 23.2489 21.1898 23.2773 22.8392C23.2773 22.8392 23.1923 23.4578 23.0647 23.6006C22.9373 23.7433 22.9797 24.9803 22.9797 24.9803C23.4505 25.3905 23.3505 25.3331 23.0223 25.8844C22.9938 27.1058 22.9655 28.3269 22.9373 29.548C22.8239 29.7702 22.7105 29.9925 22.5971 30.2142C22.5971 30.2142 21.3734 30.9312 21.3734 31.5496ZM0.7867 37.4644C0.156351 37.3348 0.0381602 37.0298 0.262058 36.8499C0.396418 36.742 0.755587 36.746 0.91706 36.6706C1.15336 36.5592 1.39472 36.4133 1.53699 36.2374C1.78012 35.9363 1.63263 35.2395 1.92278 34.6719C2.20159 32.277 2.28512 29.104 2.00645 28.0366C1.83915 26.3916 2.01089 20.9275 2.01089 20.235C2.19602 19.9023 2.26551 19.875 2.26694 19.2921C2.26743 19.0642 2.42073 18.7096 2.25743 18.4278C2.02055 18.1574 2.09215 17.1 2.07362 16.504C2.04622 15.6168 2.11132 15.6241 2.3582 14.8203C2.45114 14.5179 2.48262 14.1581 2.3582 13.8681C2.15705 13.3996 1.86621 13.941 1.88557 12.9999C1.93303 10.7161 2.01818 8.41848 1.95811 6.13564C1.97112 5.93223 2.3099 5.89507 2.37623 5.70279C2.46054 5.45832 2.48848 5.15595 2.37623 4.92376C2.31266 4.79214 1.95688 4.96333 1.85251 4.86359C1.21466 4.25412 0.41314 3.87129 0.0435284 3.05811C-0.0997363 2.74273 0.131324 2.04482 0.435036 1.89398C0.93819 1.64399 1.87409 1.9024 2.42462 1.80745C2.72068 1.75644 2.90804 1.58027 3.20794 1.56707C5.5471 1.46403 7.95416 1.23021 10.2849 1.46112C10.658 1.49808 10.781 2.15628 11.1211 2.31968C11.5873 2.5437 12.2689 2.49571 12.6262 2.878C13.199 3.49052 13.6099 3.99513 13.6826 4.84423C13.7718 5.88625 13.9509 7.0665 13.9421 7.86692C13.9347 8.53719 13.7332 9.14217 13.4344 9.71867C13.0251 10.5088 12.5379 11.2461 12.0103 12.0266C11.7062 12.4764 11.1648 12.8941 11.0375 13.407C10.9058 13.9373 12.2759 13.548 12.5561 14.0123C12.8256 14.4587 12.3263 14.9817 12.4769 15.4846C12.6114 15.9332 13.3882 15.9769 13.4804 16.4368C13.7183 17.6237 13.1933 18.8788 13.3968 20.0724C13.4618 20.4546 14.0682 20.4682 14.1272 20.8516C14.1987 21.6798 14.1731 22.5566 14.1796 23.4365C14.1863 24.3731 14.2227 25.3139 14.2107 26.2043C14.1877 26.5399 13.7483 26.7362 13.709 27.0698C13.6044 27.9583 13.9097 28.9616 13.7135 29.8328C13.5068 30.7503 12.7691 31.3983 12.4813 32.2922C12.232 33.0664 12.3028 34.1968 11.9005 34.6822C11.2353 34.8911 10.4072 35.3593 9.88318 35.7496C9.11746 36.3192 8.62793 36.9721 8.39253 36.9928C8.09342 37.2589 7.46065 37.081 7.08978 37.2195C6.7478 37.3466 6.71557 37.6334 6.35496 37.5866C6.07018 37.5502 6.15893 37.3136 5.93683 37.1259C5.80753 37.016 5.55887 37.0091 5.43514 37.1259C4.68454 37.73 5.24439 37.5718 4.39208 37.493C3.52627 37.4132 1.84103 37.6803 0.787046 37.4644H0.7867ZM5.63708 33.9899C5.83222 33.6149 6.02736 33.2399 6.22255 32.8644C6.16666 31.624 6.11098 30.3832 6.0552 29.1424C6.22255 28.9113 6.38975 28.6807 6.55695 28.4496C6.55695 27.1999 6.55695 25.9502 6.55695 24.7004C6.55695 24.1322 6.47775 23.5641 6.47775 22.9962C5.89076 22.5106 6.17145 22.5177 6.64496 21.9575C6.64496 21.4093 6.77717 20.967 6.77717 20.4187C6.72129 19.9571 6.6656 19.4954 6.60982 19.0337C6.69354 18.8029 6.77717 18.5721 6.86074 18.3412C6.86074 17.6469 6.93993 17.0851 6.93993 16.3908C6.93993 15.7388 6.95881 15.5204 7.07801 15.5613C7.19721 15.6021 7.41688 15.9024 7.81795 16.288C8.12269 16.5811 8.42762 16.8743 8.73245 17.1672C9.29555 17.7083 9.84386 17.7576 9.61565 18.6442C9.40238 19.4737 10.0153 19.7038 9.82483 20.527C9.67932 21.1557 9.48803 21.5401 9.53041 21.9299C9.55569 22.1637 9.66528 22.3995 9.91886 22.6911C10.1533 22.9606 10.2314 22.9438 10.0913 23.2754C9.87402 23.7893 9.68883 24.0891 9.6671 24.3976C9.63911 24.794 9.85509 24.9762 10.0445 25.6766C10.1995 26.2494 10.185 26.6293 10.0416 27.2038C9.8717 27.8854 9.70184 28.5669 9.53193 29.2484C9.51281 29.7638 9.46585 30.2797 9.42924 30.7957C9.37385 31.5817 9.26909 31.6019 8.72255 32.1636C8.22603 32.6741 7.58699 33.1107 7.10796 33.5671C6.57843 33.7691 6.16667 33.7878 5.63708 33.9899ZM6.91642 12.1181C7.34065 12.1306 7.53037 12.1725 7.66189 12.1183C7.79347 12.064 7.86694 11.9135 8.05882 11.5413C8.30664 11.0601 8.67371 10.4587 8.97815 10.4134C9.49103 10.3373 9.75861 10.261 9.75861 10.261C9.75861 10.261 10.027 10.2101 9.93522 9.54866C9.84331 8.88721 9.65405 8.25113 9.82085 8.07309C9.98751 7.89505 10.0227 7.38626 9.84529 7.1827C9.66804 6.97928 9.49941 6.77566 9.78591 6.49586C10.0724 6.21602 10.2699 5.74753 9.58535 5.82391C8.90088 5.90025 8.90936 5.60399 8.83027 5.40037C8.75108 5.19691 8.00447 5.24337 7.6141 5.22095C7.22411 5.29728 6.89617 5.2718 6.90741 5.67879C6.91879 6.08577 6.8532 8.04771 6.85882 8.25123C6.86444 8.45475 6.91642 12.1181 6.91642 12.1181ZM28.5679 29.9767C28.5374 30.1497 28.1404 30.1506 28.1709 30.3241C28.2136 30.5661 28.2294 30.944 28.4733 30.9755C29.1803 31.0672 30.1497 30.7858 30.8509 30.9154C31.1278 30.9667 31.1429 31.4388 31.3968 31.5605C31.6053 31.557 31.9264 31.5644 32.1909 31.5605C32.3945 31.4545 32.3398 31.081 32.5383 30.9652C32.7828 30.8223 33.1162 30.7681 33.382 30.8657C33.5251 30.9184 33.3298 31.2944 33.4812 31.3126C34.7182 31.2658 35.8233 31.4013 36.9936 31.3126C37.2273 31.2742 36.9892 30.9396 37.1807 30.8006C37.3983 30.6424 37.938 30.9184 37.9747 30.6518C38.1648 29.2735 37.8681 27.7346 37.9975 26.3496C38.039 25.9062 38.4644 25.6433 38.5595 25.2081C38.5912 25.0632 38.7649 25.0607 38.7787 24.9179C38.8269 24.4209 38.8181 23.8181 38.6923 23.3286C38.5256 23.1577 38.0159 23.0955 37.8487 23.1733C37.6603 23.3121 37.8316 23.8046 37.7051 24.0012C37.6425 24.0987 37.4197 23.9036 37.3577 24.0012C37.2967 24.0972 37.3755 24.2547 37.4034 24.3792C37.4202 24.4539 37.4187 24.5168 37.3577 24.5472C37.0322 24.7099 36.553 24.3238 36.2658 24.5472C35.984 24.7664 36.3004 25.1905 36.062 25.4563C35.6755 25.887 34.8474 26.1393 34.4624 26.5715C34.0047 27.0851 34.0455 27.6094 33.5195 28.0529C33.1078 28.3998 32.4081 28.4363 31.9092 28.6388C31.3308 28.8739 31.0546 29.307 30.4539 29.476C30.2723 29.5273 30.0509 29.2099 30.1065 29.0296C30.5566 27.5705 31.1415 26.1035 31.6275 24.6558C31.9391 23.7271 32.0855 23.1412 32.4223 22.221C32.7708 21.2688 33.226 20.0919 33.7951 19.2526C33.9072 19.0872 34.2811 19.1952 34.341 19.0044C34.4898 18.531 34.2114 17.9945 34.341 17.5156C34.4369 17.1611 34.8101 16.8208 35.119 16.6222C35.3277 16.4881 35.6607 16.675 35.7528 16.4447C35.9679 15.907 35.767 15.3374 35.9024 14.7743C35.9938 14.3949 36.2543 14.1624 36.4202 13.8091C36.6401 13.3401 36.6241 12.933 36.8668 12.4754C37.0644 12.1031 37.4802 11.5819 37.5999 11.1776C37.7644 10.6224 37.6296 10.3499 37.6831 9.77322C37.6974 9.618 37.9249 9.53205 37.9313 9.37619C38.0083 7.50857 38.1071 5.63434 37.9975 3.76815C37.9887 3.61608 37.6471 3.62263 37.6501 3.47036C37.662 2.90007 37.7312 2.39621 37.6997 1.88225C37.6937 1.78182 37.7284 1.69958 37.628 1.69539C36.074 1.63019 34.5401 1.66557 32.985 1.6837C31.7112 1.69844 30.4342 1.59633 29.1635 1.6837C28.9712 1.69691 28.7989 1.72998 28.6672 1.87057C28.5408 2.00544 28.4781 2.29327 28.4854 2.47777C28.5189 3.30716 28.4688 4.21012 28.4854 5.2074C28.4884 5.39219 28.8525 5.28162 28.9153 5.45557C29.0903 5.94006 29.1037 6.48059 29.0642 6.99406C29.0516 7.15904 28.8511 7.38118 28.855 7.54636C28.9347 8.12049 29.0091 8.52625 29.1139 9.0785C29.1741 9.29207 29.3579 9.45888 29.4117 9.67407C29.4758 9.9313 29.2412 10.4509 29.5056 10.4681C29.5934 10.4737 29.8997 10.5249 30.0568 10.4681C30.2587 10.3949 29.9825 10.0247 30.0568 9.82294C30.1094 9.67988 30.3801 9.6756 30.4042 9.5252C30.5354 8.70798 30.3074 7.75037 30.4371 6.93276C30.4766 6.68361 30.6194 6.42042 30.8341 6.28761C31.0168 6.17452 31.3473 6.45728 31.4793 6.28761C31.6623 6.05221 31.4822 5.78104 31.5953 5.50518C31.7573 5.11042 32.0208 4.74641 32.3398 4.46296C32.6327 4.20253 32.9258 3.89085 33.3156 3.8503C34.187 3.75978 35.2294 3.84103 36.4094 3.79023C36.52 3.7853 36.5498 3.9554 36.5583 4.06593C36.6 4.6102 36.6991 5.34967 36.5583 5.70373C36.3539 6.2176 35.8916 6.79113 35.4222 7.32481C35.1011 7.68971 34.7766 8.01267 34.5288 8.37846C34.2318 8.81698 34.6755 9.41497 34.5235 9.92224C34.3678 10.4411 33.9428 10.9927 33.6134 11.4228C33.3431 11.7756 32.9459 11.9562 32.6926 12.3213C32.3763 12.7772 32.1921 13.2261 31.9924 13.7437C31.8263 14.1741 31.7193 14.6283 31.645 15.0837C31.5863 15.4433 31.7582 15.8498 31.5953 16.1756C31.476 16.4142 31.2069 16.3702 31.0333 16.5726C30.7927 16.8535 30.6517 17.2135 30.5371 17.5652C30.4012 17.9816 30.3901 18.2284 30.1782 18.6116C29.9403 19.0415 29.463 19.4567 29.2467 19.8977C29.0107 20.3788 28.9837 20.9633 28.8657 21.4859C28.7516 21.9913 28.6562 22.4673 28.5519 22.9748C28.424 23.5958 28.2906 24.2269 28.3037 24.8607C28.3076 25.0536 28.5116 25.1864 28.6015 25.357C28.6773 25.5011 28.8515 25.6492 28.8 25.8037C28.7297 26.0148 28.3351 26.03 28.3037 26.2504C28.2713 26.4778 28.3292 26.6879 28.4962 26.8461C28.6414 26.9831 28.9378 26.9235 29.0421 27.094C29.1543 27.2778 29.1341 27.5448 29.0421 27.739C28.9656 27.9011 28.6969 27.8617 28.6618 28.0371C28.5191 28.7512 28.6943 29.2597 28.5679 29.9767ZM71.5983 37.0101C71.5052 36.7144 71.7378 36.6568 71.8925 36.5025C72.1187 36.2768 72.3375 36.0566 72.4272 35.6121C72.4612 35.4435 72.6336 35.171 72.6735 34.901C72.7322 34.5068 72.6425 34.0958 72.5351 33.841C72.3941 33.5074 72.163 33.3335 72.2468 33.0151C72.2764 32.8116 72.7366 32.7865 73.0993 32.6254C73.2895 32.5411 73.4526 32.376 73.5132 32.2208C73.5926 32.0163 73.3284 32.0513 73.1939 31.7916C73.0505 31.5151 73.0293 31.1012 72.9189 30.8952C72.7263 30.5365 72.3739 30.055 72.3611 29.6475C72.3266 28.5605 72.6415 27.463 72.6819 26.4171C72.7159 25.5401 72.9234 25.331 72.8564 24.4324C72.8233 23.9849 72.5829 23.6593 72.3345 23.2024C72.129 22.8237 71.859 22.449 71.7555 22.0919C71.5717 21.4563 71.7565 20.703 71.6451 20.0509C71.6234 19.923 71.3031 19.7667 71.2913 19.6374C71.2085 18.7421 71.3095 17.8254 71.2519 16.9399C71.2223 16.7733 71.0873 16.7415 71.0715 16.5731C71.0247 16.0767 71.071 15.5933 71.0696 15.1642C71.0681 14.7856 71.0158 14.462 71.0158 14.022C71.0158 13.858 70.8798 13.7456 70.8744 13.5816C70.8414 12.6134 70.8818 11.5443 70.869 10.5745C70.8552 9.54206 70.7921 8.60883 70.8744 7.58081C70.8887 7.4075 71.2391 7.41168 71.2322 7.23803C71.1996 6.45028 71.1316 6.13698 71.1499 5.34464C71.1518 5.25323 71.3391 5.04079 71.3465 4.94963C71.4012 4.29044 71.483 3.63062 71.315 3.06649C71.1937 2.65788 70.8872 2.53059 70.5354 2.267C70.2249 2.03417 69.8785 1.65567 69.5912 1.44353C69.2236 1.17186 68.9787 0.953364 68.7003 0.546528C68.5327 0.301668 68.8092 0.280284 69.1177 0.271266C69.5139 0.259686 69.9465 0.294273 70.3235 0.353308C70.4511 0.373265 70.6911 0.593197 70.8118 0.639961C71.1026 0.752708 71.2928 0.606301 71.5904 0.69919C71.8176 0.770199 72.7662 1.26475 73.0214 1.41184C73.3703 1.6128 73.4832 1.90481 73.8473 2.07551C73.9129 2.10621 75.0379 2.42824 75.1685 2.46092C75.473 2.53695 75.6622 2.31427 75.9668 2.3903C76.3206 2.47851 76.9498 2.65675 77.347 2.77565C77.5707 2.84257 77.7122 3.10699 77.9413 3.15263C79.0525 3.37437 78.8539 3.00395 79.734 3.8839C79.9932 4.1432 80.4215 4.35145 80.6146 4.66303C80.8876 5.10273 80.9162 5.64168 81.0897 6.12091C81.2247 6.49349 81.5263 6.79956 81.5977 7.19546C81.7904 8.26089 81.5893 9.3688 81.7199 10.4436C81.7598 10.7719 82.0974 11.1182 82.1329 11.447C82.2674 12.7061 82.2901 13.9493 82.1368 15.2062C82.0851 15.6298 81.7283 15.8021 81.6647 16.2241C81.5588 16.9321 81.7702 17.657 81.7199 18.3712C81.6963 18.7132 81.5061 19.0702 81.3267 19.3622C81.1956 19.5747 80.896 19.6514 80.7999 19.8815C80.5471 20.4856 80.6107 21.3116 80.4934 21.9662C80.4569 23.2157 80.4826 24.1849 80.5363 25.4336C80.5742 26.3138 80.6644 27.1038 80.552 27.9775C80.5126 28.2801 80.2593 28.4461 80.214 28.7482C80.0888 29.583 80.1963 30.4404 80.1154 31.2806C80.1016 31.4235 79.8897 31.5891 79.8597 31.7295C79.8035 32.4972 79.7498 33.6178 79.4152 34.4821C79.1949 35.0523 78.6593 35.6269 78.1448 35.957C77.6466 36.2768 77.111 36.3458 76.5369 36.4922C76.1742 36.5843 75.7682 36.54 75.436 36.712C75.237 36.8154 75.3705 36.8169 75.1887 36.947C75.0837 37.0214 74.9024 37.0278 74.8033 36.947C74.6634 36.8322 74.7067 36.7854 74.5436 36.708C74.2948 36.5902 73.9705 36.5996 73.7177 36.708C73.5354 36.7864 73.6019 36.9288 73.4068 36.9667C73.0131 37.0436 72.5518 37.1431 72.1261 37.1318C71.8713 37.1254 71.6702 37.2402 71.5983 37.0101ZM75.2936 8.73849C75.8465 8.70922 75.9549 8.67921 76.4472 8.94363C76.9563 9.21658 77.0627 9.39664 77.3736 9.88986C77.5343 10.0446 77.6944 10.1994 77.8546 10.3541C78.5085 10.9852 78.817 11.876 79.0841 12.7107C79.1279 13.6169 79.3226 15.2045 78.8702 16.0268C78.6445 16.4373 78.5553 16.7541 78.5169 17.1024C78.41 18.0769 78.1335 17.9248 77.8521 18.6627C77.7757 18.8629 77.7925 19.112 77.7856 19.5871C77.761 21.2836 77.7358 22.9803 77.7112 24.6767C77.6954 25.7607 77.4914 26.2779 77.0533 27.2787C76.7961 27.7572 76.6611 28.0657 76.6611 28.6087C76.6611 29.2523 76.5295 29.549 76.2738 30.1354C76.118 30.4921 75.9618 30.8494 75.8061 31.2067C75.6213 31.63 75.4518 31.7817 75.3291 31.7251C75.2064 31.6689 75.1305 31.4033 75.1325 30.9923C75.1433 28.9212 75.1542 26.8505 75.165 24.7794C75.1887 22.5775 75.2123 20.3755 75.236 18.1737C75.2084 17.7008 75.2261 17.5961 74.9157 17.2454C74.8866 16.5326 74.7491 16.2102 74.5234 15.5315C74.2386 14.9964 74.2711 14.606 74.2642 13.9943C74.2465 12.464 74.2282 10.9334 74.2105 9.40309C74.1997 8.46401 74.4121 8.78505 75.2936 8.73849ZM39.2046 35.0671C39.0343 34.2343 39.1534 33.5725 39.1981 32.9462C39.2194 32.7968 39.5206 32.9363 39.6025 32.8102C39.7246 32.6214 39.8348 32.3627 39.7541 32.1528C39.7057 32.0271 39.6201 32.2006 39.5478 32.0868C39.4479 31.9301 39.483 31.6768 39.5983 31.5309C39.7665 31.3175 40.1031 31.3727 40.218 31.1263C40.3747 30.7903 40.1057 30.3675 40.218 30.0141C40.2537 29.9018 40.5441 30.129 40.5718 30.0141C40.7028 29.4736 40.5399 28.896 40.6224 28.3461C40.6439 28.2027 40.7705 28.1362 40.7871 27.9923C40.8573 27.3896 40.8938 26.7697 40.7871 26.1724C40.721 25.8015 40.4213 25.5346 40.3697 25.1614C40.1821 23.8079 40.1253 22.3341 40.2994 20.9787C40.4347 19.9265 41.1056 18.2994 41.4995 17.3143C41.746 16.6981 41.8668 16.8902 42.0884 16.2645C42.156 16.0732 42.203 15.8503 42.1389 15.6578C42.0591 15.4181 41.7761 15.2348 41.816 14.9853C41.8648 14.6795 42.2408 14.6872 42.3411 14.3941C42.4774 13.9956 42.2031 13.5283 42.3411 13.1304C42.5035 12.6622 43.0632 12.3933 43.2005 11.9171C43.3315 11.4628 43.191 10.7369 43.3194 10.2817C43.573 9.38235 43.8778 8.80142 44.3126 7.97419C44.5693 7.48575 45.0155 7.07305 45.216 6.55874C45.4092 6.0632 45.3895 5.40718 45.4753 4.99172C45.1593 4.59681 44.4344 5.14797 43.9587 4.97624C43.7174 4.88917 43.7183 4.4946 43.4794 4.40053C42.9679 4.36574 42.4787 4.35397 42.1146 4.62711C41.626 4.99344 41.6221 5.42289 41.4312 6.00269C41.1458 6.86904 41.3633 7.84237 41.0072 8.68187C40.8663 9.01385 40.2918 9.10718 40.0158 9.33904C39.8698 9.46164 39.8019 9.58946 39.6114 9.58946C39.4207 9.58946 39.2546 9.52363 39.207 9.33904C39.1102 8.96388 39.2258 8.5635 39.207 8.17638C39.1921 7.87164 39.0289 7.56169 39.1059 7.26647C39.146 7.11267 39.498 7.17224 39.5103 7.01372C39.6614 5.27688 39.4537 3.55123 39.4802 1.89156C39.4895 1.30886 39.6441 1.39523 40.2178 1.38942C41.184 1.37946 42.7153 1.38696 43.8259 1.38134C45.7744 1.37159 47.7277 1.29885 49.6707 1.35207C49.96 1.37301 50.3365 1.48039 50.3567 1.76955C50.3976 2.35428 50.0058 2.91811 49.7348 3.43774C49.5914 3.71237 49.2711 3.89189 49.1657 4.18287C48.9863 4.67609 49.1809 5.26052 48.9917 5.74995C48.8759 6.0503 48.287 6.10583 48.1742 6.40712C48.014 6.83332 48.2905 7.34842 48.1234 7.77196C48.0407 7.98227 47.5922 7.86213 47.5168 8.07526C47.2626 8.79658 47.4119 9.61134 47.2138 10.3501C47.1039 10.7578 46.7949 11.0437 46.7392 11.4622C46.5875 12.5979 46.8378 13.7581 46.7392 14.8996C46.7175 15.1474 46.4559 15.3184 46.3849 15.5568C46.2184 16.1173 46.1134 16.7231 45.9212 17.2755C45.8384 17.5141 45.5309 17.6378 45.4664 17.8821C45.3715 18.2404 45.6093 18.6523 45.4664 18.9942C45.2864 19.4241 44.6531 19.5999 44.5564 20.0558C44.2835 21.3424 44.7156 22.6989 44.5148 23.9987C44.425 24.5804 43.9123 25.0374 43.8071 25.6163C43.6715 26.3623 43.905 27.2442 43.7191 27.979C43.5397 28.6886 43.0254 29.3036 42.7675 29.988C42.7071 30.6597 41.9023 31.2761 42.3411 31.7837C42.8704 31.8537 43.7489 31.9616 44.3631 31.6822C44.6459 31.5541 44.3184 30.9608 44.5653 30.7725C45.3201 30.196 46.1863 29.988 47.0334 29.5593C47.5178 29.3139 48.1269 29.0798 48.5591 28.7507C48.7783 28.5831 48.8035 28.1854 49.0641 28.0933C49.2213 28.0376 49.2539 28.419 49.418 28.4471C49.9827 28.5432 50.4725 28.3017 51.0269 28.4471C51.2486 28.5053 51.2417 28.8034 51.2994 29.0251C51.3511 29.2237 51.4408 29.4376 51.3304 29.6096C51.2639 29.7131 51.0229 29.5977 50.9761 29.7111C50.88 29.9447 50.9175 30.2236 50.9761 30.469C51.0224 30.6602 51.1974 30.7789 51.2136 30.9746C51.3004 31.999 51.3289 33.0368 51.2136 34.0583C51.1895 34.2727 51.0678 34.4974 50.8534 34.5196C49.3953 34.4526 48.0476 34.5595 46.5875 34.5639C46.4372 34.5506 46.5234 34.2845 46.3849 34.2254C46.0084 34.0638 45.3295 34.0416 44.93 34.1333C44.4652 34.2397 44.4263 34.6221 43.9587 34.7152C43.1161 34.8838 42.1423 34.7187 41.2926 34.8473C40.9923 34.8926 40.763 35.1474 40.4684 35.2208C40.0597 35.3228 39.4152 35.4317 39.2046 35.0671ZM16.6876 37.4413C16.0573 37.6625 15.3219 37.4418 14.6537 37.4561C14.4478 37.4605 14.1126 37.6221 13.9148 37.564C13.6989 37.5009 13.3586 37.0727 13.4936 36.8923C14.0209 36.1891 15.0605 36.1014 15.5419 35.3667C15.8251 34.9345 15.5599 34.3525 15.6815 33.8504C15.7189 33.6962 15.9891 33.7105 16.0691 33.5735C16.134 33.4621 16.1531 33.2842 16.0691 33.1861C15.8771 32.9619 15.7555 33.432 15.6798 32.7609C15.6119 32.1607 15.5977 31.5511 15.6534 30.9514C15.6884 30.5695 15.966 30.6503 16.0185 30.4488C16.1162 30.0738 15.9129 29.7958 16.0136 29.4213C16.0587 29.2533 16.3702 29.2957 16.4565 29.1444C16.5387 29.0005 16.5485 28.7847 16.4565 28.6462C16.2679 28.3633 15.7553 28.3678 15.6982 28.0327C15.5931 27.4162 15.6494 26.7544 15.6602 26.1428C15.6718 25.4914 15.6271 24.8381 15.6814 24.1744C15.6914 24.0513 15.9702 24.0565 16.0136 23.9408C16.0977 23.7163 16.0445 23.4589 16.0136 23.2211C15.9888 23.0303 16.0475 22.6399 16.0328 22.448C16.0104 22.1532 15.8837 22.0437 16.0208 21.7817C16.1163 21.5992 16.4278 21.7091 16.4565 21.5049C16.6079 20.4268 16.2846 19.3213 16.4011 18.2387C16.4208 18.0553 16.7096 18.0845 16.7581 17.9065C16.8363 17.6195 16.8604 17.2896 16.7333 17.0208C16.6733 16.8939 16.3903 16.8934 16.3794 16.7534C16.2551 15.1714 16.4714 13.6758 16.3457 12.0937C16.334 11.9456 15.9701 12.1534 15.9633 11.5104C15.9559 10.8366 15.8938 10.2085 15.9029 9.71325C15.9099 9.33322 16.7299 9.32297 16.7212 8.94294C16.708 8.36383 16.7992 7.71026 16.6658 7.11607C16.6229 6.92502 16.3737 6.95661 16.2904 6.77916C16.212 6.6125 16.286 6.44629 16.3577 6.27623C16.4439 6.07158 16.6779 5.94243 16.7333 5.72733C16.8346 5.33439 16.8244 4.90504 16.7333 4.50944C16.7034 4.37998 16.48 4.25348 16.4179 4.136C16.3029 3.91859 16.3549 3.72671 16.2013 3.53452C16.0951 3.40192 15.7817 3.48337 15.6526 3.37314C15.3202 3.0893 15.1285 2.77373 14.8498 2.51522C14.5877 2.27243 14.2345 2.08946 14.0326 1.732C13.9029 1.50237 14.054 1.10514 14.2637 0.944788C14.4247 0.821693 14.677 0.849535 14.8558 0.944788C15.0013 1.02235 14.9984 1.33127 15.1615 1.35389C15.875 1.45328 16.5833 1.13919 17.2868 1.29382C17.5936 1.36128 17.6099 1.7487 17.8958 1.87845C18.0871 1.96533 18.4318 1.79739 18.6059 1.91496C18.8613 2.08758 19.078 2.45485 19.2794 2.65995C19.5383 2.92363 19.7615 3.04101 19.8937 3.41438C20.0605 3.88582 19.9874 4.36954 19.9801 4.8599C19.9736 5.29255 20.044 5.73073 20.0043 6.17024C19.991 6.31807 19.7071 6.24849 19.6673 6.39164C19.5977 6.64296 19.6475 6.92429 19.7781 7.14983C19.873 7.31407 20.1303 7.23044 20.1921 7.40971C20.3364 7.82867 20.3548 8.34224 20.2474 8.77214C20.2075 8.9322 19.8986 8.82906 19.8888 8.9936C19.7645 11.0752 19.7334 13.1749 19.9441 15.2492C19.9799 15.6019 20.5373 15.7274 20.5748 16.0797C20.7837 18.0431 20.5935 20.0305 20.5123 22.0032C20.5008 22.2838 20.3618 22.6364 20.2474 22.8458C20.1195 23.0798 20.1991 23.3136 20.2038 23.5719C20.2101 23.904 20.1704 24.2661 20.2209 24.6051C20.2498 24.7987 20.6437 24.983 20.6301 25.1783C20.5928 25.7165 20.6694 25.9709 20.7023 26.5015C20.7181 26.7569 20.253 26.9165 20.1054 27.1255C19.9993 27.2758 19.9347 27.567 20.0212 27.7296C20.1028 27.8829 20.2493 27.805 20.2956 27.9726C20.3612 28.2096 20.3667 28.4097 20.2474 28.625C20.1705 28.7635 19.8868 28.7452 19.8599 28.9015C19.7845 29.3395 20.0333 29.7904 19.9707 30.2305C19.9519 30.362 19.6581 30.3202 19.6385 30.4517C19.5401 31.1086 19.7498 31.7896 19.6385 32.4445C19.5964 32.6919 19.2133 32.8032 19.1956 33.0536C19.1857 33.1935 19.517 33.096 19.5831 33.2196C19.6876 33.4158 19.4253 33.8218 19.6385 33.8839C20.3468 34.0914 21.2233 34.0377 21.9371 33.8504C22.3414 33.744 22.5125 33.1773 22.9288 33.1378C23.4303 33.0905 23.8003 33.4217 24.296 33.5104C24.9496 33.6282 25.6645 33.6493 26.3057 33.4769C26.6841 33.3749 26.904 32.9733 27.2926 32.9215C28.975 32.6953 30.5363 32.8343 32.2339 32.8254C33.839 32.8166 35.8924 32.7357 37.0841 32.8658C37.7637 32.8885 37.0268 35.2928 37.2718 36.5626C37.3251 36.8391 37.5613 36.9938 37.7032 37.2496C37.9296 37.6576 38.0174 37.865 37.4296 37.8626C36.324 37.8572 35.2052 37.9424 34.0056 37.8917C33.7699 37.8818 33.7813 37.4275 33.5627 37.3378C33.3232 37.2397 33.0392 37.4541 32.7877 37.3935C32.4107 37.3023 31.9858 36.9411 31.6011 36.8953C30.5751 36.7721 29.5412 37.0293 28.5178 36.8879C28.2855 36.8558 28.2535 36.4064 28.0196 36.3892C25.6272 36.2142 23.3348 36.4656 20.9401 36.335C20.4271 36.3069 20.3804 36.128 20.0548 36.0334C19.5941 35.9004 18.7702 35.8471 18.3363 36.0506C17.5275 36.4291 17.5302 37.1451 16.6876 37.4413ZM45.4866 28.0874C44.9868 28.0726 44.9536 27.2699 44.9933 26.7776C45.0339 26.274 45.6916 26.3004 45.9262 25.8531C46.0971 25.5274 45.8409 24.9549 46.036 24.6429C46.246 24.3069 46.8151 24.3194 47.025 23.9835C47.1453 23.7915 46.9659 23.4232 46.9713 23.1968C46.9846 22.6608 47.1049 22.266 47.0802 21.7305C47.0674 21.4519 46.9516 20.9488 47.0043 20.675C47.0768 20.3009 47.2995 20.3917 47.4099 20.027C47.5474 19.5708 47.3187 19.0518 47.4646 18.5983C47.5227 18.4189 47.9929 18.509 47.9593 18.3235C47.9184 18.0979 47.507 18.2193 47.4661 17.9938C47.3414 17.3071 47.3345 16.499 47.5198 15.8262C47.6356 15.4053 48.1131 15.0833 48.2343 14.6636C48.361 14.2239 48.0929 13.7253 48.2343 13.2899C48.3299 12.9943 48.8182 12.9318 48.8936 12.6305C49.071 11.9196 48.9129 11.0475 49.0977 10.3386C49.1947 9.96653 49.3889 9.54482 49.6269 9.31164C49.7698 9.17164 49.8984 9.06993 49.9654 8.84931C50.0571 8.54714 49.8319 8.29302 49.8836 7.98143C49.9295 7.70577 50.1399 7.52882 50.2734 7.28366C50.4424 6.9741 50.5129 6.5819 50.675 6.26909C50.9116 5.81174 51.2299 5.42915 51.3994 4.94259C51.5261 4.5798 51.2541 3.98808 51.4162 3.63944C51.6458 3.14578 52.2391 3.15795 52.4653 2.66261C52.6481 2.26247 52.3283 1.73949 52.5205 1.34379C52.6599 1.05552 52.9748 0.92823 53.2946 0.915516C53.5292 0.906202 53.814 1.06853 53.8938 1.2888C54.051 1.72042 53.9091 2.23907 54.087 2.66261C54.3989 3.40744 54.94 3.84646 55.2401 4.59631C55.3963 4.98728 55.2273 5.54948 55.3229 5.95962C55.453 6.5172 55.5441 7.07951 55.7284 7.6225C55.9571 8.29869 56.2848 8.95457 56.477 9.6413C56.647 10.2495 56.6879 10.9094 56.819 11.5284C56.9151 11.9801 57.0905 12.3948 57.2462 12.8285C57.3127 13.0147 57.5379 12.9674 57.5916 13.1581C57.6858 13.4951 57.4029 13.8614 57.4818 14.2022C57.5754 14.6095 58.014 15.0222 58.0859 15.4339C58.2032 16.1013 58.081 16.7398 58.0972 17.4173C58.112 18.0365 58.1775 18.6115 58.2589 19.2051C58.3091 19.5704 58.5112 20.0913 58.5205 20.3567C58.5545 21.3457 58.5984 22.3194 58.6092 23.3095C58.626 24.7566 58.626 26.3035 58.5535 27.7479C58.5452 27.9164 58.3441 28.0026 58.285 28.1608C58.0608 28.7595 57.873 29.0907 57.7291 29.714C57.6532 30.0427 57.6508 30.3965 57.5093 30.703C57.4226 30.8913 57.0358 31.0455 56.9703 31.2421C56.8249 31.6797 57.0033 32.1198 56.9712 32.6658C56.9441 33.1359 56.7495 33.4059 56.5539 33.843C56.4198 34.1416 56.202 34.6073 56.1192 34.9187C56.0291 35.2568 56.1912 35.6273 56.0921 35.9629C56.0399 36.1384 55.8004 36.2231 55.7624 36.4025C55.6673 36.8504 55.8447 37.3393 55.7073 37.7759C55.6299 38.0232 55.5762 37.9873 55.3401 38.0937C55.1726 38.1686 54.733 38.2539 54.7079 38.0715C54.6015 37.3067 54.8168 36.7755 54.6956 36.0122C54.5537 35.1193 54.1801 34.5763 53.9549 33.7001C53.8456 33.2748 54.0412 32.5061 53.8391 32.1163C53.4755 31.4141 52.3111 31.1303 52.3618 30.3413C52.4106 29.578 52.8669 29.0813 53.3316 28.4604C53.6489 28.0352 53.8554 27.3408 54.053 26.8564C54.1984 26.4992 54.2831 26.0808 54.2895 25.7285C54.2994 25.2026 54.157 24.9737 53.7588 24.6466C52.927 23.9631 51.5827 23.3381 50.5474 22.8347C50.3956 22.7609 50.2177 23.0505 50.2177 23.2194C50.2177 23.3882 50.4153 23.5195 50.4351 23.6869C50.4927 24.1793 50.1946 24.6902 50.4079 25.1374C50.6331 25.61 51.5216 25.7475 51.3901 26.2539C51.3014 26.593 51.2181 26.7125 50.9303 26.8781C50.7558 26.9786 50.5622 26.9717 50.3582 26.9811C49.7462 27.0092 49.1169 26.7924 48.5256 26.9175C47.8835 27.0535 47.3089 27.3502 46.7156 27.6459C46.3228 27.842 45.9212 28.1007 45.4866 28.0874ZM50.8992 20.4049C50.8938 19.9202 50.882 19.4431 50.883 18.9663C50.884 18.5454 50.8943 18.1245 50.9273 17.6985C50.949 17.4217 51.2023 17.2105 51.2348 16.9349C51.2895 16.4793 51.0096 15.9324 51.1373 15.4942C51.1885 15.3164 51.6394 15.4947 51.7414 15.3452C51.7749 15.2962 51.8434 15.011 51.9572 14.7678C52.0257 14.6219 52.1682 14.4909 52.1682 14.435C52.1682 14.3536 52.1627 13.7751 52.2238 13.2739C52.2593 12.983 52.3042 12.7373 52.3485 12.7353C52.3924 12.7334 52.4367 12.9746 52.591 13.1752C52.7684 13.4061 52.8285 13.6351 52.9837 13.8793C53.0754 14.0234 53.1739 14.193 53.3252 14.2518C53.5179 14.3267 53.7485 14.2213 53.9402 14.2986C54.0836 14.3564 54.1186 14.5815 54.2477 14.6711C54.3349 14.7318 54.535 14.6163 54.5552 14.727C54.6463 15.2259 54.5675 15.8936 54.6468 16.3948C54.666 16.515 54.9316 16.4591 54.9375 16.5811C54.978 17.4539 54.9982 18.3282 54.9952 19.2024C54.9927 19.9739 54.9725 20.7456 54.9326 21.5164C54.9218 21.7361 54.3413 21.7515 54.1792 21.6281C53.8658 21.3893 53.6672 21.1122 53.2572 21.0135C53.0862 20.9725 53.0946 20.7018 52.9324 20.6477C52.5727 20.5279 52.1189 20.498 51.7429 20.498C51.4975 20.498 51.1432 20.5847 50.8992 20.5539C50.8544 20.5483 50.8997 20.4542 50.8992 20.4049ZM62.5692 5.36031C62.5702 5.8625 62.6239 6.40662 62.6253 6.93247C62.6278 7.60919 62.5785 8.21546 62.581 8.89761C62.5835 9.62401 62.6377 10.4264 62.6377 11.1368C62.6377 11.7142 62.5322 12.8241 62.5771 13.3038C62.6342 13.9204 62.6682 14.0273 63.5114 14.0273C63.9194 14.0273 64.4723 13.6087 64.8798 13.1858C65.1587 12.8963 65.1168 12.3965 65.2238 12.1803C65.3814 11.8626 65.651 11.572 65.7072 11.2031C65.7791 10.7286 65.6057 10.3369 65.922 10.0334C66.0467 9.91331 66.1645 8.55088 66.1645 8.25108C66.1645 7.82374 65.7155 7.19004 65.1996 6.62305C64.8468 6.23509 64.4235 5.88689 64.2431 5.62114C63.9125 5.13457 63.6651 4.9211 63.2733 4.83358C62.5578 4.67377 62.5687 4.73946 62.5692 5.36031ZM58.7915 32.1015C58.658 32.6288 59.0641 32.8442 59.5445 33.1546C60.024 33.465 60.5788 33.8711 61.1012 34.2993C61.9852 35.0237 62.5869 36.3458 63.162 37.6477C63.4581 37.3328 63.2492 35.8654 63.4153 34.9863C63.4508 34.798 63.6538 34.662 63.673 34.4713C63.741 33.7878 63.7577 33.0925 63.673 32.411C63.641 32.1567 63.3951 31.971 63.3295 31.7241C63.2778 31.5304 63.2901 31.319 63.3295 31.1229C63.3773 30.8834 63.5651 30.6794 63.5868 30.436C63.6518 29.7234 63.6942 28.9971 63.5868 28.2899C63.5463 28.0228 63.1373 27.872 63.1575 27.603C63.1748 27.3803 63.6562 27.3965 63.673 27.1738C63.7198 26.5355 63.4985 25.9196 63.4197 25.2849C63.2413 23.8579 63.1373 22.4225 62.99 20.9922C62.9373 20.4767 62.7313 19.9576 62.8185 19.4468C63.0871 18.75 63.3325 18.0343 63.5912 17.4722C63.7173 17.3065 63.8839 17.6301 64.012 17.7942C64.4304 18.3285 64.9862 18.9896 65.1065 19.6573C65.2538 20.4759 64.8103 21.2002 64.9049 22.0267C64.9325 22.2679 65.3041 22.2246 65.3898 22.4517C65.7998 23.5365 66.1329 24.658 66.3345 25.8C66.5641 27.1013 66.638 28.4284 66.6779 29.7495C66.6952 30.3241 66.6705 30.9154 66.506 31.4664C66.2714 32.2533 65.7826 32.8806 65.5401 33.641C65.2863 34.4363 65.2045 34.6738 66.0462 34.6733C66.3793 34.6728 66.7681 34.6861 67.0253 34.8148C67.7142 35.1592 67.9986 35.9536 68.6525 36.3601C68.7939 36.4478 68.9787 36.5695 69.1734 36.6784C70.1008 37.1978 70.2028 36.8391 70.3959 36.027C70.6507 34.9532 70.7152 33.9849 70.8803 32.926C70.9646 32.3888 70.9468 31.8379 70.9705 31.2949C71.004 30.5207 71.0622 29.7505 71.0222 28.9764C71.004 28.6152 71.006 28.2199 70.769 27.9465C70.5911 27.741 70.0663 27.9509 69.9963 27.6887C69.9002 27.3295 70.4186 27.0304 70.4255 26.6583C70.2836 25.6546 70.1535 24.7564 70.1367 23.767C70.1175 22.6007 69.8677 23.1878 69.4809 22.7306C69.2473 22.4544 69.1743 22.2108 69.1379 21.8507C69.03 20.7969 69.1827 19.6308 69.0216 18.584C68.9496 18.1158 68.7308 17.6541 68.4209 17.2961C68.3085 17.1664 68.1026 17.3594 68.0257 17.2059C67.8971 16.9487 68.2923 16.7727 68.1415 16.5277C67.7911 15.9588 67.0579 15.5245 66.502 15.1541C66.3355 15.0431 66.0423 15.2957 65.9008 15.1541C65.7594 15.0125 65.7628 14.5777 65.9008 14.4329C66.8908 14.2895 67.4004 13.8234 67.8838 13.2653C68.5396 12.5088 68.8604 11.6654 69.1891 10.7198C69.3409 10.2839 69.1467 9.77455 69.1975 9.31602C69.2916 8.46751 69.7366 7.69695 69.5883 6.85623C69.3729 5.6336 68.7703 4.53796 68.0774 3.50791C67.6926 2.9361 67.0948 2.42928 66.4719 2.13425C65.9521 1.88806 65.517 2.09404 64.965 1.93256C64.3259 1.7456 63.8139 1.38809 63.162 1.25445C62.6544 1.15038 62.1217 1.36217 61.6166 1.24573C61.3013 1.17299 61.25 0.818492 60.9297 0.769313C60.7089 0.735312 60.4833 1.05522 60.2605 1.07404C58.7206 1.20448 57.4566 0.906204 55.9241 1.10839C55.6954 1.1386 55.7605 1.39361 55.9502 1.52479C56.2335 1.72086 56.6642 1.62403 56.9806 1.76087C57.5483 2.00687 57.9849 2.33758 58.4057 2.79113C58.7541 3.16623 58.896 3.58346 59.2124 4.16479C59.3425 4.40309 59.7165 3.9455 59.9855 3.90721C60.3251 3.85872 60.5611 3.84961 60.7755 4.11763C60.9681 4.35805 60.5695 4.67845 60.3423 4.88586C59.8826 5.30492 59.5696 5.52687 59.1631 5.80509C58.8852 5.99554 58.3929 6.16654 58.1864 6.53859C57.7281 7.36399 58.2717 8.30268 58.4481 9.23018C58.5126 9.56847 58.5866 9.89917 58.6634 10.2347C58.9128 11.3257 58.829 12.2336 58.9808 13.3424C59.03 13.7008 59.2843 14.0131 59.3242 14.3727C59.3716 14.8001 59.2947 15.115 59.3587 15.5403C59.3853 15.7213 59.5337 15.9133 59.582 16.0898C59.7958 16.8749 59.9841 17.8609 60.0112 18.6741C60.0989 21.3342 59.9412 23.9403 60.0752 26.5987C60.0876 26.8407 60.4507 26.9363 60.5005 27.1738C60.5779 27.5419 60.3325 27.9647 60.2088 28.32C59.7007 29.7747 59.1049 30.8632 58.7915 32.1015Z" fill="#0566B0"/>
<path d="M82.4532 1.30585H82.3768V1.68706H82.4832C82.5586 1.68706 82.6168 1.6709 82.6557 1.63783C82.6946 1.60477 82.7143 1.55687 82.7143 1.49345C82.7143 1.4287 82.6936 1.38144 82.6518 1.35109C82.6099 1.32073 82.5438 1.30585 82.4532 1.30585ZM82.53 0.991455C82.7592 0.991455 82.9336 1.03192 83.0539 1.11219C83.1746 1.19251 83.2347 1.30989 83.2347 1.46373C83.2347 1.56697 83.2061 1.65538 83.1495 1.73092C83.0928 1.80587 83.0135 1.86116 82.91 1.89694L83.2623 2.59801H82.7104L82.4261 1.98199H82.3768V2.59801H81.8712V0.991455H82.53ZM83.6955 1.8281C83.6955 1.67021 83.6659 1.51977 83.6063 1.37602C83.5471 1.23228 83.4629 1.10544 83.352 0.994809C83.2372 0.880091 83.1091 0.793711 82.9676 0.735022C82.8262 0.676332 82.6754 0.647303 82.5148 0.647303C82.3521 0.647303 82.2009 0.67564 82.0599 0.732999C81.919 0.790309 81.7938 0.875359 81.6849 0.986726C81.5716 1.10139 81.4844 1.23095 81.4243 1.37602C81.3636 1.5211 81.3331 1.67159 81.3331 1.8281C81.3331 1.98534 81.3627 2.13514 81.4228 2.27746C81.4829 2.42056 81.5686 2.54809 81.6805 2.66009C81.7938 2.77343 81.9215 2.85982 82.0639 2.91984C82.2063 2.97991 82.3561 3.00962 82.5148 3.00962C82.6715 3.00962 82.8218 2.97922 82.9657 2.91851C83.11 2.85844 83.2401 2.77077 83.3559 2.65606C83.4673 2.54676 83.5526 2.42189 83.6097 2.28155C83.6674 2.14121 83.6955 1.99071 83.6955 1.8281ZM82.5108 0.343018C82.7143 0.343018 82.9075 0.380117 83.0884 0.45364C83.2692 0.527162 83.4303 0.635134 83.5713 0.776167C83.7083 0.914489 83.8137 1.0744 83.8886 1.25593C83.9626 1.43811 84 1.62906 84 1.82947C84 2.03255 83.9635 2.22217 83.8906 2.39967C83.8172 2.57712 83.7112 2.73367 83.5713 2.86928C83.4249 3.0116 83.2603 3.12094 83.0775 3.19856C82.8947 3.27548 82.705 3.31392 82.5108 3.31392C82.3142 3.31392 82.1275 3.27612 81.9491 3.20126C81.7717 3.12631 81.611 3.01702 81.4676 2.87332C81.3252 2.73229 81.2163 2.57169 81.1414 2.39286C81.0665 2.21339 81.0291 2.0258 81.0291 1.82947C81.0291 1.63044 81.0665 1.44013 81.1424 1.2579C81.2183 1.07646 81.3277 0.913157 81.4716 0.768084C81.6071 0.629761 81.7638 0.524506 81.9417 0.451624C82.1191 0.379433 82.3088 0.343018 82.5108 0.343018Z" fill="#0566B0"/>
</g>
<defs>
<clipPath id="clip0_48_3640">
<rect width="84" height="44.214" fill="white" transform="translate(0 0.269043)"/>
</clipPath>
</defs>
</svg>
