<svg width="20" height="20" viewBox="0 0 20 20" fill="none" xmlns="http://www.w3.org/2000/svg">
<g clip-path="url(#clip0_89_9544)">
<path fill-rule="evenodd" clip-rule="evenodd" d="M16.5625 17.6666H3.43817C2.73178 17.6666 2.21015 16.9696 2.47658 16.3286C3.71276 13.3646 6.61693 11.6666 9.99985 11.6666C13.3838 11.6666 16.288 13.3646 17.5241 16.3286C17.7906 16.9696 17.2689 17.6666 16.5625 17.6666ZM5.91667 5.66661C5.91667 3.46061 7.749 1.66661 9.99985 1.66661C12.2517 1.66661 14.083 3.46061 14.083 5.66661C14.083 7.87261 12.2517 9.66661 9.99985 9.66661C7.749 9.66661 5.91667 7.87261 5.91667 5.66661ZM19.9557 17.3026C19.2136 13.9436 16.8923 11.4646 13.837 10.3396C15.456 9.06258 16.4002 6.99756 16.0532 4.73656C15.651 2.11356 13.4236 0.0146028 10.7348 -0.291397C7.02321 -0.714397 3.87507 2.11561 3.87507 5.66661C3.87507 7.55661 4.76929 9.24058 6.1637 10.3396C3.10744 11.4646 0.787164 13.9436 0.044024 17.3026C-0.225466 18.5236 0.778998 19.6666 2.05397 19.6666H17.9457C19.2217 19.6666 20.2262 18.5236 19.9557 17.3026Z" fill="#F3F3E6"/>
</g>
<defs>
<clipPath id="clip0_89_9544">
<rect width="20" height="20" fill="white"/>
</clipPath>
</defs>
</svg>
