<svg width="16" height="17" viewBox="0 0 16 17" fill="none" xmlns="http://www.w3.org/2000/svg">
<path d="M9.16683 6.49999C9.16683 6.22385 8.94296 5.99999 8.66683 5.99999C8.3907 5.99999 8.16683 6.22385 8.16683 6.49999V7.33333H7.3335C7.05736 7.33333 6.8335 7.5572 6.8335 7.83333C6.8335 8.10947 7.05736 8.33333 7.3335 8.33333H8.16683V9.16667C8.16683 9.4428 8.3907 9.66667 8.66683 9.66667C8.94296 9.66667 9.16683 9.4428 9.16683 9.16667V8.33333H10.0002C10.2763 8.33333 10.5002 8.10947 10.5002 7.83333C10.5002 7.5572 10.2763 7.33333 10.0002 7.33333H9.16683V6.49999Z" fill="#F3F3E6"/>
<path fill-rule="evenodd" clip-rule="evenodd" d="M0.861693 2.33416C0.953286 2.07365 1.23872 1.93671 1.49923 2.0283L1.70016 2.09894C2.11118 2.24343 2.46027 2.36615 2.73499 2.50095C3.02875 2.64508 3.28065 2.82264 3.4701 3.09988C3.65809 3.37498 3.7357 3.67679 3.77152 4.00771C3.77408 4.0314 3.77645 4.0555 3.77865 4.08H11.4135C11.9592 4.07999 12.5156 4.07998 12.9737 4.13118C13.2068 4.15725 13.4379 4.19878 13.6422 4.27058C13.8425 4.34096 14.0627 4.45624 14.2194 4.65985C14.4739 4.99078 14.5184 5.37612 14.4943 5.76692C14.4713 6.13899 14.379 6.60158 14.2692 7.15151L14.2623 7.18634L14.2616 7.1894L13.9223 8.8356C13.8225 9.31987 13.7385 9.72734 13.6303 10.0488C13.5153 10.3897 13.356 10.6895 13.0717 10.9212C12.7873 11.1529 12.4616 11.2485 12.1045 11.2921C11.7678 11.3333 11.3518 11.3333 10.8574 11.3333H7.25352C6.35635 11.3333 5.62978 11.3333 5.05763 11.2522C4.46013 11.1675 3.95827 10.9857 3.56236 10.5681C3.1982 10.184 3.00345 9.77627 2.9059 9.20674C2.81453 8.67327 2.80544 7.975 2.80544 7.00666V5.19224C2.80544 4.69894 2.80476 4.3688 2.77733 4.11532C2.75111 3.87309 2.70464 3.75214 2.64447 3.66408C2.58576 3.57818 2.49665 3.49789 2.29449 3.3987C2.07927 3.2931 1.78676 3.1894 1.34169 3.03292L1.16755 2.9717C0.90704 2.8801 0.7701 2.59467 0.861693 2.33416ZM3.80544 5.08V7.00666C3.80544 7.99934 3.81744 8.6052 3.89155 9.03794C3.95947 9.43454 4.0746 9.655 4.28805 9.88007C4.46974 10.0717 4.72149 10.1945 5.19803 10.2621C5.69181 10.3321 6.34719 10.3333 7.29172 10.3333H10.827C11.3599 10.3333 11.7142 10.3325 11.983 10.2995C12.2381 10.2683 12.3565 10.214 12.4399 10.146C12.5235 10.0779 12.6005 9.973 12.6826 9.7294C12.7691 9.47287 12.8415 9.12594 12.9491 8.60407L13.2816 6.99063L13.2819 6.98915C13.4003 6.39586 13.4779 6.00102 13.4962 5.70531C13.5135 5.42434 13.4695 5.3262 13.4285 5.27194C13.4244 5.26842 13.3953 5.24379 13.3107 5.21403C13.2071 5.17762 13.0596 5.14702 12.8625 5.12499C12.466 5.08066 11.9635 5.08 11.3926 5.08H3.80544Z" fill="#F3F3E6"/>
<path fill-rule="evenodd" clip-rule="evenodd" d="M3.50024 13.5C3.50024 14.3284 4.17182 15 5.00024 15C5.82868 15 6.50024 14.3284 6.50024 13.5C6.50024 12.6715 5.82868 12 5.00024 12C4.17182 12 3.50024 12.6715 3.50024 13.5ZM5.00024 14C4.7241 14 4.50024 13.7761 4.50024 13.5C4.50024 13.2239 4.7241 13 5.00024 13C5.27639 13 5.50024 13.2239 5.50024 13.5C5.50024 13.7761 5.27639 14 5.00024 14Z" fill="#F3F3E6"/>
<path fill-rule="evenodd" clip-rule="evenodd" d="M9.50024 13.5001C9.50024 14.3285 10.1718 15.0001 11.0002 15.0001C11.8286 15.0001 12.5002 14.3285 12.5002 13.5001C12.5002 12.6716 11.8286 12.0001 11.0002 12.0001C10.1718 12.0001 9.50024 12.6716 9.50024 13.5001ZM11.0002 14.0001C10.7241 14.0001 10.5002 13.7762 10.5002 13.5001C10.5002 13.2239 10.7241 13.0001 11.0002 13.0001C11.2764 13.0001 11.5002 13.2239 11.5002 13.5001C11.5002 13.7762 11.2764 14.0001 11.0002 14.0001Z" fill="#F3F3E6"/>
</svg>
