<svg width="16" height="17" viewBox="0 0 16 17" fill="none" xmlns="http://www.w3.org/2000/svg">
<path d="M1.49917 2.02832C1.23865 1.93673 0.953219 2.07367 0.861632 2.33417C0.770039 2.59469 0.906979 2.88012 1.16749 2.97171L1.49917 2.02832ZM13.7719 7.08851L14.2615 7.18948L14.2622 7.18641L13.7719 7.08851ZM3.80538 7.00668V5.19225H2.80538V7.00668H3.80538ZM1.67331 2.08954L1.49917 2.02832L1.16749 2.97171L1.34163 3.03293L1.67331 2.08954ZM7.29166 11.3333H10.8269V10.3333H7.29166V11.3333ZM3.80538 5.19225C3.80538 4.72081 3.80606 4.32741 3.77145 4.00773C3.73563 3.67681 3.65803 3.37499 3.47004 3.0999L2.6444 3.6641C2.70457 3.75216 2.75104 3.87311 2.77726 4.11534C2.8047 4.36881 2.80538 4.69895 2.80538 5.19225H3.80538ZM1.34163 3.03293C1.7867 3.18941 2.0792 3.29311 2.29443 3.39872C2.49658 3.49791 2.58569 3.57819 2.6444 3.6641L3.47004 3.0999C3.28059 2.82266 3.02869 2.6451 2.73493 2.50097C2.45425 2.36325 2.09596 2.23814 1.67331 2.08954L1.34163 3.03293ZM2.80538 7.00668C2.80538 7.97501 2.81447 8.67328 2.90583 9.20675C3.00338 9.77628 3.19814 10.1841 3.56229 10.5681L4.28798 9.88015C4.07454 9.65501 3.95941 9.43455 3.89148 9.03795C3.81737 8.60521 3.80538 7.99935 3.80538 7.00668H2.80538ZM7.29166 10.3333C6.34712 10.3333 5.69174 10.3321 5.19797 10.2621C4.72143 10.1945 4.46967 10.0717 4.28798 9.88015L3.56229 10.5681C3.9582 10.9857 4.46007 11.1675 5.05757 11.2522C5.63782 11.3345 6.37689 11.3333 7.29166 11.3333V10.3333ZM3.30538 5.08001H11.3925V4.08001H3.30538V5.08001ZM13.2821 6.98758L12.949 8.60408L13.9284 8.80595L14.2615 7.18948L13.2821 6.98758ZM11.3925 5.08001C11.9635 5.08001 12.4659 5.08068 12.8625 5.12501C13.0595 5.14703 13.207 5.17763 13.3106 5.21405C13.4182 5.25185 13.4353 5.28086 13.4267 5.26961L14.2193 4.65987C14.0627 4.45625 13.8424 4.34098 13.6421 4.27059C13.4378 4.1988 13.2067 4.15726 12.9736 4.1312C12.5097 4.07935 11.9449 4.08001 11.3925 4.08001V5.08001ZM14.2622 7.18641C14.375 6.62113 14.4708 6.14684 14.4943 5.76693C14.5183 5.37613 14.4739 4.99079 14.2193 4.65987L13.4267 5.26961C13.4681 5.3234 13.5137 5.42026 13.4961 5.70533C13.4779 6.00129 13.4001 6.39653 13.2815 6.99065L14.2622 7.18641ZM10.8269 11.3333C11.3347 11.3333 11.7609 11.3342 12.1044 11.2921C12.4615 11.2485 12.7873 11.1529 13.0716 10.9212L12.4399 10.146C12.3564 10.214 12.2381 10.2683 11.9829 10.2996C11.7141 10.3325 11.3598 10.3333 10.8269 10.3333V11.3333ZM12.949 8.60408C12.8414 9.12595 12.769 9.47288 12.6825 9.72948C12.6005 9.97301 12.5233 10.078 12.4399 10.146L13.0716 10.9212C13.3559 10.6895 13.5153 10.3897 13.6302 10.0488C13.7407 9.72081 13.8259 9.30328 13.9284 8.80595L12.949 8.60408Z" fill="#F3F3E6"/>
<path fill-rule="evenodd" clip-rule="evenodd" d="M7.3131 6.47982C7.50837 6.28456 7.82495 6.28456 8.02021 6.47982L8.66666 7.12627L9.3131 6.47982C9.50837 6.28456 9.82495 6.28456 10.0202 6.47982C10.2155 6.67508 10.2155 6.99167 10.0202 7.18693L9.37376 7.83337L10.0202 8.47982C10.2155 8.67508 10.2155 8.99167 10.0202 9.18693C9.82495 9.38219 9.50837 9.38219 9.3131 9.18693L8.66666 8.54048L8.02021 9.18693C7.82495 9.38219 7.50837 9.38219 7.3131 9.18693C7.11784 8.99167 7.11784 8.67508 7.3131 8.47982L7.95955 7.83337L7.3131 7.18693C7.11784 6.99167 7.11784 6.67508 7.3131 6.47982Z" fill="#F3F3E6"/>
<path fill-rule="evenodd" clip-rule="evenodd" d="M3.50012 13.5C3.50012 14.3284 4.1717 15 5.00012 15C5.82856 15 6.50012 14.3284 6.50012 13.5C6.50012 12.6715 5.82856 12 5.00012 12C4.1717 12 3.50012 12.6715 3.50012 13.5ZM5.00012 14C4.72398 14 4.50012 13.7761 4.50012 13.5C4.50012 13.2239 4.72398 13 5.00012 13C5.27627 13 5.50012 13.2239 5.50012 13.5C5.50012 13.7761 5.27627 14 5.00012 14Z" fill="#F3F3E6"/>
<path fill-rule="evenodd" clip-rule="evenodd" d="M9.50012 13.5001C9.50012 14.3285 10.1717 15.0001 11.0001 15.0001C11.8285 15.0001 12.5001 14.3285 12.5001 13.5001C12.5001 12.6717 11.8285 12.0001 11.0001 12.0001C10.1717 12.0001 9.50012 12.6717 9.50012 13.5001ZM11.0001 14.0001C10.724 14.0001 10.5001 13.7763 10.5001 13.5001C10.5001 13.224 10.724 13.0001 11.0001 13.0001C11.2763 13.0001 11.5001 13.224 11.5001 13.5001C11.5001 13.7763 11.2763 14.0001 11.0001 14.0001Z" fill="#F3F3E6"/>
</svg>
