<svg width="40" height="40" viewBox="0 0 40 40" fill="none" xmlns="http://www.w3.org/2000/svg">
<rect width="40" height="40" rx="20" fill="#3E3F42"/>
<path d="M18.1426 32H12.5703L12.6055 27.8867H18.1426C19.5254 27.8867 20.6914 27.5762 21.6406 26.9551C22.5898 26.3223 23.3047 25.4023 23.7852 24.1953C24.2773 22.9883 24.5234 21.5293 24.5234 19.8184V18.5703C24.5234 17.2578 24.3828 16.1035 24.1016 15.1074C23.832 14.1113 23.4277 13.2734 22.8887 12.5938C22.3496 11.9141 21.6875 11.4043 20.9023 11.0645C20.1172 10.7129 19.2148 10.5371 18.1953 10.5371H12.4648V6.40625H18.1953C19.9062 6.40625 21.4707 6.69922 22.8887 7.28516C24.3184 7.85938 25.5547 8.68555 26.5977 9.76367C27.6406 10.8418 28.4434 12.1309 29.0059 13.6309C29.5801 15.1191 29.8672 16.7773 29.8672 18.6055V19.8184C29.8672 21.6348 29.5801 23.293 29.0059 24.793C28.4434 26.293 27.6406 27.582 26.5977 28.6602C25.5664 29.7266 24.3301 30.5527 22.8887 31.1387C21.459 31.7129 19.877 32 18.1426 32ZM15.5586 6.40625V32H10.2852V6.40625H15.5586Z" fill="white"/>
</svg>
