<svg width="40" height="40" viewBox="0 0 40 40" fill="none" xmlns="http://www.w3.org/2000/svg">
<rect width="40" height="40" rx="20" fill="#3E3F42"/>
<path d="M24.6094 25.3027C24.6094 24.8457 24.5391 24.4355 24.3984 24.0723C24.2695 23.6973 24.0234 23.3574 23.6602 23.0527C23.2969 22.7363 22.7871 22.4258 22.1309 22.1211C21.4746 21.8164 20.625 21.5 19.582 21.1719C18.4219 20.7969 17.3203 20.375 16.2773 19.9062C15.2461 19.4375 14.332 18.8926 13.5352 18.2715C12.75 17.6387 12.1289 16.9062 11.6719 16.0742C11.2266 15.2422 11.0039 14.2754 11.0039 13.1738C11.0039 12.1074 11.2383 11.1406 11.707 10.2734C12.1758 9.39453 12.832 8.64453 13.6758 8.02344C14.5195 7.39062 15.5156 6.9043 16.6641 6.56445C17.8242 6.22461 19.0957 6.05469 20.4785 6.05469C22.3652 6.05469 24.0117 6.39453 25.418 7.07422C26.8242 7.75391 27.9141 8.68555 28.6875 9.86914C29.4727 11.0527 29.8652 12.4062 29.8652 13.9297H24.627C24.627 13.1797 24.4688 12.5234 24.1523 11.9609C23.8477 11.3867 23.3789 10.9355 22.7461 10.6074C22.125 10.2793 21.3398 10.1152 20.3906 10.1152C19.4766 10.1152 18.7148 10.2559 18.1055 10.5371C17.4961 10.8066 17.0391 11.1758 16.7344 11.6445C16.4297 12.1016 16.2773 12.6172 16.2773 13.1914C16.2773 13.625 16.3828 14.0176 16.5938 14.3691C16.8164 14.7207 17.1445 15.0488 17.5781 15.3535C18.0117 15.6582 18.5449 15.9453 19.1777 16.2148C19.8105 16.4844 20.543 16.748 21.375 17.0059C22.7695 17.4277 23.9941 17.9023 25.0488 18.4297C26.1152 18.957 27.0059 19.5488 27.7207 20.2051C28.4355 20.8613 28.9746 21.6055 29.3379 22.4375C29.7012 23.2695 29.8828 24.2129 29.8828 25.2676C29.8828 26.3809 29.666 27.377 29.2324 28.2559C28.7988 29.1348 28.1719 29.8789 27.3516 30.4883C26.5312 31.0977 25.5527 31.5605 24.416 31.877C23.2793 32.1934 22.0078 32.3516 20.6016 32.3516C19.3359 32.3516 18.0879 32.1875 16.8574 31.8594C15.627 31.5195 14.5078 31.0098 13.5 30.3301C12.5039 29.6504 11.707 28.7832 11.1094 27.7285C10.5117 26.6738 10.2129 25.4258 10.2129 23.9844H15.5039C15.5039 24.7812 15.627 25.4551 15.873 26.0059C16.1191 26.5566 16.4648 27.002 16.9102 27.3418C17.3672 27.6816 17.9062 27.9277 18.5273 28.0801C19.1602 28.2324 19.8516 28.3086 20.6016 28.3086C21.5156 28.3086 22.2656 28.1797 22.8516 27.9219C23.4492 27.6641 23.8887 27.3066 24.1699 26.8496C24.4629 26.3926 24.6094 25.877 24.6094 25.3027Z" fill="white"/>
</svg>
