<svg width="50" height="46" viewBox="0 0 50 46" fill="none" xmlns="http://www.w3.org/2000/svg">
<g clip-path="url(#clip0_83_6124)">
<path d="M3.12496 6.38605H46.875C48.6001 6.38605 50 7.65765 50 9.22595V36.1921C50 37.759 48.6001 39.0306 46.875 39.0306H3.12496C1.39839 39.0308 0 37.759 0 36.1923V9.22595C0 7.65765 1.39993 6.38605 3.12496 6.38605Z" fill="#26A6D1"/>
<path d="M8.06249 17.7402L3.12494 27.6653H9.03588L9.76866 26.0828H11.4436L12.1764 27.6653H18.6827V26.4575L19.2625 27.6653H22.628L23.2078 26.432V27.6653H36.7391L38.3844 26.1239L39.9251 27.6653L46.875 27.678L41.9219 22.7305L46.875 17.7402H40.0329L38.4312 19.2531L36.9391 17.7402H22.2188L20.9548 20.302L19.6611 17.7402H13.7625V18.9069L13.1063 17.7402H8.06249ZM9.20622 19.1496H12.0875L15.3626 25.8798V19.1496H18.5189L21.0485 23.9751L23.3798 19.1496H26.5204V26.2715H24.6094L24.5938 20.6908L21.8078 26.2715H20.0984L17.2968 20.6908V26.2715H13.3656L12.6203 24.6748H8.59374L7.84999 26.2701H5.74366L9.20622 19.1496ZM28.2687 19.1496H36.039L38.4156 21.4814L40.8688 19.1496H43.2454L39.6344 22.7291L43.2454 26.2673H40.761L38.3844 23.9084L35.9187 26.2673H28.2687V19.1496ZM10.6079 20.3546L9.28128 23.1988H11.9329L10.6079 20.3546ZM30.1876 20.6242V21.9243H34.4266V23.3733H30.1876V24.7927H34.9423L37.1516 22.7021L35.036 20.6229H30.1876V20.6242Z" fill="white"/>
</g>
<defs>
<clipPath id="clip0_83_6124">
<rect width="50" height="45.4167" fill="white"/>
</clipPath>
</defs>
</svg>
