<svg width="50" height="46" viewBox="0 0 50 46" fill="none" xmlns="http://www.w3.org/2000/svg">
<g clip-path="url(#clip0_83_6115)">
<path d="M46.5517 7.50146H3.44827C1.7819 7.50146 0.43103 8.73881 0.43103 10.2652V35.5332C0.43103 37.0595 1.7819 38.2969 3.44827 38.2969H46.5517C48.2181 38.2969 49.569 37.0595 49.569 35.5332V10.2652C49.569 8.73881 48.2181 7.50146 46.5517 7.50146Z" fill="white" stroke="#F3F3F3" stroke-width="1.03448"/>
<path fill-rule="evenodd" clip-rule="evenodd" d="M18.318 31.4987V32.6648V33.831H17.76V33.5478C17.583 33.7579 17.3145 33.8897 16.9495 33.8897C16.2298 33.8897 15.6657 33.3775 15.6657 32.6648C15.6657 31.9527 16.2298 31.44 16.9495 31.44C17.3145 31.44 17.583 31.5718 17.76 31.7818V31.4987H18.318ZM17.0189 31.9181C16.5358 31.9181 16.2402 32.2549 16.2402 32.6648C16.2402 33.0748 16.5358 33.4115 17.0189 33.4115C17.4804 33.4115 17.792 33.0893 17.792 32.6648C17.792 32.2404 17.4804 31.9181 17.0189 31.9181ZM37.1748 32.6648C37.1748 32.2549 37.4704 31.9181 37.9534 31.9181C38.4156 31.9181 38.7265 32.2404 38.7265 32.6648C38.7265 33.0893 38.4156 33.4115 37.9534 33.4115C37.4704 33.4115 37.1748 33.0748 37.1748 32.6648ZM39.2533 30.562V32.6648V33.831H38.6946V33.5478C38.5176 33.7579 38.249 33.8897 37.884 33.8897C37.1644 33.8897 36.6002 33.3775 36.6002 32.6648C36.6002 31.9527 37.1644 31.44 37.884 31.44C38.249 31.44 38.5176 31.5718 38.6946 31.7818V30.562H39.2533ZM25.2446 31.8941C25.6041 31.8941 25.8352 32.099 25.8942 32.4599H24.5625C24.6221 32.1231 24.847 31.8941 25.2446 31.8941ZM23.9774 32.6648C23.9774 31.9376 24.5034 31.44 25.2557 31.44C25.9747 31.44 26.4688 31.9376 26.4743 32.6648C26.4743 32.7329 26.4688 32.7967 26.4633 32.8597H24.5576C24.6381 33.2797 24.9656 33.4311 25.3251 33.4311C25.5826 33.4311 25.8567 33.3428 26.0718 33.187L26.3452 33.5629C26.0337 33.8019 25.6797 33.8897 25.2932 33.8897C24.525 33.8897 23.9774 33.4066 23.9774 32.6648ZM31.9936 32.6648C31.9936 32.2549 32.2892 31.9181 32.7722 31.9181C33.2337 31.9181 33.5453 32.2404 33.5453 32.6648C33.5453 33.0893 33.2337 33.4115 32.7722 33.4115C32.2892 33.4115 31.9936 33.0748 31.9936 32.6648ZM34.0714 31.4987V32.6648V33.831H33.5133V33.5478C33.3358 33.7579 33.0678 33.8897 32.7027 33.8897C31.9831 33.8897 31.4189 33.3775 31.4189 32.6648C31.4189 31.9527 31.9831 31.44 32.7027 31.44C33.0678 31.44 33.3358 31.5718 33.5133 31.7818V31.4987H34.0714ZM28.8421 32.6648C28.8421 33.3725 29.3842 33.8897 30.2114 33.8897C30.5979 33.8897 30.8554 33.8115 31.1345 33.6115L30.8664 33.2016C30.657 33.3384 30.4369 33.4115 30.1948 33.4115C29.7492 33.4066 29.4217 33.1138 29.4217 32.6648C29.4217 32.2158 29.7492 31.9231 30.1948 31.9181C30.4369 31.9181 30.657 31.9912 30.8664 32.1281L31.1345 31.7181C30.8554 31.5182 30.5979 31.44 30.2114 31.44C29.3842 31.44 28.8421 31.9572 28.8421 32.6648ZM35.3601 31.7818C35.5051 31.5768 35.7146 31.44 36.0367 31.44C36.1497 31.44 36.3108 31.4596 36.4343 31.5036L36.2622 31.9818C36.1442 31.9376 36.0262 31.9231 35.9132 31.9231C35.5481 31.9231 35.3656 32.1376 35.3656 32.5235V33.831H34.807V31.4987H35.3601V31.7818ZM21.078 31.6841C20.8094 31.5232 20.4395 31.44 20.0314 31.44C19.3812 31.44 18.9627 31.7232 18.9627 32.1867C18.9627 32.5671 19.2743 32.8016 19.8483 32.8748L20.1119 32.9089C20.4179 32.948 20.5624 33.0211 20.5624 33.1529C20.5624 33.3334 20.3583 33.4361 19.9773 33.4361C19.5908 33.4361 19.3118 33.3239 19.1237 33.192L18.8607 33.5869C19.1667 33.7919 19.5533 33.8897 19.9718 33.8897C20.7129 33.8897 21.1425 33.5724 21.1425 33.1284C21.1425 32.7184 20.8045 32.5039 20.2458 32.4308L19.9828 32.3962C19.7414 32.3671 19.5477 32.3236 19.5477 32.1672C19.5477 31.9963 19.7302 31.8941 20.0363 31.8941C20.3639 31.8941 20.6809 32.0063 20.8364 32.094L21.078 31.6841ZM27.6021 31.7818C27.7464 31.5768 27.956 31.44 28.278 31.44C28.3911 31.44 28.5521 31.4596 28.6756 31.5036L28.5035 31.9818C28.3856 31.9376 28.2676 31.9231 28.1545 31.9231C27.7895 31.9231 27.607 32.1376 27.607 32.5235V33.831H27.0489V31.4987H27.6021V31.7818ZM23.5158 31.4987H22.6033V30.791H22.0391V31.4987H21.5186V31.9622H22.0391V33.0262C22.0391 33.5674 22.2702 33.8897 22.9302 33.8897C23.1723 33.8897 23.4514 33.8215 23.6283 33.7092L23.4673 33.2747C23.3008 33.3624 23.1183 33.4066 22.9733 33.4066C22.6942 33.4066 22.6033 33.2501 22.6033 33.0161V31.9622H23.5158V31.4987ZM15.1721 32.3671V33.831H14.608V32.533C14.608 32.1376 14.4255 31.9181 14.0445 31.9181C13.6739 31.9181 13.4164 32.1331 13.4164 32.5381V33.831H12.8522V32.533C12.8522 32.1376 12.6648 31.9181 12.2942 31.9181C11.9126 31.9181 11.6656 32.1331 11.6656 32.5381V33.831H11.1021V31.4987H11.6607V31.7862C11.8702 31.5132 12.1382 31.44 12.4122 31.44C12.8043 31.44 13.0833 31.5964 13.2603 31.8549C13.4969 31.5277 13.8349 31.4349 14.1625 31.44C14.7856 31.4451 15.1721 31.8159 15.1721 32.3671Z" fill="#231F20"/>
<path d="M29.3504 27.5354H20.893V13.7224H29.3504V27.5354Z" fill="#FF5F00"/>
<path d="M21.4296 20.6292C21.4296 17.8271 22.8731 15.3311 25.1211 13.7226C23.4773 12.5464 21.4025 11.8444 19.1478 11.8444C13.8099 11.8444 9.48279 15.7774 9.48279 20.6292C9.48279 25.481 13.8099 29.414 19.1478 29.414C21.4025 29.414 23.4773 28.712 25.1211 27.5357C22.8731 25.9273 21.4296 23.4313 21.4296 20.6292Z" fill="#EB001B"/>
<path d="M40.7601 20.6292C40.7601 25.481 36.4331 29.414 31.0951 29.414C28.8403 29.414 26.7657 28.712 25.1211 27.5357C27.3697 25.9273 28.8133 23.4313 28.8133 20.6292C28.8133 17.8271 27.3697 15.3311 25.1211 13.7226C26.7657 12.5464 28.8403 11.8444 31.0951 11.8444C36.4331 11.8444 40.7601 15.7774 40.7601 20.6292Z" fill="#F79E1B"/>
</g>
<defs>
<clipPath id="clip0_83_6115">
<rect width="50" height="45.7983" fill="white"/>
</clipPath>
</defs>
</svg>
