<svg width="50" height="46" viewBox="0 0 50 46" fill="none" xmlns="http://www.w3.org/2000/svg">
<g clip-path="url(#clip0_83_6092)">
<path d="M46.5517 7.43262H3.44827C1.7819 7.43262 0.43103 8.65861 0.43103 10.171V35.2072C0.43103 36.7195 1.7819 37.9455 3.44827 37.9455H46.5517C48.2181 37.9455 49.569 36.7195 49.569 35.2072V10.171C49.569 8.65861 48.2181 7.43262 46.5517 7.43262Z" fill="white" stroke="#F3F3F3" stroke-width="1.03448"/>
<path fill-rule="evenodd" clip-rule="evenodd" d="M22.7921 22.8895L23.0098 21.6311L22.5248 21.6208H20.2094L21.8185 12.3343C21.8235 12.3062 21.8398 12.2801 21.8635 12.2615C21.8873 12.2429 21.9175 12.2327 21.9492 12.2327H25.8536C27.1498 12.2327 28.0442 12.4782 28.5112 12.9627C28.7302 13.19 28.8696 13.4276 28.9371 13.689C29.0079 13.9633 29.0091 14.2909 28.94 14.6907L28.935 14.7198V14.976L29.154 15.0889C29.3383 15.1779 29.4848 15.2798 29.5973 15.3963C29.7845 15.5907 29.9056 15.8378 29.9568 16.1306C30.0098 16.4317 29.9923 16.7902 29.9056 17.196C29.8057 17.6627 29.6442 18.0692 29.4261 18.4018C29.2255 18.7082 28.97 18.9625 28.6665 19.1594C28.3768 19.3467 28.0326 19.4887 27.6435 19.5796C27.2662 19.669 26.8363 19.7141 26.3647 19.7141H26.0608C25.8436 19.7141 25.6326 19.7853 25.4669 19.9129C25.3008 20.0433 25.191 20.2214 25.1573 20.416L25.1343 20.5294L24.7497 22.7475L24.7323 22.8289C24.7276 22.8547 24.7197 22.8675 24.708 22.8762C24.6977 22.8842 24.6828 22.8895 24.6681 22.8895H22.7921Z" fill="#28356A"/>
<path fill-rule="evenodd" clip-rule="evenodd" d="M29.3611 14.7493C29.3496 14.8171 29.3362 14.8864 29.3212 14.9577C28.8064 17.3637 27.0448 18.1949 24.7951 18.1949H23.6496C23.3744 18.1949 23.1425 18.3767 23.0998 18.6237L22.3472 22.9686C22.3193 23.1309 22.4566 23.277 22.6364 23.277H24.6681C24.9086 23.277 25.113 23.1179 25.151 22.902L25.1709 22.8081L25.5534 20.5986L25.578 20.4775C25.6154 20.2607 25.8203 20.1016 26.0608 20.1016H26.3647C28.333 20.1016 29.874 19.3743 30.3244 17.2694C30.5124 16.3901 30.4151 15.6559 29.9172 15.1395C29.7666 14.9839 29.5797 14.8546 29.3611 14.7493Z" fill="#298FC2"/>
<path fill-rule="evenodd" clip-rule="evenodd" d="M28.8226 14.5539C28.7439 14.533 28.6627 14.5141 28.5795 14.4971C28.4958 14.4804 28.4101 14.4657 28.3218 14.4527C28.013 14.4073 27.6746 14.3857 27.3121 14.3857H24.2519C24.1765 14.3857 24.1049 14.4012 24.0409 14.4293C23.8996 14.491 23.7948 14.6126 23.7695 14.7615L23.1184 18.5144L23.0997 18.6238C23.1426 18.3768 23.3745 18.1949 23.6496 18.1949H24.7951C27.0448 18.1949 28.8064 17.3633 29.3213 14.9577C29.3366 14.8865 29.3496 14.8172 29.3611 14.7494C29.2309 14.6865 29.0898 14.6327 28.9379 14.5868C28.9003 14.5755 28.8616 14.5645 28.8226 14.5539Z" fill="#22284F"/>
<path fill-rule="evenodd" clip-rule="evenodd" d="M23.7695 14.7615C23.7949 14.6126 23.8997 14.491 24.0409 14.4297C24.1054 14.4015 24.1765 14.386 24.2519 14.386H27.3121C27.6746 14.386 28.013 14.4077 28.3219 14.4531C28.4101 14.466 28.4958 14.4808 28.5795 14.4975C28.6628 14.5144 28.7439 14.5334 28.8226 14.5542C28.8617 14.5649 28.9004 14.5759 28.9383 14.5868C29.0902 14.6327 29.2314 14.6869 29.3617 14.7494C29.5149 13.8602 29.3604 13.2549 28.8322 12.7067C28.2499 12.1031 27.1989 11.8448 25.854 11.8448H21.9496C21.6749 11.8448 21.4406 12.0266 21.3981 12.274L19.7719 21.656C19.7399 21.8416 19.8972 22.0091 20.1029 22.0091H22.5132L23.7695 14.7615Z" fill="#28356A"/>
<path fill-rule="evenodd" clip-rule="evenodd" d="M11.2884 25.4438H8.44179C8.24696 25.4438 8.08129 25.5726 8.05086 25.7477L6.89952 32.3913C6.87668 32.5225 6.98825 32.6406 7.13434 32.6406H8.49331C8.6881 32.6406 8.85379 32.5119 8.88422 32.3365L9.19474 30.5445C9.22465 30.3691 9.39069 30.2403 9.58517 30.2403H10.4863C12.3615 30.2403 13.4436 29.4144 13.7264 27.7779C13.8537 27.0618 13.7317 26.4993 13.3633 26.1053C12.9587 25.6726 12.2411 25.4438 11.2884 25.4438ZM11.6168 27.8703C11.4611 28.8 10.6807 28.8 9.92612 28.8H9.49646L9.79784 27.0637C9.81577 26.9588 9.9156 26.8815 10.0322 26.8815H10.2291C10.7432 26.8815 11.2281 26.8815 11.4786 27.1482C11.6281 27.3073 11.6738 27.5437 11.6168 27.8703Z" fill="#28356A"/>
<path fill-rule="evenodd" clip-rule="evenodd" d="M19.8704 27.7901H18.5072C18.3911 27.7901 18.2906 27.8674 18.2728 27.9723L18.2124 28.3193L18.1172 28.1936C17.8221 27.8037 17.1639 27.6734 16.5072 27.6734C15.0007 27.6734 13.7142 28.7119 13.4636 30.1685C13.3333 30.8951 13.5185 31.5899 13.9714 32.0745C14.3868 32.5199 14.9812 32.7056 15.6884 32.7056C16.9022 32.7056 17.5751 31.9953 17.5751 31.9953L17.5144 32.3401C17.4916 32.4718 17.6031 32.59 17.7484 32.59H18.9762C19.1715 32.59 19.3363 32.4613 19.3672 32.2859L20.1039 28.0394C20.1272 27.9087 20.016 27.7901 19.8704 27.7901ZM17.9701 30.205C17.8387 30.9136 17.2206 31.3895 16.4322 31.3895C16.0364 31.3895 15.7201 31.2739 15.5168 31.055C15.3154 30.8376 15.2389 30.5281 15.3029 30.1833C15.4258 29.4805 16.0543 28.9891 16.8306 28.9891C17.2177 28.9891 17.5324 29.1063 17.7397 29.327C17.9473 29.5502 18.0298 29.8616 17.9701 30.205Z" fill="#28356A"/>
<path fill-rule="evenodd" clip-rule="evenodd" d="M27.0255 27.8963H25.6555C25.5249 27.8963 25.4021 27.9554 25.328 28.0543L23.4387 30.5872L22.6378 28.1532C22.5874 28.0008 22.433 27.8963 22.2582 27.8963H20.9122C20.7485 27.8963 20.6349 28.0418 20.6869 28.182L22.1958 32.2121L20.7773 34.0347C20.6657 34.1783 20.778 34.3757 20.9708 34.3757H22.339C22.4689 34.3757 22.5904 34.318 22.6641 34.2212L27.2202 28.2354C27.3293 28.0922 27.2173 27.8963 27.0255 27.8963Z" fill="#28356A"/>
<path fill-rule="evenodd" clip-rule="evenodd" d="M31.5921 25.4438H28.7452C28.5508 25.4438 28.3851 25.5726 28.3546 25.7477L27.2034 32.3913C27.1805 32.5225 27.2921 32.6406 27.4373 32.6406H28.8984C29.034 32.6406 29.1501 32.5506 29.1713 32.4278L29.4981 30.5445C29.528 30.3691 29.6942 30.2403 29.8885 30.2403H30.7893C32.6648 30.2403 33.7466 29.4144 34.0297 27.7779C34.1575 27.0618 34.0347 26.4993 33.6663 26.1053C33.2621 25.6726 32.5449 25.4438 31.5921 25.4438ZM31.9206 27.8703C31.7653 28.8 30.9848 28.8 30.2298 28.8H29.8008L30.1025 27.0637C30.1203 26.9588 30.2194 26.8815 30.3364 26.8815H30.5333C31.0469 26.8815 31.5322 26.8815 31.7828 27.1482C31.9322 27.3073 31.9776 27.5437 31.9206 27.8703Z" fill="#298FC2"/>
<path fill-rule="evenodd" clip-rule="evenodd" d="M40.1723 27.7901H38.8099C38.693 27.7901 38.5935 27.8674 38.576 27.9723L38.5157 28.3193L38.4199 28.1936C38.1248 27.8037 37.4671 27.6734 36.8103 27.6734C35.304 27.6734 34.0178 28.7119 33.7673 30.1685C33.6374 30.8951 33.8217 31.5899 34.2746 32.0745C34.6909 32.5199 35.2844 32.7056 35.9916 32.7056C37.2053 32.7056 37.8784 31.9953 37.8784 31.9953L37.8177 32.3401C37.7948 32.4718 37.9063 32.59 38.0524 32.59H39.2799C39.4743 32.59 39.6399 32.4613 39.6703 32.2859L40.4075 28.0394C40.43 27.9087 40.3184 27.7901 40.1723 27.7901ZM38.2722 30.205C38.1415 30.9136 37.5226 31.3895 36.7341 31.3895C36.3391 31.3895 36.0221 31.2739 35.8188 31.055C35.6175 30.8376 35.5416 30.5281 35.6048 30.1833C35.7285 29.4805 36.3562 28.9891 37.1326 28.9891C37.5196 28.9891 37.8343 29.1063 38.0416 29.327C38.2501 29.5502 38.3325 29.8616 38.2722 30.205Z" fill="#298FC2"/>
<path fill-rule="evenodd" clip-rule="evenodd" d="M41.6658 25.6264L40.4975 32.3916C40.4746 32.5229 40.5861 32.6409 40.7314 32.6409H41.906C42.1013 32.6409 42.2669 32.5122 42.2968 32.3368L43.449 25.6934C43.472 25.5623 43.3603 25.4438 43.2151 25.4438H41.8998C41.7837 25.4441 41.6838 25.5215 41.6658 25.6264Z" fill="#298FC2"/>
</g>
<defs>
<clipPath id="clip0_83_6092">
<rect width="50" height="45.3782" fill="white"/>
</clipPath>
</defs>
</svg>
