<svg width="40" height="40" viewBox="0 0 40 40" fill="none" xmlns="http://www.w3.org/2000/svg">
<path d="M20 37.5C29.665 37.5 37.5 29.665 37.5 20C37.5 10.335 29.665 2.5 20 2.5C10.335 2.5 2.5 10.335 2.5 20C2.5 29.665 10.335 37.5 20 37.5Z" fill="url(#paint0_linear_1_97)"/>
<path d="M26.5171 25.352L27.2945 20.4126H22.4315V17.2088C22.4315 15.8571 23.1096 14.5389 25.2878 14.5389H27.5V10.3337C27.5 10.3337 25.4931 10 23.5754 10C19.5685 10 16.9521 12.3662 16.9521 16.648V20.4126H12.5V25.352H16.9521V37.2931C17.8459 37.43 18.7602 37.5 19.6917 37.5C20.6233 37.5 21.5378 37.43 22.4315 37.2931V25.352H26.5171Z" fill="white"/>
<defs>
<linearGradient id="paint0_linear_1_97" x1="20" y1="2.5" x2="20" y2="37.3963" gradientUnits="userSpaceOnUse">
<stop stop-color="#18ACFE"/>
<stop offset="1" stop-color="#0163E0"/>
</linearGradient>
</defs>
</svg>
