<svg width="42" height="43" viewBox="0 0 42 43" fill="none" xmlns="http://www.w3.org/2000/svg">
<path fill-rule="evenodd" clip-rule="evenodd" d="M9.37209 21.4361C9.37209 20.1087 9.59256 18.8361 9.98605 17.6424L3.0986 12.3829C1.75628 15.1084 1 18.1794 1 21.4361C1 24.6901 1.75535 27.7592 3.09581 30.4828L9.97954 25.2131C9.58977 24.025 9.37209 22.757 9.37209 21.4361Z" fill="#FBBC05"/>
<path fill-rule="evenodd" clip-rule="evenodd" d="M21.4651 9.36022C24.3488 9.36022 26.9535 10.382 29 12.0541L34.9535 6.10902C31.3256 2.95072 26.6744 1 21.4651 1C13.3777 1 6.42697 5.62506 3.0986 12.3829L9.98604 17.6424C11.573 12.8251 16.0967 9.36022 21.4651 9.36022Z" fill="#EB4335"/>
<path fill-rule="evenodd" clip-rule="evenodd" d="M21.4651 33.5119C16.0967 33.5119 11.573 30.0471 9.98604 25.2297L3.0986 30.4883C6.42697 37.2471 13.3777 41.8721 21.4651 41.8721C26.4567 41.8721 31.2223 40.0998 34.7991 36.7789L28.2614 31.7247C26.4167 32.8868 24.094 33.5119 21.4651 33.5119Z" fill="#34A853"/>
<path fill-rule="evenodd" clip-rule="evenodd" d="M41 21.4361C41 20.2285 40.814 18.928 40.5349 17.7205H21.4651V25.6162H32.4419C31.893 28.3082 30.3991 30.3778 28.2614 31.7248L34.7991 36.779C38.5563 33.2918 41 28.0973 41 21.4361Z" fill="#4285F4"/>
</svg>
