<svg width="40" height="40" viewBox="0 0 40 40" fill="none" xmlns="http://www.w3.org/2000/svg">
<path fill-rule="evenodd" clip-rule="evenodd" d="M20 38.75C29.665 38.75 37.5 30.915 37.5 21.25C37.5 11.585 29.665 3.75 20 3.75C10.335 3.75 2.5 11.585 2.5 21.25C2.5 24.3886 3.32625 27.3343 4.77309 29.8813L2.5 38.75L11.6436 36.6297C14.1267 37.9818 16.9736 38.75 20 38.75ZM20 36.0578C28.1781 36.0578 34.8078 29.4281 34.8078 21.25C34.8078 13.072 28.1781 6.44231 20 6.44231C11.8219 6.44231 5.19231 13.072 5.19231 21.25C5.19231 24.4076 6.18063 27.3344 7.8648 29.7377L6.53846 34.7115L11.5999 33.4461C13.9867 35.0933 16.8807 36.0578 20 36.0578Z" fill="#BFC8D0"/>
<path d="M35 20C35 28.2843 28.2843 35 20 35C16.8403 35 13.9086 34.023 11.4908 32.3546L6.36364 33.6364L7.7072 28.598C6.00115 26.1634 5 23.1986 5 20C5 11.7157 11.7157 5 20 5C28.2843 5 35 11.7157 35 20Z" fill="url(#paint0_linear_122_10208)"/>
<path fill-rule="evenodd" clip-rule="evenodd" d="M20 37.5C29.665 37.5 37.5 29.665 37.5 20C37.5 10.335 29.665 2.5 20 2.5C10.335 2.5 2.5 10.335 2.5 20C2.5 23.1386 3.32625 26.0843 4.77309 28.6313L2.5 37.5L11.6436 35.3797C14.1267 36.7318 16.9736 37.5 20 37.5ZM20 34.8078C28.1781 34.8078 34.8078 28.1781 34.8078 20C34.8078 11.8219 28.1781 5.19231 20 5.19231C11.8219 5.19231 5.19231 11.8219 5.19231 20C5.19231 23.1576 6.18063 26.0844 7.8648 28.4877L6.53846 33.4615L11.5999 32.1961C13.9867 33.8433 16.8807 34.8078 20 34.8078Z" fill="white"/>
<path d="M15.625 11.8749C15.209 11.0391 14.5706 11.1131 13.9259 11.1131C12.7735 11.1131 10.9766 12.4935 10.9766 15.0625C10.9766 17.1679 11.9043 19.4725 15.0305 22.9201C18.0475 26.2474 22.0118 27.9685 25.3028 27.9099C28.5938 27.8514 29.2709 25.0192 29.2709 24.0629C29.2709 23.639 29.0077 23.4275 28.8266 23.37C27.7051 22.8317 25.6366 21.8289 25.166 21.6405C24.6954 21.4521 24.4496 21.707 24.2969 21.8456C23.8701 22.2522 23.0241 23.451 22.7344 23.7206C22.4447 23.9902 22.0129 23.8537 21.8331 23.7519C21.1717 23.4865 19.3786 22.6889 17.9494 21.3032C16.1816 19.5897 16.0779 19.0001 15.7449 18.4754C15.4785 18.0555 15.674 17.798 15.7715 17.6854C16.1524 17.246 16.6782 16.5675 16.9141 16.2304C17.1499 15.8931 16.9627 15.3812 16.8504 15.0625C16.3672 13.6912 15.9579 12.5434 15.625 11.8749Z" fill="white"/>
<defs>
<linearGradient id="paint0_linear_122_10208" x1="33.125" y1="8.75" x2="5" y2="35" gradientUnits="userSpaceOnUse">
<stop stop-color="#5BD066"/>
<stop offset="1" stop-color="#27B43E"/>
</linearGradient>
</defs>
</svg>
