<svg width="40" height="40" viewBox="0 0 40 40" fill="none" xmlns="http://www.w3.org/2000/svg">
<path fill-rule="evenodd" clip-rule="evenodd" d="M15.87 25.225L15.8687 13.9065L26.6763 19.5853L15.87 25.225ZM39.6 11.9452C39.6 11.9452 39.2087 9.16938 38.01 7.94702C36.4888 6.34197 34.7837 6.3344 34.0025 6.24124C28.405 5.83337 20.0087 5.83337 20.0087 5.83337H19.9913C19.9913 5.83337 11.595 5.83337 5.99751 6.24124C5.215 6.3344 3.51125 6.34197 1.98875 7.94702C0.790004 9.16938 0.399996 11.9452 0.399996 11.9452C0.399996 11.9452 0 15.2056 0 18.4649V21.5214C0 24.7819 0.399996 28.0411 0.399996 28.0411C0.399996 28.0411 0.790004 30.8169 1.98875 32.0392C3.51125 33.6443 5.50999 33.5939 6.39999 33.7614C9.59999 34.071 20 34.1667 20 34.1667C20 34.1667 28.405 34.1541 34.0025 33.7463C34.7837 33.6518 36.4888 33.6443 38.01 32.0392C39.2087 30.8169 39.6 28.0411 39.6 28.0411C39.6 28.0411 40 24.7819 40 21.5214V18.4649C40 15.2056 39.6 11.9452 39.6 11.9452Z" fill="#CE1312"/>
</svg>
