<svg width="112" height="21" viewBox="0 0 112 21" fill="none" xmlns="http://www.w3.org/2000/svg">
<g clip-path="url(#clip0_48_3641)">
<path d="M75.4652 0.803589C72.1269 0.803589 69.15 2.24542 67.2147 4.49699C66.6433 3.76315 65.9449 2.99231 65.1818 2.44969C63.5803 1.25409 61.5038 0.890257 59.2846 0.830502C55.5278 0.729343 52.523 2.75893 51.1392 5.04089C49.9704 2.70879 48.9217 1.49098 44.8546 1.28866H34.999L35.0012 5.3964C35.0012 5.3964 35.4699 5.54608 35.6283 5.71999C35.7605 5.86508 35.8487 6.26577 35.8487 6.26577L35.8255 15.4088C35.8255 15.4088 35.5677 15.2219 35.465 15.1021C35.2737 14.8792 35.0024 14.3523 35.0024 14.3523L29.9527 1.28428L23.5498 1.28866L17.9863 15.8332V12.72H13.9824C13.6671 13.5893 12.7819 14.1764 11.7142 14.1764C11.1515 14.1764 10.5499 14.0437 10.0624 13.7508C9.42718 13.3691 8.95248 12.9158 8.56155 12.1104C8.25397 11.365 8.01859 10.4524 7.99136 9.64497C8.08507 8.0481 8.57022 7.47892 9.45845 6.82031C9.65536 6.67431 10.2055 6.55756 10.3641 6.55681C10.7131 6.55516 11.0039 6.76683 11.1615 7.0788C11.3908 7.53258 11.0552 8.08225 10.7234 8.4733L13.9605 10.7034L18.9602 5.47213C17.2159 2.69221 14.0287 0.831128 10.386 0.831128C4.87108 0.831128 0.400513 5.097 0.400513 10.3591C0.400513 15.6212 4.72802 19.6006 10.386 20.0298L11.1014 20.0586H18.7123V20.0548H36.432V20.0536L43.094 20.0442V20.0336H44.1361V16.1192C44.1361 16.1192 43.5779 16.0028 43.3481 15.8463C43.1069 15.682 43.084 15.4232 43.084 15.4232C43.0797 15.3234 43.0998 15.2469 43.1522 15.1816C43.2036 15.1176 43.3239 15.0741 43.3694 15.0646C44.0574 14.9207 44.7589 14.7238 45.4611 14.4712C47.3348 13.7974 48.9115 12.8386 50.0308 11.7793C50.7798 16.2045 54.6688 19.4337 59.3704 19.9729C59.6774 20.0081 59.9419 20.0347 60.2291 20.0448C60.3054 20.0475 60.4582 20.0417 60.4582 20.0417H67.1077L67.0874 16.7695C68.8167 18.6892 72.1859 20.5293 75.5866 20.5293C78.3653 20.5293 80.8577 19.3126 82.6145 17.8081L82.6002 20.0711H90.9968L91.0397 16.6089L93.2287 16.6375V16.5993L96.1661 16.625V20.0586H105.121V15.509C105.121 15.509 104.739 15.4845 104.589 15.38C104.387 15.2389 104.178 14.7648 104.178 14.7648L102.919 6.40598C102.919 6.40598 102.957 5.84678 103.119 5.638C103.253 5.46623 103.691 5.32318 103.691 5.32318V1.28867H102.89H101.602H94.7641V1.40321L94.1344 3.52061L93.2287 1.38944V1.28867H93.1862L93.1618 1.23171L93.1599 1.28867H84.5457V5.52347L83.9574 4.72232C82.3414 2.36637 79.5048 0.803589 76.2745 0.803589C76.1428 0.803589 76.0118 0.805956 75.8815 0.8111C75.7433 0.806113 75.6047 0.803589 75.4652 0.803589ZM17.8755 16.6606L17.8749 16.7019H17.8373C17.8501 16.6882 17.8627 16.6744 17.8755 16.6606Z" fill="#0C4DA2"/>
<path d="M10.3794 2.62134C5.83322 2.64995 2.12024 5.96143 2.12024 10.2933C2.12024 14.6252 6.21903 18.3462 11.1805 18.2342L16.0016 18.2478V14.4522H15.0911C14.805 15.1679 13.4688 15.8679 12.5 15.8679C11.9895 15.8679 10.7043 15.7985 10.2288 15.632C9.38941 15.338 8.19167 14.9159 7.15026 13.1656C6.87118 12.552 6.08536 11.0568 6.26094 8.87567C6.34597 7.56109 7.18099 5.92009 8.67937 5.17695C9.33273 4.85291 9.99045 4.79974 11.1453 4.90454C11.9744 4.97978 12.7982 5.56275 13.0859 6.26242C13.3083 6.80356 13.2444 7.46297 12.9825 7.83858C12.9638 7.86538 12.9634 7.88911 12.9673 7.91469C12.9702 7.93416 12.9955 7.96661 12.9955 7.96661L13.4518 8.3231C13.4518 8.3231 13.5817 8.41337 13.7335 8.40933C13.8216 8.40698 13.9792 8.31137 13.9792 8.31137L16.5853 5.5764C14.9741 3.40235 12.1108 2.62134 10.3794 2.62134Z" fill="#FFCB08"/>
<path d="M75.5078 2.54797C70.6882 2.54797 66.781 6.17316 66.781 10.6452C66.781 15.1172 70.6882 18.7424 75.5078 18.7424C80.3275 18.7424 84.2347 15.1172 84.2347 10.6452C84.2347 6.17316 80.3275 2.54797 75.5078 2.54797ZM75.5648 5.06532C78.0457 5.06532 79.3754 6.84073 79.9144 8.95695C80.0687 9.56272 80.0061 11.5769 79.9142 12.2475C79.6339 14.2927 77.9623 16.2857 75.5366 16.2244C73.1729 16.1646 71.5917 15.0641 71.1018 12.1045C70.9585 11.2387 70.956 10.1987 71.0727 9.32891C71.4113 6.80701 73.0839 5.06532 75.5648 5.06532Z" fill="#FFCB08"/>
<path d="M24.7478 3.05054C24.7478 3.05054 20.9156 13.4203 20.2289 15.3087C19.5422 17.1971 18.7699 17.14 18.7699 17.14L18.8269 18.2842L23.4585 18.2829L23.4622 17.1839C23.4622 17.1839 23.165 17.1686 22.9471 16.9685C22.5244 16.5806 22.7919 15.8 22.7919 15.8L23.8628 13.0605L28.619 13.0705C28.619 13.0705 29.5461 15.3852 29.7731 16.1492C30.0694 17.1461 29.1441 17.1638 29.1441 17.1638V18.281L35.0012 18.2779L34.9975 17.1732C34.9975 17.1732 34.6486 17.12 34.2777 16.7964C33.8569 16.4294 33.5704 15.6723 33.5704 15.6723L28.7736 3.06118L24.7478 3.05054ZM26.1229 6.23884L27.7108 10.6595L24.6352 10.6733L26.1229 6.23884Z" fill="#FFCB08"/>
<path d="M36.8726 3.0343L36.8501 4.30549C36.8501 4.30549 37.2223 4.41217 37.5786 4.80746C37.7675 5.01704 37.6506 7.67718 37.6506 7.67718L37.6443 16.1925C37.6443 16.1925 37.7657 16.5281 37.3583 16.8653C37.2045 16.9926 37.0683 17.1275 36.8307 17.1482L36.8025 18.2811L42.2309 18.2942L42.244 17.142C42.244 17.142 42.052 17.0662 41.7508 16.7946C41.5808 16.6413 41.4761 16.4206 41.4785 16.2006C41.4831 15.4314 41.5011 14.6922 41.4973 13.9411C43.3988 13.4831 45.0403 12.7065 45.6802 12.4709C48.0853 11.5112 49.9517 9.98739 49.8424 7.2691C49.8217 5.34324 48.8449 3.76468 46.7523 3.40796C45.7984 3.13234 45.3605 3.08418 44.9842 3.06309L36.8726 3.0343ZM43.0808 5.19323C43.6664 5.18198 44.356 5.31614 44.8869 5.58355C45.5486 6.02284 45.9512 6.47791 45.9512 7.4406C45.9785 7.89317 45.8484 8.28231 45.6307 8.67799C45.404 9.05635 44.7183 9.78269 44.2854 10.1982C43.0195 11.1031 42.5666 11.3684 41.561 11.8313L41.5449 5.38015C42.0808 5.27908 42.5615 5.19667 43.0808 5.19323Z" fill="#FFCB08"/>
<path d="M59.8205 2.63147C55.2744 2.66008 51.5614 5.97156 51.5614 10.3035C51.5614 14.6353 55.6602 18.3564 60.6217 18.2444L65.4428 18.2579V14.4624H64.5322C64.2462 15.178 62.91 15.878 61.9412 15.878C61.4307 15.878 60.1454 15.8086 59.67 15.6421C58.8306 15.3481 57.6328 14.9261 56.5914 13.1757C56.3123 12.5622 55.5265 11.067 55.7021 8.8858C55.7871 7.57122 56.6221 5.93022 58.1205 5.18708C58.7739 4.86304 59.4316 4.80987 60.5865 4.91467C61.4156 4.98991 62.2394 5.57288 62.527 6.27256C62.7495 6.81369 62.6855 7.4731 62.4237 7.84871C62.405 7.87551 62.4046 7.89924 62.4085 7.92483C62.4114 7.9443 62.4367 7.97674 62.4367 7.97674L62.893 8.33324C62.893 8.33324 63.0229 8.4235 63.1747 8.41946C63.2628 8.41712 63.4204 8.3215 63.4204 8.3215L66.0265 5.58653C64.4153 3.41248 61.552 2.63147 59.8205 2.63147Z" fill="#FFCB08"/>
<path d="M86.4159 3.06433L86.4209 4.15652C86.4209 4.15652 86.8985 4.28508 87.0882 4.43504C87.3049 4.60648 87.2503 4.91072 87.2503 4.91072C87.2503 4.91072 85.5178 15.6766 85.4802 15.8764C85.4398 16.0913 85.3825 16.5936 85.0803 16.8728C84.7798 17.1505 84.4331 17.2064 84.4331 17.2064L84.4281 18.2836H89.2788V17.2771C89.2788 17.2771 88.884 17.2466 88.621 16.9836C88.3579 16.7206 88.4338 15.9978 88.4338 15.9978L89.6274 7.86431L92.0552 14.8643L95.0126 14.905L97.4148 7.36673L98.7554 16.0379C98.7554 16.0379 98.9172 16.6897 98.5683 17.0243C98.2998 17.2817 97.9111 17.3178 97.9111 17.3178V18.3243H103.53L103.525 17.2471C103.525 17.2471 103.4 17.2902 103.08 17.0343C102.893 16.8838 102.802 16.2128 102.762 15.9978C102.724 15.798 101.21 4.96517 101.21 4.96517C101.21 4.96517 101.184 4.51787 101.429 4.28921C101.606 4.1244 101.968 3.96812 101.968 3.96812L101.959 3.07622L96.1254 3.06934L93.9905 9.21875L91.9545 3.06934L86.4159 3.06433Z" fill="#FFCB08"/>
<path d="M108.85 0.738525C107.307 0.738525 106.056 1.98948 106.056 3.53262C106.056 5.07575 107.307 6.32671 108.85 6.32671C110.393 6.32671 111.644 5.07575 111.644 3.53262C111.644 1.98948 110.393 0.738525 108.85 0.738525ZM108.85 1.11417C110.186 1.11417 111.268 2.19695 111.268 3.53262C111.268 4.86829 110.186 5.95107 108.85 5.95107C107.514 5.95107 106.431 4.86829 106.431 3.53262C106.431 2.19695 107.514 1.11417 108.85 1.11417Z" fill="#0C4DA2"/>
<path d="M107.411 1.84509V5.15294H108.109V4.00631H109.036L109.804 5.16734L110.587 5.16233L109.651 3.93182C110.035 3.77485 110.308 3.38769 110.308 2.93415C110.308 2.34941 109.855 1.87386 109.293 1.86137V1.8476H108.109V1.84509H107.411ZM108.109 2.51292L109.27 2.51918C109.506 2.55923 109.663 2.58347 109.656 2.93781C109.65 3.317 109.358 3.36753 109.27 3.3704L108.109 3.38417V2.51292Z" fill="#0C4DA2"/>
</g>
<defs>
<clipPath id="clip0_48_3641">
<rect width="112" height="20.5093" fill="white" transform="translate(0 0.121338)"/>
</clipPath>
</defs>
</svg>
