<svg width="84" height="29" viewBox="0 0 84 29" fill="none" xmlns="http://www.w3.org/2000/svg">
<path d="M14.1248 25.0165L12.9259 21.9442L24.4656 22.5437L23.9411 27.4893L14.1248 25.0165ZM16.8974 1.2627L0.786743 8.90587L3.25954 20.3706H6.55659L6.03206 12.128L6.48166 11.9781L8.50485 20.3706H11.8768L11.8019 10.3296L12.2515 10.1797L13.975 20.3706H17.6467L18.471 8.30641L18.9955 8.08161L19.8947 20.3706H24.6155L26.3389 3.58562L16.8974 1.2627ZM80.5155 24.6418L75.9446 23.8925V23.293L80.3657 23.1432L80.2907 22.0192H74.6708L74.371 24.8666L79.0169 25.6909V26.2154L74.1462 26.4402L73.9964 27.4893H80.8153L80.5155 24.6418ZM36.7546 24.1922L36.6797 25.2413L38.3282 25.3162V26.3653L34.8064 26.2903L34.9562 23.2181L39.7519 23.1432L39.677 22.0192H33.4576L32.933 27.4893H39.9767L39.8269 24.1173L36.7546 24.1922ZM66.6529 26.2154V25.2413L69.95 25.1664V24.1173L66.578 24.0424V23.0682L70.999 22.9933V21.8693H65.0044L64.8545 27.4893H71.1489L71.074 26.3653L66.6529 26.2154ZM61.8572 27.4893L61.2577 21.9442H59.6842L57.3612 24.5669L55.0383 21.9442H53.4647L52.9402 27.4893H54.8135L54.9634 23.8925L57.3612 26.3653L59.7591 23.8925L59.909 27.4893H61.8572ZM53.9143 1.63736H50.1676L49.8679 18.797H54.3639L53.9143 1.63736ZM69.2007 1.63736H57.5111L57.0615 18.797H70.0249L69.2007 1.63736ZM65.6039 15.0504L61.4825 15.2003L61.2577 5.08428L65.6039 5.23415V15.0504ZM83.2131 5.38402L82.7635 1.63736H71.2238L71.3737 4.93442L75.0454 5.08428L75.4201 18.797H79.991L78.6422 5.23415L83.2131 5.38402ZM42.8242 18.797H47.7698L44.5477 11.0789L47.0954 9.6552L45.3719 1.63736H32.7832L32.3336 5.38402L35.181 5.30908L33.8322 18.872H38.2533L38.4032 14.5259L41.5503 12.8024L42.8242 18.797ZM38.628 5.08428L42.2247 5.00935L42.6743 8.45627L38.4781 10.4045L38.628 5.08428ZM48.3693 27.4893H50.2426L48.7439 21.9442H44.2479L42.7493 27.4893H44.6226L44.9223 26.0655L47.9946 26.1405L48.3693 27.4893ZM45.2221 25.0165L45.5967 23.2181L47.3951 23.1432L47.7698 24.9416L45.2221 25.0165Z" fill="#D1363A"/>
</svg>
