<svg width="56" height="53" viewBox="0 0 56 53" fill="none" xmlns="http://www.w3.org/2000/svg">
<g clip-path="url(#clip0_48_3642)">
<path d="M10.7411 0.626343H45.2593C50.8456 0.626343 55.3746 4.88198 55.3746 10.1316V42.5683C55.3746 47.818 50.8458 52.0736 45.2593 52.0736H10.7411C5.15458 52.0736 0.626099 47.818 0.626099 42.5683V10.1316C0.626099 4.88198 5.15458 0.626343 10.7411 0.626343Z" fill="#FFA500"/>
<path d="M45.2591 52.6994H10.7411C4.81851 52.6994 0.000183105 48.1547 0.000183105 42.5683V10.1316C0.000183105 4.54527 4.81835 0.000610352 10.7411 0.000610352H45.2593C51.1817 0.000610352 56.0002 4.54527 56.0002 10.1316V42.5683C56.0002 48.1547 51.1817 52.6994 45.2591 52.6994ZM10.7411 1.25228C5.50864 1.25228 1.25168 5.23539 1.25168 10.1316V42.5683C1.25168 47.4644 5.50864 51.4477 10.7411 51.4477H45.2593C50.4917 51.4477 54.7487 47.4644 54.7487 42.5683V10.1316C54.7487 5.23556 50.4917 1.25228 45.2593 1.25228H10.7411Z" fill="black"/>
<path d="M19.9557 9.33545L30.3505 9.36004C32.5229 9.3437 34.1451 9.6905 35.2165 10.4004C36.5251 11.2706 37.1791 12.7679 37.1791 14.8923C37.1791 18.3899 35.5569 20.3715 32.3128 20.8365V20.8855C33.7434 21.2419 34.4665 22.4264 34.4827 24.439C34.4827 25.4698 34.4442 26.7903 34.3671 28.4005C34.3671 29.4803 34.5956 30.4146 35.0531 31.2032H29.3572C29.0912 30.9149 28.9584 30.3276 28.9584 29.4409C29.0673 27.9586 29.1218 26.7426 29.1218 25.7933C29.1218 23.8758 28.2004 22.9171 26.3576 22.9171H22.672L21.0646 30.6729H15.5164L19.9557 9.33545ZM28.743 13.7824H24.6587L23.5935 18.931H28.0131C30.4835 18.931 31.7265 17.9562 31.7426 16.0059C31.7428 14.5237 30.7427 13.7824 28.743 13.7824Z" fill="black"/>
<path d="M35.8071 31.1787L39.9196 24.0513L41.0283 31.2278H48.0445L41.7145 35.7727L42.728 42.9001L37.2473 38.6002L29.88 43.0716L33.3262 35.4831L29.3098 31.1585L35.8071 31.1787ZM54.5529 49.9771C54.7807 49.9771 55.0028 50.0368 55.2197 50.1564C55.4368 50.2757 55.6058 50.4469 55.7265 50.6694C55.8478 50.8919 55.9082 51.1238 55.9082 51.3653C55.9082 51.6044 55.8488 51.8342 55.7293 52.0547C55.6147 52.2705 55.4406 52.4489 55.2277 52.5687C55.0127 52.6909 54.7878 52.7516 54.5526 52.7516C54.318 52.7516 54.093 52.6906 53.8776 52.5687C53.6645 52.4489 53.4902 52.2705 53.3752 52.0547C53.2555 51.8342 53.1954 51.6041 53.1954 51.3653C53.1954 51.1238 53.2563 50.8919 53.378 50.6694C53.4998 50.4469 53.669 50.2759 53.8859 50.1564C54.1031 50.0367 54.3254 49.9771 54.5529 49.9771ZM54.5529 50.2067C54.3624 50.2067 54.1769 50.2567 53.9966 50.3567C53.8172 50.4557 53.6701 50.6044 53.5731 50.7849C53.4712 50.9708 53.4202 51.1641 53.4202 51.3649C53.4202 51.5648 53.4704 51.7565 53.5704 51.9397C53.667 52.1193 53.8125 52.2678 53.99 52.3682C54.1698 52.4704 54.3571 52.5217 54.5527 52.5217C54.748 52.5217 54.9357 52.4704 55.1156 52.3682C55.293 52.268 55.4382 52.1194 55.5342 51.9397C55.6337 51.7565 55.6834 51.565 55.6834 51.3649C55.6834 51.1639 55.6326 50.9708 55.5315 50.7849C55.435 50.6041 55.2879 50.4553 55.1082 50.3567C54.9276 50.2567 54.7424 50.2067 54.5529 50.2067ZM53.958 52.132V50.639H54.4595C54.631 50.639 54.7549 50.6527 54.8315 50.6803C54.9084 50.7078 54.9693 50.756 55.0147 50.8247C55.0604 50.8934 55.0832 50.9661 55.0832 51.0434C55.0832 51.1525 55.0453 51.2476 54.969 51.3283C54.8931 51.4092 54.7921 51.4544 54.6661 51.4643C54.7176 51.4866 54.759 51.5128 54.7899 51.5435C54.849 51.6023 54.9206 51.701 55.0058 51.8393L55.1838 52.1318H54.8962L54.767 51.8964C54.6651 51.7116 54.5829 51.5955 54.5207 51.549C54.4775 51.5145 54.4146 51.4973 54.3317 51.4973H54.1934V52.1318H53.958V52.132ZM54.1934 51.2915H54.4793C54.6161 51.2915 54.7092 51.2707 54.7589 51.2288C54.8084 51.1875 54.8333 51.132 54.8333 51.0634C54.8339 51.0211 54.8213 50.9797 54.7973 50.9449C54.7727 50.9094 54.738 50.8822 54.6976 50.8668C54.6551 50.8498 54.5765 50.8409 54.4614 50.8409H54.1934V51.2915Z" fill="black"/>
<path d="M40.6017 35.2627L44.8058 32.2681H40.1549L39.3492 27.0746L36.3976 32.2192H31.6987L34.5546 35.2873L32.1934 40.436L37.3189 37.3436L41.3597 40.5095L40.6017 35.2627Z" fill="white"/>
</g>
<defs>
<clipPath id="clip0_48_3642">
<rect width="56" height="52.752" fill="white"/>
</clipPath>
</defs>
</svg>
